<svg width="18" height="15" viewBox="0 0 18 15" fill="none" xmlns="http://www.w3.org/2000/svg">
<path d="M16.5 0H1.5C0.671875 0 0 0.629883 0 1.40625V10.7812C0 11.5576 0.671875 12.1875 1.5 12.1875H7.5L7 13.5938H4.75C4.33437 13.5938 4 13.9072 4 14.2969C4 14.6865 4.33437 15 4.75 15H13.25C13.6656 15 14 14.6865 14 14.2969C14 13.9072 13.6656 13.5938 13.25 13.5938H11L10.5 12.1875H16.5C17.3281 12.1875 18 11.5576 18 10.7812V1.40625C18 0.629883 17.3281 0 16.5 0ZM16 10.3125H2V1.875H16V10.3125Z" fill="#616763"/>
</svg>
