<svg width="14" height="18" viewBox="0 0 14 18" fill="none" xmlns="http://www.w3.org/2000/svg">
<path d="M13.4859 3.44464L10.4271 0.495606C10.099 0.179262 9.65417 0 9.19115 0H1.75C0.783854 0.00351494 0 0.759227 0 1.69069V16.3128C0 17.2443 0.783854 18 1.75 18H12.25C13.2161 18 14 17.2443 14 16.3128V4.63972C14 4.19332 13.8141 3.76098 13.4859 3.44464ZM12.1078 4.50264H9.33333V1.82777L12.1078 4.50264ZM1.75 16.3128V1.69069H7.58333V5.34622C7.58333 5.81371 7.97344 6.18981 8.45833 6.18981H12.25V16.3128H1.75ZM10.8719 11.2619C10.4271 10.8401 9.15833 10.9561 8.52396 11.0334C7.89687 10.6643 7.4776 10.1547 7.18229 9.40598C7.32448 8.84007 7.55052 7.97891 7.37917 7.43761C7.22604 6.5167 6.00104 6.60809 5.82604 7.23023C5.66563 7.79613 5.81146 8.58348 6.08125 9.58875C5.71667 10.4288 5.17344 11.5571 4.79062 12.2039C4.06146 12.5659 3.07708 13.1248 2.93125 13.8278C2.81094 14.3831 3.87917 15.768 5.70573 12.7311C6.5224 12.471 7.41198 12.1511 8.19948 12.0246C8.88854 12.3831 9.69427 12.6221 10.2339 12.6221C11.1635 12.6221 11.2547 11.6309 10.8719 11.2619ZM3.64948 13.9965C3.83542 13.5149 4.54271 12.9596 4.75781 12.7663C4.0651 13.8313 3.64948 14.0211 3.64948 13.9965ZM6.62448 7.29701C6.89427 7.29701 6.86875 8.42531 6.6901 8.73111C6.52969 8.24253 6.53333 7.29701 6.62448 7.29701ZM5.7349 12.0984C6.08854 11.5044 6.39115 10.7979 6.63542 10.1757C6.93802 10.7065 7.32448 11.1318 7.73281 11.4236C6.97448 11.5747 6.31458 11.884 5.7349 12.0984ZM10.5328 11.9227C10.5328 11.9227 10.3505 12.1336 9.17292 11.6485C10.4526 11.5571 10.6641 11.8383 10.5328 11.9227Z" fill="#B3B7B5"/>
</svg>
