<svg width="152" height="13" viewBox="0 0 152 13" fill="none" xmlns="http://www.w3.org/2000/svg">
<path d="M9.612 2.372C9.612 1.988 9.924 1.676 10.308 1.676C10.692 1.676 11.004 1.988 11.004 2.372C11.004 2.744 10.692 3.056 10.308 3.056C9.924 3.056 9.612 2.744 9.612 2.372ZM8.868 2.372C8.868 3.152 9.516 3.8 10.308 3.8C11.1 3.8 11.748 3.152 11.748 2.372C11.748 1.58 11.1 0.931999 10.308 0.931999C9.516 0.931999 8.868 1.58 8.868 2.372ZM2.304 7.268C1.896 8.324 1.188 9.62 0.432 10.604L2.112 11.312C2.748 10.412 3.456 9.044 3.888 7.88C4.308 6.764 4.74 5.108 4.908 4.268C4.956 4.004 5.088 3.416 5.196 3.068L3.444 2.708C3.3 4.232 2.844 5.924 2.304 7.268ZM8.232 7.016C8.712 8.312 9.144 9.824 9.48 11.252L11.256 10.676C10.92 9.488 10.284 7.568 9.864 6.488C9.408 5.324 8.58 3.476 8.088 2.552L6.492 3.068C6.996 3.98 7.776 5.756 8.232 7.016ZM13.104 5.444V7.328C13.548 7.292 14.352 7.268 15.036 7.268H21.48C21.984 7.268 22.596 7.316 22.884 7.328V5.444C22.572 5.468 22.044 5.516 21.48 5.516H15.036C14.412 5.516 13.536 5.48 13.104 5.444ZM29.4416 1.652L27.9416 2.144C28.3016 2.888 28.9616 4.628 29.1896 5.396L30.7016 4.868C30.4736 4.088 29.7416 2.24 29.4416 1.652ZM34.9256 2.612L33.1256 2.096C32.9216 3.932 32.1776 5.996 31.2776 7.136C30.0536 8.684 28.1816 9.764 26.5376 10.232L27.8816 11.576C29.5976 10.928 31.3376 9.716 32.5976 8.06C33.5936 6.752 34.2776 4.844 34.6136 3.536C34.6856 3.272 34.7936 2.912 34.9256 2.612ZM26.1056 2.396L24.5696 2.924C24.9176 3.572 25.7096 5.54 25.9496 6.32L27.4976 5.756C27.2216 4.94 26.4656 3.152 26.1056 2.396ZM41.5976 1.376L40.0136 1.244C39.9896 1.676 39.9056 2.144 39.7736 2.624C39.5816 2.624 39.3776 2.624 39.1976 2.624C38.5856 2.624 37.6976 2.576 37.0856 2.48V3.884C37.7456 3.932 38.6216 3.956 39.1136 3.956C39.1616 3.956 39.2096 3.956 39.2696 3.956C38.7296 5.036 37.8776 6.104 36.6176 7.268L37.9016 8.228C38.3096 7.7 38.6576 7.268 39.0176 6.908C39.4736 6.464 40.2176 6.08 40.8896 6.08C41.2256 6.08 41.5496 6.188 41.7296 6.488C40.3616 7.196 38.9216 8.156 38.9216 9.692C38.9216 11.24 40.3136 11.696 42.1976 11.696C43.3256 11.696 44.8016 11.6 45.5936 11.492L45.6416 9.944C44.5856 10.148 43.2536 10.28 42.2336 10.28C41.0576 10.28 40.4936 10.1 40.4936 9.44C40.4936 8.84 40.9736 8.372 41.8736 7.856C41.8616 8.384 41.8496 8.96 41.8136 9.32H43.2536C43.2416 8.768 43.2176 7.88 43.2056 7.208C43.9376 6.872 44.6216 6.608 45.1616 6.392C45.5696 6.236 46.2056 5.996 46.5896 5.888L45.9896 4.496C45.5456 4.724 45.1256 4.916 44.6576 5.12C44.1656 5.336 43.6616 5.54 43.0376 5.828C42.7736 5.216 42.1736 4.904 41.4416 4.904C41.0456 4.904 40.3976 5 40.0856 5.144C40.3256 4.796 40.5656 4.364 40.7696 3.92C42.0656 3.884 43.5416 3.788 44.6816 3.62L44.6936 2.228C43.6376 2.408 42.4376 2.516 41.2976 2.576C41.4536 2.072 41.5376 1.676 41.5976 1.376ZM55.9496 2.072L54.9416 2.492C55.3856 3.116 55.6496 3.596 55.9976 4.352L57.0416 3.884C56.7656 3.344 56.2856 2.576 55.9496 2.072ZM57.5216 1.412L56.5256 1.88C56.9696 2.48 57.2576 2.924 57.6416 3.68L58.6496 3.188C58.3736 2.648 57.8696 1.892 57.5216 1.412ZM51.1616 10.028C51.1616 10.496 51.1136 11.228 51.0416 11.696H52.9256C52.8656 11.204 52.8056 10.364 52.8056 10.028V6.632C54.1016 7.064 55.9016 7.76 57.1496 8.42L57.8216 6.752C56.7176 6.212 54.4016 5.36 52.8056 4.88V3.128C52.8056 2.624 52.8656 2.096 52.9136 1.676H51.0416C51.1256 2.108 51.1616 2.696 51.1616 3.128V10.028ZM62.4416 1.796V3.344C62.7896 3.32 63.3056 3.308 63.6896 3.308H68.2856C68.7176 3.308 69.2816 3.32 69.6056 3.344V1.796C69.2696 1.844 68.6816 1.856 68.3096 1.856H63.6896C63.2816 1.856 62.7776 1.844 62.4416 1.796ZM70.6136 5.276L69.5456 4.616C69.3776 4.688 69.0536 4.736 68.6696 4.736H62.7296C62.3576 4.736 61.8416 4.7 61.3376 4.664V6.224C61.8416 6.176 62.4416 6.164 62.7296 6.164H68.5256C68.3096 6.836 67.9376 7.58 67.2896 8.24C66.3776 9.176 64.9376 9.968 63.1376 10.34L64.3256 11.696C65.8616 11.264 67.3976 10.448 68.6096 9.104C69.5096 8.108 70.0256 6.944 70.3856 5.78C70.4336 5.648 70.5296 5.432 70.6136 5.276ZM77.8256 3.872L76.3976 4.34C76.6976 4.964 77.2256 6.416 77.3696 7.004L78.8096 6.5C78.6416 5.948 78.0536 4.388 77.8256 3.872ZM82.2536 4.748L80.5736 4.208C80.4296 5.708 79.8536 7.304 79.0376 8.324C78.0416 9.572 76.3736 10.484 75.0536 10.832L76.3136 12.116C77.7176 11.588 79.2176 10.58 80.3336 9.14C81.1496 8.084 81.6536 6.836 81.9656 5.624C82.0376 5.384 82.1096 5.132 82.2536 4.748ZM75.0416 4.508L73.6016 5.024C73.8896 5.552 74.4896 7.148 74.6936 7.796L76.1576 7.244C75.9176 6.572 75.3416 5.12 75.0416 4.508ZM90.6416 1.64L88.8896 1.064C88.7816 1.472 88.5296 2.024 88.3496 2.324C87.7496 3.356 86.7056 4.904 84.6056 6.188L85.9496 7.184C87.1256 6.38 88.1696 5.324 88.9736 4.28H92.3456C92.1536 5.18 91.4576 6.62 90.6416 7.556C89.5976 8.744 88.2656 9.788 85.8056 10.52L87.2216 11.792C89.4776 10.904 90.9296 9.8 92.0696 8.408C93.1496 7.064 93.8336 5.468 94.1576 4.4C94.2536 4.1 94.4216 3.764 94.5536 3.536L93.3296 2.78C93.0536 2.864 92.6576 2.924 92.2856 2.924H89.8736C89.8856 2.9 89.8976 2.888 89.9096 2.864C90.0536 2.6 90.3656 2.06 90.6416 1.64ZM96.1816 8.70312C96.1816 8.30859 96.291 7.94336 96.5098 7.60742C96.7324 7.27148 97.1387 6.89844 97.7285 6.48828C97.4746 6.14844 97.2754 5.83008 97.1309 5.5332C96.9863 5.23242 96.9141 4.91992 96.9141 4.5957C96.9141 3.93164 97.123 3.39258 97.541 2.97852C97.9629 2.56055 98.5293 2.35156 99.2402 2.35156C99.877 2.35156 100.398 2.54102 100.805 2.91992C101.215 3.29883 101.42 3.77148 101.42 4.33789C101.42 5.01758 101.076 5.61719 100.389 6.13672L99.7324 6.61133L101.203 8.32227C101.434 7.86914 101.549 7.36914 101.549 6.82227H102.99C102.99 7.93164 102.734 8.83008 102.223 9.51758L103.5 11H101.578L101.139 10.4961C100.51 10.9102 99.7871 11.1172 98.9707 11.1172C98.127 11.1172 97.4512 10.8965 96.9434 10.4551C96.4355 10.0098 96.1816 9.42578 96.1816 8.70312ZM99.0527 9.75781C99.459 9.75781 99.8438 9.64453 100.207 9.41797L98.5254 7.47266L98.4023 7.56055C98.0547 7.85742 97.8809 8.20703 97.8809 8.60938C97.8809 8.94922 97.9883 9.22656 98.2031 9.44141C98.4219 9.65234 98.7051 9.75781 99.0527 9.75781ZM98.4316 4.57227C98.4316 4.86523 98.6035 5.23438 98.9473 5.67969L99.3984 5.38086C99.6289 5.23242 99.7871 5.08789 99.873 4.94727C99.9629 4.80664 100.008 4.63867 100.008 4.44336C100.008 4.24805 99.9355 4.07812 99.791 3.93359C99.6465 3.78906 99.4609 3.7168 99.2344 3.7168C98.9922 3.7168 98.7969 3.79492 98.6484 3.95117C98.5039 4.10742 98.4316 4.31445 98.4316 4.57227ZM111.825 2.072L110.817 2.492C111.261 3.116 111.525 3.596 111.873 4.352L112.917 3.884C112.641 3.344 112.161 2.576 111.825 2.072ZM113.397 1.412L112.401 1.88C112.845 2.48 113.133 2.924 113.517 3.68L114.525 3.188C114.249 2.648 113.745 1.892 113.397 1.412ZM107.037 10.028C107.037 10.496 106.989 11.228 106.917 11.696H108.801C108.741 11.204 108.681 10.364 108.681 10.028V6.632C109.977 7.064 111.777 7.76 113.025 8.42L113.697 6.752C112.593 6.212 110.277 5.36 108.681 4.88V3.128C108.681 2.624 108.741 2.096 108.789 1.676H106.917C107.001 2.108 107.037 2.696 107.037 3.128V10.028ZM117.153 2.492C117.177 2.828 117.177 3.32 117.177 3.656V9.524C117.177 10.1 117.141 11.144 117.141 11.204H118.797C118.797 11.168 118.797 10.892 118.785 10.556H124.569C124.569 10.904 124.557 11.18 124.557 11.204H126.213C126.213 11.156 126.189 10.004 126.189 9.536V3.656C126.189 3.296 126.189 2.852 126.213 2.492C125.781 2.516 125.325 2.516 125.025 2.516H118.425C118.101 2.516 117.645 2.504 117.153 2.492ZM118.785 4.04H124.581V9.02H118.785V4.04ZM133.701 3.872L132.273 4.34C132.573 4.964 133.101 6.416 133.245 7.004L134.685 6.5C134.517 5.948 133.929 4.388 133.701 3.872ZM138.129 4.748L136.449 4.208C136.305 5.708 135.729 7.304 134.913 8.324C133.917 9.572 132.249 10.484 130.929 10.832L132.189 12.116C133.593 11.588 135.093 10.58 136.209 9.14C137.025 8.084 137.529 6.836 137.841 5.624C137.913 5.384 137.985 5.132 138.129 4.748ZM130.917 4.508L129.477 5.024C129.765 5.552 130.365 7.148 130.569 7.796L132.033 7.244C131.793 6.572 131.217 5.12 130.917 4.508ZM149.289 2.204C149.289 1.82 149.601 1.508 149.985 1.508C150.357 1.508 150.669 1.82 150.669 2.204C150.669 2.576 150.357 2.888 149.985 2.888C149.601 2.888 149.289 2.576 149.289 2.204ZM148.545 2.204C148.545 2.288 148.557 2.36 148.569 2.432C148.317 2.468 148.053 2.48 147.885 2.48H142.329C141.933 2.48 141.249 2.432 140.901 2.384V4.076C141.201 4.052 141.777 4.028 142.329 4.028H147.909C147.753 5.06 147.297 6.416 146.505 7.412C145.533 8.636 144.177 9.68 141.801 10.232L143.109 11.672C145.245 10.976 146.853 9.788 147.933 8.348C148.941 7.016 149.457 5.156 149.733 3.98C149.769 3.872 149.793 3.752 149.829 3.62C149.877 3.632 149.937 3.632 149.985 3.632C150.765 3.632 151.413 2.984 151.413 2.204C151.413 1.412 150.765 0.763999 149.985 0.763999C149.193 0.763999 148.545 1.412 148.545 2.204Z" fill="#2A8E6A"/>
</svg>
