<svg width="16" height="17" viewBox="0 0 16 17" fill="none" xmlns="http://www.w3.org/2000/svg">
<path d="M6.8312 16.4274L6.83121 2.71487C6.83121 2.56301 6.77143 2.41737 6.66503 2.30998C6.55862 2.2026 6.41431 2.14228 6.26383 2.14228L4.44823 2.14228C4.29775 2.14228 4.15343 2.2026 4.04703 2.30998C3.94063 2.41736 3.88085 2.56301 3.88085 2.71487L3.88085 16.4274C3.88085 16.5793 3.94063 16.7249 4.04703 16.8323C4.15343 16.9397 4.29775 17 4.44823 17L6.26383 17C6.41431 17 6.55862 16.9397 6.66503 16.8323C6.77143 16.7249 6.8312 16.5793 6.8312 16.4274ZM9.10071 10.8513C9.10071 10.9082 9.11181 10.9644 9.13338 11.017C9.15494 11.0695 9.18656 11.1172 9.2264 11.1574C9.26625 11.1976 9.31356 11.2294 9.36561 11.2511C9.41767 11.2729 9.47346 11.284 9.52979 11.284L11.6223 11.284C11.736 11.284 11.8451 11.2384 11.9255 11.1572C12.0059 11.0761 12.0511 10.9661 12.0511 10.8513L12.0511 2.55555C12.0511 2.4987 12.0401 2.4424 12.0185 2.38987C11.997 2.33734 11.9654 2.2896 11.9256 2.24938C11.8858 2.20917 11.8385 2.17727 11.7865 2.1555C11.7344 2.13373 11.6787 2.12253 11.6223 2.12253L9.52979 2.12253C9.47344 2.12253 9.41764 2.13373 9.36559 2.15549C9.31353 2.17725 9.26623 2.20915 9.22638 2.24936C9.18654 2.28957 9.15493 2.33731 9.13337 2.38984C9.11181 2.44238 9.10071 2.49869 9.10071 2.55555L9.10071 10.8513Z" fill="#525855"/>
<path d="M16 0.822367L16 0.352467C16 0.157816 15.8422 2.64491e-05 15.6475 3.64956e-05L0.352479 -6.83974e-07C0.157801 -1.0242e-06 -1.02372e-05 0.157789 4.91234e-07 0.352429L1.50959e-06 0.82235C1.84987e-06 1.017 0.157813 1.17479 0.352481 1.17478L15.6475 1.1748C15.8422 1.17479 16 1.017 16 0.822367Z" fill="#525855"/>
</svg>
