<svg width="16" height="17" viewBox="0 0 16 17" fill="none" xmlns="http://www.w3.org/2000/svg">
<path d="M6.8312 14.2883L6.83121 0.591647C6.83121 0.439963 6.77143 0.294491 6.66502 0.187234C6.55862 0.0799774 6.41431 0.0197211 6.26383 0.0197211L4.44823 0.019721C4.29775 0.019721 4.15343 0.0799773 4.04703 0.187234C3.94063 0.294491 3.88085 0.439963 3.88085 0.591647L3.88085 14.2883C3.88085 14.44 3.94063 14.5854 4.04703 14.6927C4.15343 14.8 4.29775 14.8602 4.44823 14.8602L6.26383 14.8602C6.41431 14.8602 6.55862 14.8 6.66502 14.6927C6.77143 14.5854 6.8312 14.44 6.8312 14.2883ZM9.10071 8.71865C9.10071 8.77544 9.11181 8.83166 9.13338 8.88412C9.15494 8.93657 9.18655 8.98423 9.2264 9.02436C9.26625 9.0645 9.31355 9.09632 9.36561 9.11802C9.41767 9.13972 9.47345 9.15086 9.52979 9.15081L11.6223 9.15081C11.736 9.15081 11.8451 9.10528 11.9255 9.02424C12.0059 8.94319 12.0511 8.83327 12.0511 8.71865L12.0511 0.432519C12.0511 0.375736 12.0401 0.319501 12.0185 0.267028C11.997 0.214554 11.9654 0.166871 11.9256 0.126703C11.8858 0.0865354 11.8385 0.0546706 11.7865 0.0329301C11.7344 0.0111896 11.6787 -2.08315e-07 11.6223 -1.91354e-07L9.52979 -2.82822e-07C9.47344 -2.85285e-07 9.41764 0.011187 9.36559 0.0329231C9.31353 0.0546592 9.26623 0.0865182 9.22638 0.126681C9.18654 0.166844 9.15493 0.214525 9.13337 0.267C9.11181 0.319476 9.10071 0.375719 9.10071 0.432518L9.10071 8.71865Z" fill="#525855"/>
<path d="M16 16.648L16 16.1786C16 15.9842 15.8422 15.8266 15.6475 15.8266L0.352479 15.8266C0.1578 15.8266 -1.0929e-05 15.9842 -2.00549e-07 16.1786L-2.21066e-07 16.648C1.19222e-07 16.8424 0.157813 17 0.352481 17L15.6475 17C15.8422 17 16 16.8424 16 16.648Z" fill="#525855"/>
</svg>
