<svg width="28" height="28" viewBox="0 0 28 28" fill="none" xmlns="http://www.w3.org/2000/svg">
<path d="M1 12H27C27.2652 12 27.5196 11.8946 27.7071 11.7071C27.8946 11.5196 28 11.2652 28 11V9C28 8.73478 27.8946 8.48043 27.7071 8.29289C27.5196 8.10536 27.2652 8 27 8H1C0.734784 8 0.48043 8.10536 0.292893 8.29289C0.105357 8.48043 0 8.73478 0 9V11C0 11.2652 0.105357 11.5196 0.292893 11.7071C0.48043 11.8946 0.734784 12 1 12ZM27 24H1C0.734784 24 0.48043 24.1054 0.292893 24.2929C0.105357 24.4804 0 24.7348 0 25V27C0 27.2652 0.105357 27.5196 0.292893 27.7071C0.48043 27.8946 0.734784 28 1 28H27C27.2652 28 27.5196 27.8946 27.7071 27.7071C27.8946 27.5196 28 27.2652 28 27V25C28 24.7348 27.8946 24.4804 27.7071 24.2929C27.5196 24.1054 27.2652 24 27 24ZM27.1981 2.43973e-07H10.8019C10.6965 -8.19463e-05 10.5922 0.020603 10.4949 0.0608718C10.3976 0.101141 10.3092 0.160203 10.2347 0.234681C10.1602 0.309158 10.1011 0.397589 10.0609 0.494914C10.0206 0.592239 9.99992 0.696549 10 0.801875V3.19813C9.99992 3.30345 10.0206 3.40776 10.0609 3.50509C10.1011 3.60241 10.1602 3.69084 10.2347 3.76532C10.3092 3.8398 10.3976 3.89886 10.4949 3.93913C10.5922 3.9794 10.6965 4.00008 10.8019 4H27.1981C27.3035 4.00008 27.4078 3.9794 27.5051 3.93913C27.6024 3.89886 27.6908 3.8398 27.7653 3.76532C27.8398 3.69084 27.8989 3.60241 27.9391 3.50509C27.9794 3.40776 28.0001 3.30345 28 3.19813V0.801875C28.0001 0.696549 27.9794 0.592239 27.9391 0.494914C27.8989 0.397589 27.8398 0.309158 27.7653 0.234681C27.6908 0.160203 27.6024 0.101141 27.5051 0.0608718C27.4078 0.020603 27.3035 -8.19463e-05 27.1981 2.43973e-07ZM27.1981 16H10.8019C10.6965 15.9999 10.5922 16.0206 10.4949 16.0609C10.3976 16.1011 10.3092 16.1602 10.2347 16.2347C10.1602 16.3092 10.1011 16.3976 10.0609 16.4949C10.0206 16.5922 9.99992 16.6965 10 16.8019V19.1981C9.99992 19.3035 10.0206 19.4078 10.0609 19.5051C10.1011 19.6024 10.1602 19.6908 10.2347 19.7653C10.3092 19.8398 10.3976 19.8989 10.4949 19.9391C10.5922 19.9794 10.6965 20.0001 10.8019 20H27.1981C27.3035 20.0001 27.4078 19.9794 27.5051 19.9391C27.6024 19.8989 27.6908 19.8398 27.7653 19.7653C27.8398 19.6908 27.8989 19.6024 27.9391 19.5051C27.9794 19.4078 28.0001 19.3035 28 19.1981V16.8019C28.0001 16.6965 27.9794 16.5922 27.9391 16.4949C27.8989 16.3976 27.8398 16.3092 27.7653 16.2347C27.6908 16.1602 27.6024 16.1011 27.5051 16.0609C27.4078 16.0206 27.3035 15.9999 27.1981 16Z" fill="white"/>
</svg>
