<svg width="28" height="28" viewBox="0 0 28 28" fill="none" xmlns="http://www.w3.org/2000/svg">
<path d="M0.801875 20H17.1981C17.3035 20.0001 17.4078 19.9794 17.5051 19.9391C17.6024 19.8989 17.6908 19.8398 17.7653 19.7653C17.8398 19.6908 17.8989 19.6024 17.9391 19.5051C17.9794 19.4078 18.0001 19.3035 18 19.1981V16.8019C18.0001 16.6965 17.9794 16.5922 17.9391 16.4949C17.8989 16.3976 17.8398 16.3092 17.7653 16.2347C17.6908 16.1602 17.6024 16.1011 17.5051 16.0609C17.4078 16.0206 17.3035 15.9999 17.1981 16H0.801875C0.696548 15.9999 0.592239 16.0206 0.494914 16.0609C0.397589 16.1011 0.309158 16.1602 0.234681 16.2347C0.160203 16.3092 0.101141 16.3976 0.0608719 16.4949C0.0206031 16.5922 -8.19463e-05 16.6965 2.43972e-07 16.8019V19.1981C-8.19463e-05 19.3035 0.0206031 19.4078 0.0608719 19.5051C0.101141 19.6024 0.160203 19.6908 0.234681 19.7653C0.309158 19.8398 0.397589 19.8989 0.494914 19.9391C0.592239 19.9794 0.696548 20.0001 0.801875 20V20ZM0.801875 4H17.1981C17.3035 4.00008 17.4078 3.9794 17.5051 3.93913C17.6024 3.89886 17.6908 3.8398 17.7653 3.76532C17.8398 3.69084 17.8989 3.60241 17.9391 3.50509C17.9794 3.40776 18.0001 3.30345 18 3.19813V0.801875C18.0001 0.696549 17.9794 0.592239 17.9391 0.494914C17.8989 0.397589 17.8398 0.309158 17.7653 0.234681C17.6908 0.160203 17.6024 0.101141 17.5051 0.0608718C17.4078 0.020603 17.3035 -8.19463e-05 17.1981 2.43974e-07H0.801875C0.696548 -8.19463e-05 0.592239 0.020603 0.494914 0.0608718C0.397589 0.101141 0.309158 0.160203 0.234681 0.234681C0.160203 0.309158 0.101141 0.397589 0.0608719 0.494914C0.0206031 0.592239 -8.19463e-05 0.696549 2.43972e-07 0.801875V3.19813C-8.19463e-05 3.30345 0.0206031 3.40776 0.0608719 3.50509C0.101141 3.60241 0.160203 3.69084 0.234681 3.76532C0.309158 3.8398 0.397589 3.89886 0.494914 3.93913C0.592239 3.9794 0.696548 4.00008 0.801875 4V4ZM27 8H1C0.734784 8 0.48043 8.10536 0.292893 8.29289C0.105357 8.48043 2.43972e-07 8.73478 2.43972e-07 9V11C2.43972e-07 11.2652 0.105357 11.5196 0.292893 11.7071C0.48043 11.8946 0.734784 12 1 12H27C27.2652 12 27.5196 11.8946 27.7071 11.7071C27.8946 11.5196 28 11.2652 28 11V9C28 8.73478 27.8946 8.48043 27.7071 8.29289C27.5196 8.10536 27.2652 8 27 8ZM27 24H1C0.734784 24 0.48043 24.1054 0.292893 24.2929C0.105357 24.4804 2.43972e-07 24.7348 2.43972e-07 25V27C2.43972e-07 27.2652 0.105357 27.5196 0.292893 27.7071C0.48043 27.8946 0.734784 28 1 28H27C27.2652 28 27.5196 27.8946 27.7071 27.7071C27.8946 27.5196 28 27.2652 28 27V25C28 24.7348 27.8946 24.4804 27.7071 24.2929C27.5196 24.1054 27.2652 24 27 24Z" fill="white"/>
</svg>
