<svg width="17" height="16" viewBox="0 0 17 16" fill="none" xmlns="http://www.w3.org/2000/svg">
<path d="M7.25815 15.3834L7.25816 0.616611C7.25816 0.453075 7.19464 0.296238 7.08159 0.180601C6.96854 0.0649638 6.8152 -4.45192e-07 6.65532 -4.5218e-07L4.72624 -5.36503e-07C4.56636 -5.43492e-07 4.41302 0.0649637 4.29997 0.180601C4.18692 0.296238 4.1234 0.453075 4.1234 0.616611L4.1234 15.3834C4.1234 15.5469 4.18692 15.7038 4.29997 15.8194C4.41302 15.935 4.56636 16 4.72624 16L6.65532 16C6.8152 16 6.96853 15.935 7.08159 15.8194C7.19464 15.7038 7.25815 15.5469 7.25815 15.3834ZM9.6695 12.5042C9.6695 12.5654 9.6813 12.626 9.70421 12.6826C9.72713 12.7391 9.76071 12.7905 9.80305 12.8338C9.84539 12.877 9.89565 12.9114 9.95096 12.9347C10.0063 12.9581 10.0655 12.9701 10.1254 12.9701L12.3487 12.9701C12.4695 12.9701 12.5854 12.921 12.6708 12.8336C12.7563 12.7463 12.8043 12.6277 12.8043 12.5042L12.8043 3.57063C12.8043 3.50941 12.7926 3.44878 12.7697 3.39221C12.7468 3.33564 12.7133 3.28423 12.671 3.24092C12.6287 3.19762 12.5784 3.16326 12.5231 3.13982C12.4679 3.11638 12.4086 3.10432 12.3487 3.10432L10.1254 3.10432C10.0655 3.10432 10.0062 3.11638 9.95093 3.13981C9.89562 3.16325 9.84536 3.1976 9.80303 3.2409C9.7607 3.2842 9.72712 3.33561 9.70421 3.39218C9.68129 3.44876 9.6695 3.50939 9.6695 3.57063L9.6695 12.5042Z" fill="#525855"/>
<path d="M17 8.25303L17 7.74701C17 7.53739 16.8323 7.36747 16.6255 7.36748L0.374509 7.36744C0.167663 7.36744 -1.25124e-05 7.53736 -1.11349e-06 7.74697L-3.17838e-08 8.25302C3.2964e-07 8.46263 0.167676 8.63255 0.374511 8.63254L16.6255 8.63256C16.8323 8.63255 17 8.46263 17 8.25303Z" fill="#525855"/>
</svg>
