<svg width="18" height="12" viewBox="0 0 18 12" fill="none" xmlns="http://www.w3.org/2000/svg">
<path d="M17.25 0H3.5C2.84819 0 2.29241 0.418031 2.086 1H0.75C0.335781 1 0 1.33578 0 1.75V10.25C0 11.2165 0.7835 12 1.75 12H17.25C17.6642 12 18 11.6642 18 11.25V0.75C18 0.335781 17.6642 0 17.25 0ZM1.5 10.25V2.5H2V10.25C2 10.3878 1.88784 10.5 1.75 10.5C1.61216 10.5 1.5 10.3878 1.5 10.25ZM16.5 10.5H3.48194C3.49362 10.4183 3.5 10.3349 3.5 10.25V1.5H16.5V10.5ZM5.375 6.75H9.625C9.83209 6.75 10 6.58209 10 6.375V3.375C10 3.16791 9.83209 3 9.625 3H5.375C5.16791 3 5 3.16791 5 3.375V6.375C5 6.58209 5.16791 6.75 5.375 6.75ZM6.25 4.25H8.75V5.5H6.25V4.25ZM5 8.625V7.875C5 7.66791 5.16791 7.5 5.375 7.5H9.625C9.83209 7.5 10 7.66791 10 7.875V8.625C10 8.83209 9.83209 9 9.625 9H5.375C5.16791 9 5 8.83209 5 8.625ZM11 8.625V7.875C11 7.66791 11.1679 7.5 11.375 7.5H14.625C14.8321 7.5 15 7.66791 15 7.875V8.625C15 8.83209 14.8321 9 14.625 9H11.375C11.1679 9 11 8.83209 11 8.625ZM11 4.125V3.375C11 3.16791 11.1679 3 11.375 3H14.625C14.8321 3 15 3.16791 15 3.375V4.125C15 4.33209 14.8321 4.5 14.625 4.5H11.375C11.1679 4.5 11 4.33209 11 4.125ZM11 6.375V5.625C11 5.41791 11.1679 5.25 11.375 5.25H14.625C14.8321 5.25 15 5.41791 15 5.625V6.375C15 6.58209 14.8321 6.75 14.625 6.75H11.375C11.1679 6.75 11 6.58209 11 6.375Z" fill="#2EB964"/>
</svg>
