<svg width="16" height="16" viewBox="0 0 16 16" fill="none" xmlns="http://www.w3.org/2000/svg">
<g clip-path="url(#clip0)">
<path d="M0 8C-0.0002 9.54748 0.4484 11.0618 1.2915 12.3595C2.1345 13.6572 3.3359 14.6825 4.7499 15.3112C6.1639 15.9398 7.72991 16.1449 9.25814 15.9016C10.7864 15.6582 12.2112 14.9768 13.36 13.94C13.3975 13.9036 13.4273 13.8601 13.4477 13.812C13.468 13.7639 13.4785 13.7122 13.4785 13.66C13.4785 13.6078 13.468 13.5561 13.4477 13.508C13.4273 13.4599 13.3975 13.4164 13.36 13.38L12.1 12.1C12.0291 12.031 11.934 11.9924 11.835 11.9924C11.736 11.9924 11.6409 12.031 11.57 12.1C10.5816 12.9619 9.31141 13.4316 8 13.42C7.28824 13.4167 6.58409 13.2733 5.9278 12.9979C5.2714 12.7224 4.6758 12.3205 4.1748 11.8148C3.163 10.7937 2.5984 9.41247 2.605 7.975C2.6116 6.53753 3.189 5.16156 4.2102 4.1498C5.2313 3.13804 6.61253 2.57337 8.05 2.58C9.40223 2.57597 10.706 3.0832 11.7 4L10.35 5.39C10.2449 5.49953 10.174 5.63737 10.1461 5.7866C10.1181 5.93583 10.1344 6.08996 10.1927 6.2301C10.2511 6.37025 10.3492 6.4903 10.4748 6.57555C10.6004 6.66079 10.7482 6.70752 10.9 6.71H15.23C15.4334 6.70741 15.6278 6.62545 15.7716 6.48161C15.9155 6.33776 15.9974 6.14341 16 5.94V1.61C15.9975 1.4582 15.9508 1.31042 15.8655 1.18479C15.7803 1.05916 15.6602 0.961142 15.5201 0.90275C15.38 0.844357 15.2258 0.828132 15.0766 0.856065C14.9274 0.883998 14.7895 0.954873 14.68 1.06L13.53 2.22C12.3976 1.13677 10.972 0.409962 9.43021 0.129808C7.8884 -0.150346 6.29825 0.0284893 4.8572 0.644114C3.4161 1.25974 2.1876 2.28504 1.3241 3.59274C0.4606 4.90044 0.0002 6.43294 0 8Z" fill="white"/>
</g>
<defs>
<clipPath id="clip0">
<rect width="16" height="16" fill="white" transform="matrix(-1 0 0 1 16 0)"/>
</clipPath>
</defs>
</svg>
