<svg width="12" height="12" viewBox="0 0 12 12" fill="none" xmlns="http://www.w3.org/2000/svg">
<path d="M12 5.25V6.75C12 7.05938 11.7469 7.3125 11.4375 7.3125H7.3125V11.4375C7.3125 11.7469 7.05938 12 6.75 12H5.25C4.94063 12 4.6875 11.7469 4.6875 11.4375V7.3125H0.5625C0.253125 7.3125 0 7.05938 0 6.75V5.25C0 4.94063 0.253125 4.6875 0.5625 4.6875H4.6875V0.5625C4.6875 0.253125 4.94063 0 5.25 0H6.75C7.05938 0 7.3125 0.253125 7.3125 0.5625V4.6875H11.4375C11.7469 4.6875 12 4.94063 12 5.25Z" fill="#6D7470"/>
</svg>
