<svg width="15" height="15" viewBox="0 0 15 15" fill="none" xmlns="http://www.w3.org/2000/svg">
<path d="M11.8441 7.22922L10.9568 6.34185L6.24135 11.0573L7.12872 11.9447C7.54066 12.3566 7.24713 13.0627 6.66351 13.0638L3.34156 13.0697C2.97976 13.0704 2.68701 12.7776 2.68766 12.4158L2.69359 9.09387C2.69464 8.51027 3.40078 8.21672 3.81272 8.62866L4.70007 9.51601L9.41551 4.80058L8.52814 3.91321C8.11619 3.50127 8.40972 2.79514 8.99335 2.79408L12.3153 2.78814C12.6771 2.7875 12.9698 3.08024 12.9692 3.44205L12.9633 6.76399C12.9622 7.34762 12.2561 7.64117 11.8441 7.22922Z" fill="white"/>
</svg>
