<svg width="16" height="12" viewBox="0 0 16 12" fill="none" xmlns="http://www.w3.org/2000/svg">
<path d="M16 6V9C16 9.41484 15.6425 9.75 15.2 9.75H14.4V5.25H15.2C15.6425 5.25 16 5.58516 16 6ZM4.4 2.25H7.2V0.75C7.2 0.335156 7.5575 0 8 0C8.4425 0 8.8 0.335156 8.8 0.75V2.25H11.6C12.705 2.25 13.6 3.08906 13.6 4.125V10.5C13.6 11.3273 12.8825 12 12 12H4C3.1175 12 2.4 11.3273 2.4 10.5V4.125C2.4 3.08906 3.295 2.25 4.4 2.25ZM9.6 9.75H11.2V9H9.6V9.75ZM10.4 6.9375C10.9525 6.9375 11.4 6.51797 11.4 6C11.4 5.48203 10.9525 5.0625 10.4 5.0625C9.8475 5.0625 9.4 5.48203 9.4 6C9.4 6.51797 9.8475 6.9375 10.4 6.9375ZM7.2 9.75H8.8V9H7.2V9.75ZM4.8 9.75H6.4V9H4.8V9.75ZM5.6 6.9375C6.1525 6.9375 6.6 6.51797 6.6 6C6.6 5.48203 6.1525 5.0625 5.6 5.0625C5.0475 5.0625 4.6 5.48203 4.6 6C4.6 6.51797 5.0475 6.9375 5.6 6.9375ZM0.8 5.25H1.6V9.75H0.8C0.3575 9.75 0 9.41484 0 9V6C0 5.58516 0.3575 5.25 0.8 5.25Z" fill="#2EB964"/>
</svg>
