<svg width="12" height="3" viewBox="0 0 12 3" fill="none" xmlns="http://www.w3.org/2000/svg">
<path d="M11.4971 -3.56771e-06H0.502869C0.436817 -6.30726e-05 0.371402 0.0149126 0.310368 0.0440668C0.249334 0.073221 0.193878 0.115982 0.147172 0.169902C0.100466 0.223823 0.0634272 0.287846 0.038174 0.358308C0.0129207 0.42877 -5.13899e-05 0.504289 1.52997e-07 0.580545V2.41945C-5.13899e-05 2.4957 0.0129207 2.57122 0.038174 2.64168C0.0634272 2.71215 0.100466 2.77617 0.147172 2.83009C0.193878 2.88401 0.249334 2.92677 0.310368 2.95593C0.371402 2.98508 0.436817 3.00006 0.502869 3L11.4971 3C11.5632 3.00006 11.6286 2.98508 11.6896 2.95593C11.7507 2.92677 11.8061 2.88401 11.8528 2.83009C11.8995 2.77617 11.9366 2.71215 11.9618 2.64168C11.9871 2.57122 12.0001 2.4957 12 2.41945V0.580545C12.0001 0.504289 11.9871 0.42877 11.9618 0.358308C11.9366 0.287846 11.8995 0.223823 11.8528 0.169902C11.8061 0.115982 11.7507 0.073221 11.6896 0.0440668C11.6286 0.0149126 11.5632 -6.30726e-05 11.4971 -3.56771e-06Z" fill="#6D7470"/>
</svg>
