<svg width="16" height="16" viewBox="0 0 16 16" fill="none" xmlns="http://www.w3.org/2000/svg">
<path d="M0.458214 11.4286H9.8275C9.88769 11.4287 9.94729 11.4169 10.0029 11.3938C10.0585 11.3708 10.1091 11.3371 10.1516 11.2945C10.1942 11.252 10.2279 11.2014 10.2509 11.1458C10.2739 11.0902 10.2858 11.0306 10.2857 10.9704V9.60113C10.2858 9.54095 10.2739 9.48134 10.2509 9.42573C10.2279 9.37011 10.1942 9.31958 10.1516 9.27702C10.1091 9.23446 10.0585 9.20071 10.0029 9.1777C9.94729 9.15469 9.88769 9.14287 9.8275 9.14292H0.458214C0.398028 9.14287 0.338422 9.15469 0.282808 9.1777C0.227194 9.20071 0.176662 9.23446 0.134103 9.27702C0.0915448 9.31958 0.0577948 9.37011 0.034784 9.42573C0.0117732 9.48134 -4.68265e-05 9.54095 1.39413e-07 9.60113V10.9704C-4.68265e-05 11.0306 0.0117732 11.0902 0.034784 11.1458C0.0577948 11.2014 0.0915448 11.252 0.134103 11.2945C0.176662 11.3371 0.227194 11.3708 0.282808 11.3938C0.338422 11.4169 0.398028 11.4287 0.458214 11.4286ZM0.458214 2.28578H9.8275C9.88769 2.28582 9.94729 2.274 10.0029 2.25099C10.0585 2.22798 10.1091 2.19423 10.1516 2.15167C10.1942 2.10911 10.2279 2.05858 10.2509 2.00297C10.2739 1.94735 10.2858 1.88775 10.2857 1.82756V0.458276C10.2858 0.398089 10.2739 0.338483 10.2509 0.282869C10.2279 0.227255 10.1942 0.176723 10.1516 0.134164C10.1091 0.0916058 10.0585 0.0578557 10.0029 0.0348449C9.94729 0.0118342 9.88769 1.42087e-05 9.8275 6.11746e-05H0.458214C0.398028 1.42087e-05 0.338422 0.0118342 0.282808 0.0348449C0.227194 0.0578557 0.176662 0.0916058 0.134103 0.134164C0.0915448 0.176723 0.0577948 0.227255 0.034784 0.282869C0.0117732 0.338483 -4.68265e-05 0.398089 1.39413e-07 0.458276V1.82756C-4.68265e-05 1.88775 0.0117732 1.94735 0.034784 2.00297C0.0577948 2.05858 0.0915448 2.10911 0.134103 2.15167C0.176662 2.19423 0.227194 2.22798 0.282808 2.25099C0.338422 2.274 0.398028 2.28582 0.458214 2.28578ZM15.4286 4.57149H0.571429C0.419876 4.57149 0.274531 4.63169 0.167368 4.73886C0.0602041 4.84602 1.39413e-07 4.99137 1.39413e-07 5.14292V6.28578C1.39413e-07 6.43733 0.0602041 6.58267 0.167368 6.68984C0.274531 6.797 0.419876 6.8572 0.571429 6.8572H15.4286C15.5801 6.8572 15.7255 6.797 15.8326 6.68984C15.9398 6.58267 16 6.43733 16 6.28578V5.14292C16 4.99137 15.9398 4.84602 15.8326 4.73886C15.7255 4.63169 15.5801 4.57149 15.4286 4.57149ZM15.4286 13.7143H0.571429C0.419876 13.7143 0.274531 13.7746 0.167368 13.8817C0.0602041 13.9889 1.39413e-07 14.1342 1.39413e-07 14.2858V15.4286C1.39413e-07 15.5802 0.0602041 15.7255 0.167368 15.8327C0.274531 15.9399 0.419876 16.0001 0.571429 16.0001H15.4286C15.5801 16.0001 15.7255 15.9399 15.8326 15.8327C15.9398 15.7255 16 15.5802 16 15.4286V14.2858C16 14.1342 15.9398 13.9889 15.8326 13.8817C15.7255 13.7746 15.5801 13.7143 15.4286 13.7143Z" fill="#6D7470"/>
</svg>
