<svg width="16" height="16" viewBox="0 0 16 16" fill="none" xmlns="http://www.w3.org/2000/svg">
<path d="M0.571429 6.8572H15.4286C15.5801 6.8572 15.7255 6.797 15.8326 6.68984C15.9398 6.58267 16 6.43733 16 6.28578V5.14292C16 4.99137 15.9398 4.84602 15.8326 4.73886C15.7255 4.63169 15.5801 4.57149 15.4286 4.57149H0.571429C0.419876 4.57149 0.274531 4.63169 0.167368 4.73886C0.0602039 4.84602 0 4.99137 0 5.14292L0 6.28578C0 6.43733 0.0602039 6.58267 0.167368 6.68984C0.274531 6.797 0.419876 6.8572 0.571429 6.8572ZM15.4286 13.7143H0.571429C0.419876 13.7143 0.274531 13.7746 0.167368 13.8817C0.0602039 13.9889 0 14.1342 0 14.2858L0 15.4286C0 15.5802 0.0602039 15.7255 0.167368 15.8327C0.274531 15.9399 0.419876 16.0001 0.571429 16.0001H15.4286C15.5801 16.0001 15.7255 15.9399 15.8326 15.8327C15.9398 15.7255 16 15.5802 16 15.4286V14.2858C16 14.1342 15.9398 13.9889 15.8326 13.8817C15.7255 13.7746 15.5801 13.7143 15.4286 13.7143ZM15.5418 6.11746e-05H6.1725C6.11231 1.42087e-05 6.05271 0.0118342 5.99709 0.0348449C5.94148 0.0578557 5.89095 0.0916058 5.84839 0.134164C5.80583 0.176723 5.77208 0.227255 5.74907 0.282869C5.72606 0.338483 5.71424 0.398089 5.71429 0.458276V1.82756C5.71424 1.88775 5.72606 1.94735 5.74907 2.00297C5.77208 2.05858 5.80583 2.10911 5.84839 2.15167C5.89095 2.19423 5.94148 2.22798 5.99709 2.25099C6.05271 2.274 6.11231 2.28582 6.1725 2.28578H15.5418C15.602 2.28582 15.6616 2.274 15.7172 2.25099C15.7728 2.22798 15.8233 2.19423 15.8659 2.15167C15.9085 2.10911 15.9422 2.05858 15.9652 2.00297C15.9882 1.94735 16 1.88775 16 1.82756V0.458276C16 0.398089 15.9882 0.338483 15.9652 0.282869C15.9422 0.227255 15.9085 0.176723 15.8659 0.134164C15.8233 0.0916058 15.7728 0.0578557 15.7172 0.0348449C15.6616 0.0118342 15.602 1.42087e-05 15.5418 6.11746e-05ZM15.5418 9.14292H6.1725C6.11231 9.14287 6.05271 9.15469 5.99709 9.1777C5.94148 9.20071 5.89095 9.23446 5.84839 9.27702C5.80583 9.31958 5.77208 9.37011 5.74907 9.42573C5.72606 9.48134 5.71424 9.54095 5.71429 9.60113V10.9704C5.71424 11.0306 5.72606 11.0902 5.74907 11.1458C5.77208 11.2014 5.80583 11.252 5.84839 11.2945C5.89095 11.3371 5.94148 11.3708 5.99709 11.3938C6.05271 11.4169 6.11231 11.4287 6.1725 11.4286H15.5418C15.602 11.4287 15.6616 11.4169 15.7172 11.3938C15.7728 11.3708 15.8233 11.3371 15.8659 11.2945C15.9085 11.252 15.9422 11.2014 15.9652 11.1458C15.9882 11.0902 16 11.0306 16 10.9704V9.60113C16 9.54095 15.9882 9.48134 15.9652 9.42573C15.9422 9.37011 15.9085 9.31958 15.8659 9.27702C15.8233 9.23446 15.7728 9.20071 15.7172 9.1777C15.6616 9.15469 15.602 9.14287 15.5418 9.14292Z" fill="#6D7470"/>
</svg>
