<svg width="16" height="16" viewBox="0 0 16 16" fill="none" xmlns="http://www.w3.org/2000/svg">
<path d="M15.4291 4.57143H0.571917C0.420365 4.57143 0.275019 4.63163 0.167856 4.7388C0.0606922 4.84596 0.000488281 4.9913 0.000488281 5.14286L0.000488281 6.28571C0.000488281 6.43727 0.0606922 6.58261 0.167856 6.68978C0.275019 6.79694 0.420365 6.85714 0.571917 6.85714H15.4291C15.5806 6.85714 15.726 6.79694 15.8331 6.68978C15.9403 6.58261 16.0005 6.43727 16.0005 6.28571V5.14286C16.0005 4.9913 15.9403 4.84596 15.8331 4.7388C15.726 4.63163 15.5806 4.57143 15.4291 4.57143ZM15.4291 13.7143H0.571917C0.420365 13.7143 0.275019 13.7745 0.167856 13.8817C0.0606922 13.9888 0.000488281 14.1342 0.000488281 14.2857L0.000488281 15.4286C0.000488281 15.5801 0.0606922 15.7255 0.167856 15.8326C0.275019 15.9398 0.420365 16 0.571917 16H15.4291C15.5806 16 15.726 15.9398 15.8331 15.8326C15.9403 15.7255 16.0005 15.5801 16.0005 15.4286V14.2857C16.0005 14.1342 15.9403 13.9888 15.8331 13.8817C15.726 13.7745 15.5806 13.7143 15.4291 13.7143ZM3.8612 2.28571H12.1401C12.1969 2.28571 12.253 2.27453 12.3055 2.25281C12.3579 2.23109 12.4055 2.19925 12.4456 2.15912C12.4857 2.11899 12.5175 2.07135 12.5392 2.01892C12.5608 1.96649 12.572 1.9103 12.5719 1.85357V0.431786C12.5719 0.375083 12.5607 0.318935 12.5391 0.266549C12.5174 0.214162 12.4855 0.166562 12.4455 0.126467C12.4054 0.0863723 12.3578 0.0545671 12.3054 0.0328679C12.253 0.0111686 12.1968 1.47716e-07 12.1401 1.47716e-07H3.8612C3.80447 -4.67778e-05 3.74828 0.011087 3.69586 0.0327653C3.64343 0.0544435 3.59579 0.0862412 3.55565 0.126341C3.51552 0.166441 3.48368 0.214056 3.46196 0.266466C3.44024 0.318876 3.42906 0.375053 3.42906 0.431786V1.85357C3.42906 1.96818 3.47459 2.0781 3.55563 2.15914C3.63667 2.24019 3.74659 2.28571 3.8612 2.28571ZM12.1401 11.4286C12.1969 11.4286 12.253 11.4174 12.3055 11.3957C12.3579 11.3739 12.4055 11.3421 12.4456 11.302C12.4857 11.2618 12.5175 11.2142 12.5392 11.1618C12.5608 11.1093 12.572 11.0532 12.5719 10.9964V9.57464C12.5719 9.46013 12.5264 9.3503 12.4455 9.26932C12.3645 9.18835 12.2546 9.14286 12.1401 9.14286H3.8612C3.80447 9.14281 3.74828 9.15394 3.69586 9.17562C3.64343 9.1973 3.59579 9.2291 3.55565 9.2692C3.51552 9.3093 3.48368 9.35691 3.46196 9.40932C3.44024 9.46173 3.42906 9.51791 3.42906 9.57464V10.9964C3.42906 11.0532 3.44024 11.1094 3.46195 11.1618C3.48367 11.2142 3.5155 11.2619 3.55563 11.302C3.59576 11.3421 3.6434 11.374 3.69583 11.3957C3.74826 11.4174 3.80445 11.4286 3.8612 11.4286H12.1401Z" fill="#525855"/>
</svg>
