<svg width="18" height="18" viewBox="0 0 18 18" fill="none" xmlns="http://www.w3.org/2000/svg">
<path d="M15.75 0H2.25C1.00898 0 0 1.00898 0 2.25V12.375C0 13.616 1.00898 14.625 2.25 14.625H5.625V17.5781C5.625 17.8277 5.82891 18 6.04688 18C6.13125 18 6.21914 17.9754 6.29648 17.9156L10.6875 14.625H15.75C16.991 14.625 18 13.616 18 12.375V2.25C18 1.00898 16.991 0 15.75 0ZM16.3125 12.375C16.3125 12.6844 16.0594 12.9375 15.75 12.9375H10.125L9.675 13.275L7.3125 15.0469V12.9375H2.25C1.94062 12.9375 1.6875 12.6844 1.6875 12.375V2.25C1.6875 1.94062 1.94062 1.6875 2.25 1.6875H15.75C16.0594 1.6875 16.3125 1.94062 16.3125 2.25V12.375Z" fill="white"/>
</svg>
