<svg width="20" height="20" viewBox="0 0 20 20" fill="none" xmlns="http://www.w3.org/2000/svg">
<path d="M8.5 10C8.5 9.17157 9.17157 8.5 10 8.5C10.8284 8.5 11.5 9.17157 11.5 10V14C11.5 14.8284 10.8284 15.5 10 15.5C9.17157 15.5 8.5 14.8284 8.5 14V10Z" fill="#EFF0EF"/>
<path d="M8.5 6C8.5 5.17157 9.17157 4.5 10 4.5C10.8284 4.5 11.5 5.17157 11.5 6C11.5 6.82843 10.8284 7.5 10 7.5C9.17157 7.5 8.5 6.82843 8.5 6Z" fill="#EFF0EF"/>
<path d="M10 0C4.47581 0 0 4.47581 0 10C0 15.5242 4.47581 20 10 20C15.5242 20 20 15.5242 20 10C20 4.47581 15.5242 0 10 0ZM10 18.0645C5.54435 18.0645 1.93548 14.4556 1.93548 10C1.93548 5.54435 5.54435 1.93548 10 1.93548C14.4556 1.93548 18.0645 5.54435 18.0645 10C18.0645 14.4556 14.4556 18.0645 10 18.0645Z" fill="#EFF0EF"/>
</svg>
