<svg width="21" height="20" viewBox="0 0 21 20" fill="none" xmlns="http://www.w3.org/2000/svg">
<path d="M9.49756 10C9.49756 9.17157 10.1691 8.5 10.9976 8.5C11.826 8.5 12.4976 9.17157 12.4976 10V14C12.4976 14.8284 11.826 15.5 10.9976 15.5C10.1691 15.5 9.49756 14.8284 9.49756 14V10Z" fill="white"/>
<path d="M9.49756 6C9.49756 5.17157 10.1691 4.5 10.9976 4.5C11.826 4.5 12.4976 5.17157 12.4976 6C12.4976 6.82843 11.826 7.5 10.9976 7.5C10.1691 7.5 9.49756 6.82843 9.49756 6Z" fill="white"/>
<path d="M10.9976 0C5.47336 0 0.997559 4.47581 0.997559 10C0.997559 15.5242 5.47336 20 10.9976 20C16.5218 20 20.9976 15.5242 20.9976 10C20.9976 4.47581 16.5218 0 10.9976 0ZM10.9976 18.0645C6.54191 18.0645 2.93304 14.4556 2.93304 10C2.93304 5.54435 6.54191 1.93548 10.9976 1.93548C15.4532 1.93548 19.0621 5.54435 19.0621 10C19.0621 14.4556 15.4532 18.0645 10.9976 18.0645Z" fill="white"/>
</svg>
