<svg width="24" height="18" viewBox="0 0 24 18" fill="none" xmlns="http://www.w3.org/2000/svg">
<path d="M24 9V13.5C24 14.1223 23.4638 14.625 22.8 14.625H21.6V7.875H22.8C23.4638 7.875 24 8.37773 24 9ZM6.6 3.375H10.8V1.125C10.8 0.502734 11.3363 0 12 0C12.6637 0 13.2 0.502734 13.2 1.125V3.375H17.4C19.0575 3.375 20.4 4.63359 20.4 6.1875V15.75C20.4 16.991 19.3238 18 18 18H6C4.67625 18 3.6 16.991 3.6 15.75V6.1875C3.6 4.63359 4.9425 3.375 6.6 3.375ZM15.6 11.4062C16.4287 11.4062 17.1 10.777 17.1 10C17.1 9.22305 16.4287 8.59375 15.6 8.59375C14.7712 8.59375 14.1 9.22305 14.1 10C14.1 10.777 14.7712 11.4062 15.6 11.4062ZM8.4 11.4062C9.22875 11.4062 9.9 10.777 9.9 10C9.9 9.22305 9.22875 8.59375 8.4 8.59375C7.57125 8.59375 6.9 9.22305 6.9 10C6.9 10.777 7.57125 11.4062 8.4 11.4062ZM1.2 7.875H2.4V14.625H1.2C0.536249 14.625 0 14.1223 0 13.5V9C0 8.37773 0.536249 7.875 1.2 7.875Z" fill="white" fill-opacity="0.9"/>
</svg>
