<svg width="20" height="15" viewBox="0 0 20 15" fill="none" xmlns="http://www.w3.org/2000/svg">
<path d="M3.125 5.72414C4.20843 5.72414 5.08929 4.8685 5.08929 3.81609C5.08929 2.76369 4.20843 1.90805 3.125 1.90805C2.04157 1.90805 1.16071 2.76369 1.16071 3.81609C1.16071 4.8685 2.04157 5.72414 3.125 5.72414ZM16.875 5.72414C17.9584 5.72414 18.8393 4.8685 18.8393 3.81609C18.8393 2.76369 17.9584 1.90805 16.875 1.90805C15.7916 1.90805 14.9107 2.76369 14.9107 3.81609C14.9107 4.8685 15.7916 5.72414 16.875 5.72414ZM17.8571 6.67816H15.8929C15.3527 6.67816 14.8647 6.88984 14.5086 7.23269C15.7455 7.89156 16.8019 10.38 16.9922 11.7931H19.0179C19.5611 11.7931 20 11.3668 20 10.8391V9.88506C20 7.97701 18.9406 6.67816 17.8571 6.67816ZM10 6.67816C11.8998 6.67816 13.4375 5.18452 13.4375 3.33908C13.4375 1.49364 11.8998 0 10 0C8.10017 0 6.5625 1.49364 6.5625 3.33908C6.5625 5.18452 8.10017 6.67816 10 6.67816ZM12.3571 7.63218H12.1024C11.464 7.93032 10.755 8.1092 10 8.1092C9.24498 8.1092 8.53906 7.93032 7.8976 7.63218H7.64286C5.69085 7.63218 5.08929 9.75287 4.10714 12.7103V13.569C4.10714 14.359 4.76702 15 5.58036 15H14.4196C15.233 15 15.8929 14.359 15.8929 13.569V12.7103C14.9107 9.75287 14.3092 7.63218 12.3571 7.63218ZM5.49135 7.23269C5.13532 6.88984 4.64732 6.67816 4.10714 6.67816H2.14286C1.05943 6.67816 0 7.97701 0 9.88506V10.8391C0 11.3668 0.438895 11.7931 0.982143 11.7931H3.00474C3.1981 10.38 4.25446 7.89156 5.49135 7.23269Z" fill="#DFE1E0"/>
<path d="M3.125 5.72414C4.20843 5.72414 5.08929 4.8685 5.08929 3.81609C5.08929 2.76369 4.20843 1.90805 3.125 1.90805C2.04157 1.90805 1.16071 2.76369 1.16071 3.81609C1.16071 4.8685 2.04157 5.72414 3.125 5.72414ZM16.875 5.72414C17.9584 5.72414 18.8393 4.8685 18.8393 3.81609C18.8393 2.76369 17.9584 1.90805 16.875 1.90805C15.7916 1.90805 14.9107 2.76369 14.9107 3.81609C14.9107 4.8685 15.7916 5.72414 16.875 5.72414ZM17.8571 6.67816H15.8929C15.3527 6.67816 14.8647 6.88984 14.5086 7.23269C15.7455 7.89156 16.8019 10.38 16.9922 11.7931H19.0179C19.5611 11.7931 20 11.3668 20 10.8391V9.88506C20 7.97701 18.9406 6.67816 17.8571 6.67816ZM10 6.67816C11.8998 6.67816 13.4375 5.18452 13.4375 3.33908C13.4375 1.49364 11.8998 0 10 0C8.10017 0 6.5625 1.49364 6.5625 3.33908C6.5625 5.18452 8.10017 6.67816 10 6.67816ZM12.3571 7.63218H12.1024C11.464 7.93032 10.755 8.1092 10 8.1092C9.24498 8.1092 8.53906 7.93032 7.8976 7.63218H7.64286C5.69085 7.63218 5.08929 9.75287 4.10714 12.7103V13.569C4.10714 14.359 4.76702 15 5.58036 15H14.4196C15.233 15 15.8929 14.359 15.8929 13.569V12.7103C14.9107 9.75287 14.3092 7.63218 12.3571 7.63218ZM5.49135 7.23269C5.13532 6.88984 4.64732 6.67816 4.10714 6.67816H2.14286C1.05943 6.67816 0 7.97701 0 9.88506V10.8391C0 11.3668 0.438895 11.7931 0.982143 11.7931H3.00474C3.1981 10.38 4.25446 7.89156 5.49135 7.23269Z" fill="#DFE1E0"/>
<path d="M3.125 5.72414C4.20843 5.72414 5.08929 4.8685 5.08929 3.81609C5.08929 2.76369 4.20843 1.90805 3.125 1.90805C2.04157 1.90805 1.16071 2.76369 1.16071 3.81609C1.16071 4.8685 2.04157 5.72414 3.125 5.72414ZM16.875 5.72414C17.9584 5.72414 18.8393 4.8685 18.8393 3.81609C18.8393 2.76369 17.9584 1.90805 16.875 1.90805C15.7916 1.90805 14.9107 2.76369 14.9107 3.81609C14.9107 4.8685 15.7916 5.72414 16.875 5.72414ZM17.8571 6.67816H15.8929C15.3527 6.67816 14.8647 6.88984 14.5086 7.23269C15.7455 7.89156 16.8019 10.38 16.9922 11.7931H19.0179C19.5611 11.7931 20 11.3668 20 10.8391V9.88506C20 7.97701 18.9406 6.67816 17.8571 6.67816ZM10 6.67816C11.8998 6.67816 13.4375 5.18452 13.4375 3.33908C13.4375 1.49364 11.8998 0 10 0C8.10017 0 6.5625 1.49364 6.5625 3.33908C6.5625 5.18452 8.10017 6.67816 10 6.67816ZM12.3571 7.63218H12.1024C11.464 7.93032 10.755 8.1092 10 8.1092C9.24498 8.1092 8.53906 7.93032 7.8976 7.63218H7.64286C5.69085 7.63218 5.08929 9.75287 4.10714 12.7103V13.569C4.10714 14.359 4.76702 15 5.58036 15H14.4196C15.233 15 15.8929 14.359 15.8929 13.569V12.7103C14.9107 9.75287 14.3092 7.63218 12.3571 7.63218ZM5.49135 7.23269C5.13532 6.88984 4.64732 6.67816 4.10714 6.67816H2.14286C1.05943 6.67816 0 7.97701 0 9.88506V10.8391C0 11.3668 0.438895 11.7931 0.982143 11.7931H3.00474C3.1981 10.38 4.25446 7.89156 5.49135 7.23269Z" fill="#DFE1E0"/>
</svg>
