<svg width="35" height="24" viewBox="0 0 35 24" fill="none" xmlns="http://www.w3.org/2000/svg">
<path d="M31.8125 0H3.1875C1.42707 0 0 1.34312 0 3V21C0 22.6569 1.42707 24 3.1875 24H31.8125C33.5729 24 35 22.6569 35 21V3C35 1.34312 33.5729 0 31.8125 0ZM31.4141 21H3.58594C3.48027 21 3.37892 20.9605 3.3042 20.8902C3.22948 20.8198 3.1875 20.7245 3.1875 20.625V3.375C3.1875 3.27554 3.22948 3.18016 3.3042 3.10984C3.37892 3.03951 3.48027 3 3.58594 3H31.4141C31.5197 3 31.6211 3.03951 31.6958 3.10984C31.7705 3.18016 31.8125 3.27554 31.8125 3.375V20.625C31.8125 20.7245 31.7705 20.8198 31.6958 20.8902C31.6211 20.9605 31.5197 21 31.4141 21Z" fill="#B3B7B5"/>
<path d="M21.2657 11.4919L16.298 8.47177C15.852 8.22339 15.2903 8.54234 15.2903 9.06452V14.9355C15.2903 15.4548 15.8492 15.7766 16.298 15.5282L21.2657 12.6774C21.7286 12.4206 21.7286 11.7516 21.2657 11.4919ZM25 12C25 8.13306 21.8669 5 18 5C14.1331 5 11 8.13306 11 12C11 15.8669 14.1331 19 18 19C21.8669 19 25 15.8669 25 12ZM12.3548 12C12.3548 8.88105 14.881 6.35484 18 6.35484C21.119 6.35484 23.6452 8.88105 23.6452 12C23.6452 15.119 21.119 17.6452 18 17.6452C14.881 17.6452 12.3548 15.119 12.3548 12Z" fill="#B3B7B5"/>
</svg>
