<svg width="36" height="20" viewBox="0 0 36 20" fill="none" xmlns="http://www.w3.org/2000/svg">
<path d="M32.8125 0H3.1875C1.42707 0 0 1.42707 0 3.1875V16.3125C0 18.0729 1.42707 19.5 3.1875 19.5H32.8125C34.5729 19.5 36 18.0729 36 16.3125V3.1875C36 1.42707 34.5729 0 32.8125 0ZM32.4141 16.3125H3.58594C3.48027 16.3125 3.37892 16.2705 3.3042 16.1958C3.22948 16.1211 3.1875 16.0197 3.1875 15.9141V3.58594C3.1875 3.48027 3.22948 3.37892 3.3042 3.3042C3.37892 3.22948 3.48027 3.1875 3.58594 3.1875H32.4141C32.5197 3.1875 32.6211 3.22948 32.6958 3.3042C32.7705 3.37892 32.8125 3.48027 32.8125 3.58594V15.9141C32.8125 16.0197 32.7705 16.1211 32.6958 16.1958C32.6211 16.2705 32.5197 16.3125 32.4141 16.3125Z" fill="#B3B7B5"/>
</svg>
