<svg width="26" height="26" viewBox="0 0 26 26" fill="none" xmlns="http://www.w3.org/2000/svg">
<path d="M24.1429 26H1.85714C1.3646 26 0.892226 25.8043 0.543945 25.4561C0.195663 25.1078 0 24.6354 0 24.1429L0 1.85714C0 1.3646 0.195663 0.892227 0.543945 0.543945C0.892226 0.195663 1.3646 0 1.85714 0H24.1429C24.6354 0 25.1078 0.195663 25.4561 0.543945C25.8043 0.892227 26 1.3646 26 1.85714V24.1429C26 24.6354 25.8043 25.1078 25.4561 25.4561C25.1078 25.8043 24.6354 26 24.1429 26ZM22.2857 22.2857V14.8571H14.8571V22.2857H22.2857ZM11.1429 22.2857V14.8571H3.71429V22.2857H11.1429ZM3.71429 3.71429V11.1429H11.1429V3.71429H3.71429ZM14.8571 3.71429V11.1429H22.2857V3.71429H14.8571Z" fill="#B3B7B5"/>
</svg>
