<svg width="80" height="26" viewBox="0 0 80 26" fill="none" xmlns="http://www.w3.org/2000/svg">
<path d="M79.2713 16.6905H0.728744C0.535469 16.6905 0.350113 16.7626 0.213446 16.891C0.0767802 17.0193 0 17.1935 0 17.375V18.744C0 18.9256 0.0767802 19.0997 0.213446 19.2281C0.350113 19.3565 0.535469 19.4286 0.728744 19.4286H79.2713C79.4645 19.4286 79.6499 19.3565 79.7866 19.2281C79.9232 19.0997 80 18.9256 80 18.744V17.375C80 17.1935 79.9232 17.0193 79.7866 16.891C79.6499 16.7626 79.4645 16.6905 79.2713 16.6905ZM39.2713 0H0.728744C0.535469 0 0.350113 0.0721194 0.213446 0.200493C0.0767802 0.328866 0 0.502977 0 0.684524V5.05357C0 5.23512 0.0767802 5.40923 0.213446 5.5376C0.350113 5.66598 0.535469 5.7381 0.728744 5.7381H39.2713C39.4645 5.7381 39.6499 5.66598 39.7866 5.5376C39.9232 5.40923 40 5.23512 40 5.05357V0.684524C40 0.502977 39.9232 0.328866 39.7866 0.200493C39.6499 0.0721194 39.4645 0 39.2713 0ZM79.2713 9.84524H0.728744C0.535469 9.84524 0.350113 9.91736 0.213446 10.0457C0.0767802 10.1741 0 10.3482 0 10.5298V11.8988C0 12.0804 0.0767802 12.2545 0.213446 12.3828C0.350113 12.5112 0.535469 12.5833 0.728744 12.5833H79.2713C79.4645 12.5833 79.6499 12.5112 79.7866 12.3828C79.9232 12.2545 80 12.0804 80 11.8988V10.5298C80 10.3482 79.9232 10.1741 79.7866 10.0457C79.6499 9.91736 79.4645 9.84524 79.2713 9.84524Z" fill="#B3B7B5"/>
<path d="M0.728744 23.2619H79.2713C79.4645 23.2619 79.6499 23.334 79.7866 23.4624C79.9232 23.5908 80 23.7649 80 23.9464V25.3155C80 25.497 79.9232 25.6711 79.7866 25.7995C79.6499 25.9279 79.4645 26 79.2713 26H0.728744C0.535469 26 0.350113 25.9279 0.213446 25.7995C0.0767802 25.6711 0 25.497 0 25.3155V23.9464C0 23.7649 0.0767802 23.5908 0.213446 23.4624C0.350113 23.334 0.535469 23.2619 0.728744 23.2619Z" fill="#B3B7B5"/>
</svg>
