<svg width="35" height="20" viewBox="0 0 35 20" fill="none" xmlns="http://www.w3.org/2000/svg">
<path d="M31.901 0H3.09896C1.38743 0 0 1.46366 0 3.26923V16.7308C0 18.5363 1.38743 20 3.09896 20H31.901C33.6126 20 35 18.5363 35 16.7308V3.26923C35 1.46366 33.6126 0 31.901 0ZM31.5137 16.7308H3.48633C3.38359 16.7308 3.28506 16.6877 3.21242 16.6111C3.13977 16.5344 3.09896 16.4305 3.09896 16.3221V3.67788C3.09896 3.5695 3.13977 3.46556 3.21242 3.38892C3.28506 3.31229 3.38359 3.26923 3.48633 3.26923H31.5137C31.6164 3.26923 31.7149 3.31229 31.7876 3.38892C31.8602 3.46556 31.901 3.5695 31.901 3.67788V16.3221C31.901 16.4305 31.8602 16.5344 31.7876 16.6111C31.7149 16.6877 31.6164 16.7308 31.5137 16.7308Z" fill="#B3B7B5"/>
</svg>
