<svg width="34" height="26" viewBox="0 0 34 26" fill="none" xmlns="http://www.w3.org/2000/svg">
<path d="M30.8125 0.25H3.1875C1.42707 0.25 0 1.67707 0 3.4375V22.5625C0 24.3229 1.42707 25.75 3.1875 25.75H30.8125C32.5729 25.75 34 24.3229 34 22.5625V3.4375C34 1.67707 32.5729 0.25 30.8125 0.25ZM30.4141 22.5625H3.58594C3.48027 22.5625 3.37892 22.5205 3.3042 22.4458C3.22948 22.3711 3.1875 22.2697 3.1875 22.1641V3.83594C3.1875 3.73027 3.22948 3.62892 3.3042 3.5542C3.37892 3.47948 3.48027 3.4375 3.58594 3.4375H30.4141C30.5197 3.4375 30.6211 3.47948 30.6958 3.5542C30.7705 3.62892 30.8125 3.73027 30.8125 3.83594V22.1641C30.8125 22.2697 30.7705 22.3711 30.6958 22.4458C30.6211 22.5205 30.5197 22.5625 30.4141 22.5625ZM8.5 6.09375C7.03302 6.09375 5.84375 7.28302 5.84375 8.75C5.84375 10.217 7.03302 11.4062 8.5 11.4062C9.96698 11.4062 11.1562 10.217 11.1562 8.75C11.1562 7.28302 9.96698 6.09375 8.5 6.09375ZM6.375 19.375H27.625V14.0625L21.8135 8.25096C21.5023 7.93978 20.9977 7.93978 20.6865 8.25096L12.75 16.1875L10.126 13.5635C9.81478 13.2523 9.31022 13.2523 8.99898 13.5635L6.375 16.1875V19.375Z" fill="#B3B7B5"/>
</svg>
