<svg width="27" height="20" viewBox="0 0 27 20" fill="none" xmlns="http://www.w3.org/2000/svg">
<path d="M2.25 0C1.80499 0 1.36998 0.135344 0.999968 0.388916C0.629957 0.642489 0.341569 1.0029 0.171272 1.42458C0.000974894 1.84625 -0.0435826 2.31025 0.0432341 2.7579C0.130051 3.20555 0.344343 3.61674 0.659011 3.93948C0.973679 4.26221 1.37459 4.482 1.81105 4.57104C2.24751 4.66009 2.6999 4.61439 3.11104 4.43972C3.52217 4.26506 3.87357 3.96928 4.12081 3.58978C4.36804 3.21028 4.5 2.76411 4.5 2.30769C4.5 1.69565 4.26295 1.10868 3.84099 0.675907C3.41903 0.243131 2.84674 0 2.25 0ZM2.25 7.69231C1.80499 7.69231 1.36998 7.82765 0.999968 8.08122C0.629957 8.3348 0.341569 8.69521 0.171272 9.11688C0.000974894 9.53856 -0.0435826 10.0026 0.0432341 10.4502C0.130051 10.8979 0.344343 11.309 0.659011 11.6318C0.973679 11.9545 1.37459 12.1743 1.81105 12.2634C2.24751 12.3524 2.6999 12.3067 3.11104 12.132C3.52217 11.9574 3.87357 11.6616 4.12081 11.2821C4.36804 10.9026 4.5 10.4564 4.5 10C4.5 9.38796 4.26295 8.80099 3.84099 8.36821C3.41903 7.93544 2.84674 7.69231 2.25 7.69231ZM2.25 15.3846C1.80499 15.3846 1.36998 15.52 0.999968 15.7735C0.629957 16.0271 0.341569 16.3875 0.171272 16.8092C0.000974894 17.2309 -0.0435826 17.6949 0.0432341 18.1425C0.130051 18.5902 0.344343 19.0014 0.659011 19.3241C0.973679 19.6468 1.37459 19.8666 1.81105 19.9557C2.24751 20.0447 2.6999 19.999 3.11104 19.8243C3.52217 19.6497 3.87357 19.3539 4.12081 18.9744C4.36804 18.5949 4.5 18.1487 4.5 17.6923C4.5 17.0803 4.26295 16.4933 3.84099 16.0605C3.41903 15.6277 2.84674 15.3846 2.25 15.3846ZM26.25 16.1538H8.25C8.05109 16.1538 7.86032 16.2349 7.71967 16.3791C7.57902 16.5234 7.5 16.7191 7.5 16.9231V18.4615C7.5 18.6655 7.57902 18.8612 7.71967 19.0055C7.86032 19.1497 8.05109 19.2308 8.25 19.2308H26.25C26.4489 19.2308 26.6397 19.1497 26.7803 19.0055C26.921 18.8612 27 18.6655 27 18.4615V16.9231C27 16.7191 26.921 16.5234 26.7803 16.3791C26.6397 16.2349 26.4489 16.1538 26.25 16.1538ZM26.25 0.769231H8.25C8.05109 0.769231 7.86032 0.850275 7.71967 0.994533C7.57902 1.13879 7.5 1.33445 7.5 1.53846V3.07692C7.5 3.28094 7.57902 3.47659 7.71967 3.62085C7.86032 3.76511 8.05109 3.84615 8.25 3.84615H26.25C26.4489 3.84615 26.6397 3.76511 26.7803 3.62085C26.921 3.47659 27 3.28094 27 3.07692V1.53846C27 1.33445 26.921 1.13879 26.7803 0.994533C26.6397 0.850275 26.4489 0.769231 26.25 0.769231ZM26.25 8.46154H8.25C8.05109 8.46154 7.86032 8.54258 7.71967 8.68684C7.57902 8.8311 7.5 9.02676 7.5 9.23077V10.7692C7.5 10.9732 7.57902 11.1689 7.71967 11.3132C7.86032 11.4574 8.05109 11.5385 8.25 11.5385H26.25C26.4489 11.5385 26.6397 11.4574 26.7803 11.3132C26.921 11.1689 27 10.9732 27 10.7692V9.23077C27 9.02676 26.921 8.8311 26.7803 8.68684C26.6397 8.54258 26.4489 8.46154 26.25 8.46154Z" fill="#B3B7B5"/>
</svg>
