<svg width="84" height="26" viewBox="0 0 84 26" fill="none" xmlns="http://www.w3.org/2000/svg">
<path d="M31.4955 0H2.5045C1.1213 0 0 1.0582 0 2.3636V23.6364C0 24.9418 1.1213 26 2.5045 26H31.4955C32.8787 26 34 24.9418 34 23.6364V2.3636C34 1.0582 32.8787 0 31.4955 0ZM31.1825 23.6364H2.8175C2.7345 23.6364 2.6549 23.6052 2.5962 23.5498C2.5374 23.4944 2.5045 23.4193 2.5045 23.3409V2.6591C2.5045 2.5807 2.5374 2.5056 2.5962 2.4502C2.6549 2.3948 2.7345 2.3636 2.8175 2.3636H31.1825C31.2655 2.3636 31.3451 2.3948 31.4038 2.4502C31.4626 2.5056 31.4955 2.5807 31.4955 2.6591V23.3409C31.4955 23.4193 31.4626 23.4944 31.4038 23.5498C31.3451 23.6052 31.2655 23.6364 31.1825 23.6364Z" fill="#B3B7B5"/>
<path d="M6.07141 9.4545C6.07141 8.1492 7.19851 7.0909 8.58891 7.0909C9.97921 7.0909 11.1063 8.1492 11.1063 9.4545C11.1063 10.7599 9.97921 11.8182 8.58891 11.8182C7.19851 11.8182 6.07141 10.7599 6.07141 9.4545Z" fill="#B3B7B5"/>
<path d="M27.9286 18.9091H6.57489V16.0727L9.06169 13.7377C9.35669 13.4608 9.83489 13.4608 10.1298 13.7377L12.6167 16.0727L20.1384 9.0105C20.4334 8.7336 20.9116 8.7336 21.2065 9.0105L27.9286 14.1818V18.9091Z" fill="#B3B7B5"/>
<path d="M83.271 14.6905H44.7287C44.5355 14.6905 44.3501 14.7626 44.2134 14.891C44.0768 15.0193 44 15.1935 44 15.375V16.744C44 16.9256 44.0768 17.0997 44.2134 17.2281C44.3501 17.3565 44.5355 17.4286 44.7287 17.4286H83.271C83.465 17.4286 83.65 17.3565 83.787 17.2281C83.923 17.0997 84 16.9256 84 16.744V15.375C84 15.1935 83.923 15.0193 83.787 14.891C83.65 14.7626 83.465 14.6905 83.271 14.6905ZM83.271 1H44.7287C44.5355 1 44.3501 1.0721 44.2134 1.2005C44.0768 1.3289 44 1.503 44 1.6845V3.0536C44 3.2351 44.0768 3.4092 44.2134 3.5376C44.3501 3.666 44.5355 3.7381 44.7287 3.7381H83.271C83.465 3.7381 83.65 3.666 83.787 3.5376C83.923 3.4092 84 3.2351 84 3.0536V1.6845C84 1.503 83.923 1.3289 83.787 1.2005C83.65 1.0721 83.465 1 83.271 1ZM83.271 7.8452H44.7287C44.5355 7.8452 44.3501 7.9174 44.2134 8.0457C44.0768 8.1741 44 8.3482 44 8.5298V9.8988C44 10.0804 44.0768 10.2545 44.2134 10.3828C44.3501 10.5112 44.5355 10.5833 44.7287 10.5833H83.271C83.465 10.5833 83.65 10.5112 83.787 10.3828C83.923 10.2545 84 10.0804 84 9.8988V8.5298C84 8.3482 83.923 8.1741 83.787 8.0457C83.65 7.9174 83.465 7.8452 83.271 7.8452Z" fill="#B3B7B5"/>
<path d="M44.7287 21.2619H83.271C83.465 21.2619 83.65 21.334 83.787 21.4624C83.923 21.5908 84 21.7649 84 21.9464V23.3155C84 23.497 83.923 23.6711 83.787 23.7995C83.65 23.9279 83.465 24 83.271 24H44.7287C44.5355 24 44.3501 23.9279 44.2134 23.7995C44.0768 23.6711 44 23.497 44 23.3155V21.9464C44 21.7649 44.0768 21.5908 44.2134 21.4624C44.3501 21.334 44.5355 21.2619 44.7287 21.2619Z" fill="#B3B7B5"/>
</svg>
