<svg width="26" height="24" viewBox="0 0 26 24" fill="none" xmlns="http://www.w3.org/2000/svg">
<path d="M0.928572 0H25.0714C25.3177 0 25.5539 0.0938334 25.728 0.260858C25.9022 0.427883 26 0.654417 26 0.890625V5.34375C26 5.57996 25.9022 5.80649 25.728 5.97352C25.5539 6.14054 25.3177 6.23438 25.0714 6.23438H23.2143C22.968 6.23438 22.7318 6.14054 22.5577 5.97352C22.3835 5.80649 22.2857 5.57996 22.2857 5.34375V4.45312H15.3214V20.4375H16.7143C16.9606 20.4375 17.1967 20.5313 17.3709 20.6984C17.545 20.8654 17.6429 21.0919 17.6429 21.3281V23.1094C17.6429 23.3456 17.545 23.5721 17.3709 23.7391C17.1967 23.9062 16.9606 24 16.7143 24H9.28571C9.03944 24 8.80326 23.9062 8.62911 23.7391C8.45497 23.5721 8.35714 23.3456 8.35714 23.1094V21.3281C8.35714 21.0919 8.45497 20.8654 8.62911 20.6984C8.80326 20.5313 9.03944 20.4375 9.28571 20.4375H10.6786V4.45312H3.71428V5.34375C3.71428 5.57996 3.61646 5.80649 3.44231 5.97352C3.26817 6.14054 3.03199 6.23438 2.78571 6.23438H0.928572C0.682299 6.23438 0.446112 6.14054 0.271971 5.97352C0.0978298 5.80649 0 5.57996 0 5.34375V0.890625C0 0.654417 0.0978298 0.427883 0.271971 0.260858C0.446112 0.0938334 0.682299 0 0.928572 0Z" fill="#B3B7B5"/>
</svg>
