<svg width="80" height="80" viewBox="0 0 80 80" fill="none" xmlns="http://www.w3.org/2000/svg">
<path d="M51.0332 28.9674C60.3687 38.3125 60.2406 53.2951 51.0895 62.497C51.0723 62.5157 51.052 62.5361 51.0332 62.5548L40.5332 73.0548C31.2723 82.3157 16.2052 82.3144 6.94571 73.0548C-2.31524 63.7954 -2.31524 48.7267 6.94571 39.4673L12.7435 33.6695C14.281 32.132 16.9288 33.1539 17.0082 35.3267C17.1095 38.0958 17.606 40.8778 18.5223 43.5644C18.8326 44.4741 18.6109 45.4803 17.9312 46.16L15.8863 48.2048C11.5073 52.5839 11.3699 59.7142 15.7059 64.136C20.0846 68.6015 27.2818 68.6281 31.6941 64.2157L42.1941 53.7173C46.599 49.3125 46.5806 42.1928 42.1941 37.8064C41.6159 37.2292 41.0334 36.7808 40.5784 36.4675C40.2565 36.2465 39.9907 35.9533 39.8022 35.6113C39.6138 35.2693 39.5079 34.888 39.4929 34.4978C39.431 32.8467 40.016 31.1453 41.3207 29.8406L44.6104 26.5508C45.4731 25.6882 46.8263 25.5822 47.8267 26.2803C48.9722 27.0803 50.0452 27.9794 51.0332 28.9674V28.9674ZM73.0543 6.94522C63.7948 -2.31445 48.7277 -2.3157 39.4668 6.94522L28.9668 17.4452C28.9481 17.464 28.9277 17.4843 28.9106 17.503C19.7596 26.7049 19.6313 41.6875 28.9668 51.0326C29.9547 52.0206 31.0277 52.9196 32.1732 53.7195C33.1735 54.4176 34.527 54.3115 35.3895 53.449L38.6792 50.1592C39.9838 48.8545 40.5688 47.1531 40.507 45.502C40.492 45.1118 40.3861 44.7305 40.1976 44.3886C40.0092 44.0466 39.7434 43.7534 39.4215 43.5323C38.9665 43.2191 38.384 42.7706 37.8057 42.1934C33.4193 37.807 33.4009 30.6874 37.8057 26.2825L48.3057 15.7841C52.7181 11.3718 59.9151 11.3983 64.294 15.8638C68.6299 20.2857 68.4928 27.416 64.1135 31.795L62.0687 33.8399C61.389 34.5195 61.1673 35.5258 61.4776 36.4355C62.3938 39.122 62.8904 41.9041 62.9917 44.6731C63.0712 46.8459 65.7188 47.8678 67.2563 46.3303L73.0542 40.5325C82.3153 31.2733 82.3153 16.2046 73.0543 6.94522V6.94522Z" fill="#B3B7B5"/>
</svg>
