<svg width="16" height="14" viewBox="0 0 16 14" fill="none" xmlns="http://www.w3.org/2000/svg">
<path d="M15.5 6H9.18437L6.46031 5.16156C6.14892 5.06564 5.88227 4.86117 5.70884 4.58533C5.5354 4.30949 5.46669 3.98057 5.51519 3.65837C5.56369 3.33616 5.72618 3.04205 5.97313 2.82948C6.22008 2.61692 6.5351 2.50001 6.86094 2.5H8.94812C9.23786 2.49979 9.52193 2.58032 9.76845 2.73256C10.015 2.8848 10.2142 3.10272 10.3438 3.36188C10.4031 3.4804 10.5071 3.57052 10.6328 3.61242C10.7586 3.65432 10.8958 3.64457 11.0144 3.58531L12.3562 2.91438C12.4748 2.8551 12.565 2.75115 12.607 2.62539C12.6489 2.49963 12.6392 2.36236 12.58 2.24375L12.5634 2.2125C12.2313 1.54767 11.7206 0.988496 11.0885 0.597699C10.4563 0.206902 9.72785 -6.76779e-05 8.98469 1.66005e-08H6.85969C6.32088 0.000437256 5.78811 0.113528 5.29558 0.332014C4.80306 0.550499 4.36166 0.869552 3.99971 1.26869C3.63776 1.66783 3.36327 2.13824 3.19385 2.64973C3.02444 3.16121 2.96383 3.70246 3.01594 4.23875C3.07844 4.89156 3.33156 5.48344 3.69656 6H0.5C0.367392 6 0.240215 6.05268 0.146447 6.14645C0.0526784 6.24021 0 6.36739 0 6.5L0 7.5C0 7.63261 0.0526784 7.75979 0.146447 7.85355C0.240215 7.94732 0.367392 8 0.5 8H15.5C15.6326 8 15.7598 7.94732 15.8536 7.85355C15.9473 7.75979 16 7.63261 16 7.5V6.5C16 6.36739 15.9473 6.24021 15.8536 6.14645C15.7598 6.05268 15.6326 6 15.5 6ZM9.8675 9C10.0609 9.12064 10.2204 9.28848 10.331 9.48775C10.4417 9.68701 10.4998 9.91114 10.5 10.1391C10.4997 10.4999 10.3562 10.8459 10.101 11.101C9.84587 11.3562 9.4999 11.4997 9.13906 11.5H7.05188C6.76214 11.5002 6.47807 11.4197 6.23155 11.2674C5.98503 11.1152 5.78582 10.8973 5.65625 10.6381C5.59692 10.5196 5.49294 10.4295 5.36719 10.3876C5.24144 10.3457 5.10419 10.3554 4.98562 10.4147L3.64375 11.0856C3.52517 11.1449 3.43498 11.2489 3.39302 11.3746C3.35106 11.5004 3.36077 11.6376 3.42 11.7563L3.43656 11.7875C3.76867 12.4523 4.27942 13.0115 4.91153 13.4023C5.54365 13.7931 6.27215 14.0001 7.01531 14H9.14031C9.67912 13.9996 10.2119 13.8865 10.7044 13.668C11.1969 13.4495 11.6383 13.1304 12.0003 12.7313C12.3622 12.3322 12.6367 11.8618 12.8061 11.3503C12.9756 10.8388 13.0362 10.2975 12.9841 9.76125C12.9564 9.50217 12.9004 9.2469 12.8172 9H9.8675Z" fill="white"/>
</svg>
