<svg width="34" height="34" viewBox="0 0 34 34" fill="none" xmlns="http://www.w3.org/2000/svg">
<path d="M23.3884 5.72591L18.1293 0.466821C17.5069 -0.155604 16.4978 -0.155604 15.8754 0.466821L10.6163 5.72591C9.6123 6.72991 10.3234 8.44664 11.7433 8.44657H15.1408L15.1407 15.1406H8.44667V11.7432C8.44667 10.3233 6.73 9.6122 5.72593 10.6162L0.46682 15.8753C-0.155607 16.4977 -0.155607 17.5068 0.46682 18.1292L5.72593 23.3883C6.72993 24.3923 8.44667 23.6812 8.44667 22.2613V18.8594H15.1407V25.5534H11.7387C10.3188 25.5534 9.60772 27.27 10.6117 28.2741L15.8708 33.5332C16.4933 34.1556 17.5023 34.1556 18.1247 33.5332L23.3838 28.2741C24.3878 27.2701 23.6768 25.5534 22.2569 25.5534H18.8594V18.8594H25.5534V22.2568C25.5534 23.6767 27.2701 24.3878 28.2741 23.3838L33.5332 18.1247C34.1556 17.5023 34.1556 16.4932 33.5332 15.8708L28.2741 10.6117C27.2701 9.60774 25.5533 10.3188 25.5534 11.7387V15.1406H18.8594V8.44664H22.2614C23.6813 8.44664 24.3924 6.72997 23.3884 5.72591Z" fill="white"/>
</svg>
