<svg width="14" height="15" viewBox="0 0 14 15" fill="none" xmlns="http://www.w3.org/2000/svg">
<path d="M12.6875 0.75C13.043 0.75 13.3438 0.886719 13.6172 1.13281C13.8633 1.40625 14 1.70703 14 2.0625V10.8125C14 11.1953 13.8633 11.4961 13.6172 11.7422C13.3438 12.0156 13.043 12.125 12.6875 12.125H11.375V13.4375C11.375 13.8203 11.2383 14.1211 10.9922 14.3672C10.7188 14.6406 10.418 14.75 10.0625 14.75H1.3125C0.929688 14.75 0.628906 14.6406 0.382812 14.3672C0.109375 14.1211 0 13.8203 0 13.4375V4.6875C0 4.33203 0.109375 4.03125 0.382812 3.75781C0.628906 3.51172 0.929688 3.375 1.3125 3.375H2.625V2.0625C2.625 1.70703 2.73438 1.40625 3.00781 1.13281C3.25391 0.886719 3.55469 0.75 3.9375 0.75H12.6875ZM9.89844 13.4375C9.92578 13.4375 9.95312 13.4375 10.0078 13.3828C10.0352 13.3555 10.0625 13.3281 10.0625 13.2734V12.125H3.9375C3.55469 12.125 3.25391 12.0156 3.00781 11.7422C2.73438 11.4961 2.625 11.1953 2.625 10.8125V4.6875H1.47656C1.42188 4.6875 1.39453 4.71484 1.36719 4.74219C1.3125 4.79688 1.3125 4.82422 1.3125 4.85156V13.2734C1.3125 13.3281 1.3125 13.3555 1.36719 13.3828C1.39453 13.4375 1.42188 13.4375 1.47656 13.4375H9.89844ZM12.5234 10.8125C12.5508 10.8125 12.5781 10.8125 12.6328 10.7578C12.6602 10.7305 12.6875 10.7031 12.6875 10.6484V2.22656C12.6875 2.19922 12.6602 2.17188 12.6328 2.11719C12.5781 2.08984 12.5508 2.0625 12.5234 2.0625H4.10156C4.04688 2.0625 4.01953 2.08984 3.99219 2.11719C3.9375 2.17188 3.9375 2.19922 3.9375 2.22656V10.6484C3.9375 10.7031 3.9375 10.7305 3.99219 10.7578C4.01953 10.8125 4.04688 10.8125 4.10156 10.8125H12.5234Z" fill="white"/>
</svg>
