<svg width="14" height="15" viewBox="0 0 14 15" fill="none" xmlns="http://www.w3.org/2000/svg">
<path d="M6.125 5.89062C6.125 5.80859 6.07031 5.72656 6.01562 5.67188C5.96094 5.61719 5.87891 5.5625 5.79688 5.5625H5.14062C5.03125 5.5625 4.94922 5.61719 4.89453 5.67188C4.83984 5.72656 4.8125 5.80859 4.8125 5.89062V11.7969C4.8125 11.9062 4.83984 11.9883 4.89453 12.043C4.94922 12.0977 5.03125 12.125 5.14062 12.125H5.79688C5.87891 12.125 5.96094 12.0977 6.01562 12.043C6.07031 11.9883 6.125 11.9062 6.125 11.7969V5.89062ZM8.85938 5.5625C8.94141 5.5625 9.02344 5.61719 9.07812 5.67188C9.13281 5.72656 9.1875 5.80859 9.1875 5.89062V11.7969C9.1875 11.9062 9.13281 11.9883 9.07812 12.043C9.02344 12.0977 8.94141 12.125 8.85938 12.125H8.20312C8.09375 12.125 8.01172 12.0977 7.95703 12.043C7.90234 11.9883 7.875 11.9062 7.875 11.7969V5.89062C7.875 5.80859 7.90234 5.72656 7.95703 5.67188C8.01172 5.61719 8.09375 5.5625 8.20312 5.5625H8.85938ZM12.4688 2.9375H10.4453L9.51562 1.37891C9.37891 1.1875 9.21484 1.02344 9.02344 0.914062C8.80469 0.804688 8.58594 0.75 8.36719 0.75H5.63281C5.38672 0.75 5.16797 0.804688 4.97656 0.914062C4.75781 1.02344 4.59375 1.1875 4.48438 1.37891L3.55469 2.9375H1.53125C1.33984 2.9375 1.17578 3.01953 1.06641 3.12891C0.929688 3.26562 0.875 3.42969 0.875 3.59375V3.92188C0.875 4.03125 0.902344 4.11328 0.957031 4.16797C1.01172 4.22266 1.09375 4.25 1.20312 4.25H1.75V13.4375C1.75 13.8203 1.85938 14.1211 2.13281 14.3672C2.37891 14.6406 2.67969 14.75 3.0625 14.75H10.9375C11.293 14.75 11.5938 14.6406 11.8672 14.3672C12.1133 14.1211 12.25 13.8203 12.25 13.4375V4.25H12.7969C12.8789 4.25 12.9609 4.22266 13.0156 4.16797C13.0703 4.11328 13.125 4.03125 13.125 3.92188V3.59375C13.125 3.42969 13.043 3.26562 12.9336 3.12891C12.7969 3.01953 12.6328 2.9375 12.4688 2.9375ZM5.08594 2.9375L5.57812 2.14453C5.60547 2.08984 5.66016 2.0625 5.71484 2.0625H8.28516C8.33984 2.0625 8.36719 2.08984 8.42188 2.14453L8.91406 2.9375H5.08594ZM10.9375 4.25V13.2734C10.9375 13.3281 10.9102 13.3555 10.8828 13.3828C10.8281 13.4375 10.8008 13.4375 10.7734 13.4375H3.22656C3.17188 13.4375 3.14453 13.4375 3.11719 13.3828C3.0625 13.3555 3.0625 13.3281 3.0625 13.2734V4.25H10.9375Z" fill="white"/>
</svg>
