<svg width="12" height="14" viewBox="0 0 12 14" fill="none" xmlns="http://www.w3.org/2000/svg">
<path d="M10.3163 6.4375C10.8142 5.8562 11.1214 5.14725 11.1992 4.39969C11.4405 2.01531 9.48277 0 7.04406 0H0.523187C0.384429 0 0.251355 0.0526784 0.153238 0.146447C0.0551213 0.240215 0 0.367392 0 0.5V2C0 2.13261 0.0551213 2.25979 0.153238 2.35355C0.251355 2.44732 0.384429 2.5 0.523187 2.5H1.56531V11.5H0.523187C0.384429 11.5 0.251355 11.5527 0.153238 11.6464C0.0551213 11.7402 0 11.8674 0 12V13.5C0 13.6326 0.0551213 13.7598 0.153238 13.8536C0.251355 13.9473 0.384429 14 0.523187 14H7.36779C9.68289 14 11.7541 12.3828 11.9784 10.175C12.1334 8.66094 11.4424 7.29813 10.3163 6.4375ZM4.17438 2.5H7.04406C7.46034 2.5 7.85956 2.65804 8.15391 2.93934C8.44826 3.22064 8.61363 3.60218 8.61363 4C8.61363 4.39782 8.44826 4.77936 8.15391 5.06066C7.85956 5.34196 7.46034 5.5 7.04406 5.5H4.17438V2.5ZM7.04406 11.5H4.17438V8H7.04406C7.52972 8 7.99548 8.18437 8.33889 8.51256C8.68229 8.84075 8.87522 9.28587 8.87522 9.75C8.87522 10.2141 8.68229 10.6592 8.33889 10.9874C7.99548 11.3156 7.52972 11.5 7.04406 11.5Z" fill="white"/>
</svg>
