<svg width="12" height="14" viewBox="0 0 12 14" fill="none" xmlns="http://www.w3.org/2000/svg">
<path d="M12 0.5V1.5C12 1.63261 11.9368 1.75979 11.8243 1.85355C11.7117 1.94732 11.5591 2 11.4 2H9.0465L6.0465 12H7.8C7.95913 12 8.11174 12.0527 8.22426 12.1464C8.33679 12.2402 8.4 12.3674 8.4 12.5V13.5C8.4 13.6326 8.33679 13.7598 8.22426 13.8536C8.11174 13.9473 7.95913 14 7.8 14H0.6C0.44087 14 0.288258 13.9473 0.175736 13.8536C0.0632141 13.7598 0 13.6326 0 13.5V12.5C0 12.3674 0.0632141 12.2402 0.175736 12.1464C0.288258 12.0527 0.44087 12 0.6 12H2.9535L5.9535 2H4.2C4.04087 2 3.88826 1.94732 3.77574 1.85355C3.66321 1.75979 3.6 1.63261 3.6 1.5V0.5C3.6 0.367392 3.66321 0.240215 3.77574 0.146447C3.88826 0.0526784 4.04087 0 4.2 0H11.4C11.5591 0 11.7117 0.0526784 11.8243 0.146447C11.9368 0.240215 12 0.367392 12 0.5Z" fill="white"/>
</svg>
