<svg width="17" height="17" viewBox="0 0 17 17" fill="none" xmlns="http://www.w3.org/2000/svg">
<path d="M14.875 3.43323e-05H2.12502C0.952945 3.43323e-05 1.52588e-05 0.952964 1.52588e-05 2.12503V11.6875C1.52588e-05 12.8596 0.952945 13.8125 2.12502 13.8125H5.31252V16.6016C5.31252 16.8373 5.50509 17 5.71095 17C5.79064 17 5.87365 16.9768 5.9467 16.9203L10.0938 13.8125H14.875C16.0471 13.8125 17 12.8596 17 11.6875V2.12503C17 0.952964 16.0471 3.43323e-05 14.875 3.43323e-05ZM15.4063 11.6875C15.4063 11.9797 15.1672 12.2188 14.875 12.2188H9.56252L9.13752 12.5375L6.90627 14.211V12.2188H2.12502C1.83283 12.2188 1.59377 11.9797 1.59377 11.6875V2.12503C1.59377 1.83285 1.83283 1.59378 2.12502 1.59378H14.875C15.1672 1.59378 15.4063 1.83285 15.4063 2.12503V11.6875Z" fill="white"/>
</svg>
