<svg width="14" height="15" viewBox="0 0 14 15" fill="none" xmlns="http://www.w3.org/2000/svg">
<path d="M1 1.875H2V6.5625C2 9.14707 4.24312 11.25 7 11.25C9.75688 11.25 12 9.14707 12 6.5625V1.875H13C13.1326 1.875 13.2598 1.82561 13.3536 1.73771C13.4473 1.6498 13.5 1.53057 13.5 1.40625V0.46875C13.5 0.34443 13.4473 0.225201 13.3536 0.137294C13.2598 0.049386 13.1326 0 13 0H8.5C8.36739 0 8.24021 0.049386 8.14645 0.137294C8.05268 0.225201 8 0.34443 8 0.46875V1.40625C8 1.53057 8.05268 1.6498 8.14645 1.73771C8.24021 1.82561 8.36739 1.875 8.5 1.875H9.5V6.5625C9.5 7.1841 9.23661 7.78024 8.76777 8.21978C8.29893 8.65932 7.66304 8.90625 7 8.90625C6.33696 8.90625 5.70107 8.65932 5.23223 8.21978C4.76339 7.78024 4.5 7.1841 4.5 6.5625V1.875H5.5C5.63261 1.875 5.75979 1.82561 5.85355 1.73771C5.94732 1.6498 6 1.53057 6 1.40625V0.46875C6 0.34443 5.94732 0.225201 5.85355 0.137294C5.75979 0.049386 5.63261 0 5.5 0H1C0.867392 0 0.740215 0.049386 0.646447 0.137294C0.552678 0.225201 0.5 0.34443 0.5 0.46875V1.40625C0.5 1.53057 0.552678 1.6498 0.646447 1.73771C0.740215 1.82561 0.867392 1.875 1 1.875ZM13.5 13.125H0.5C0.367392 13.125 0.240215 13.1744 0.146447 13.2623C0.0526784 13.3502 0 13.4694 0 13.5938L0 14.5312C0 14.6556 0.0526784 14.7748 0.146447 14.8627C0.240215 14.9506 0.367392 15 0.5 15H13.5C13.6326 15 13.7598 14.9506 13.8536 14.8627C13.9473 14.7748 14 14.6556 14 14.5312V13.5938C14 13.4694 13.9473 13.3502 13.8536 13.2623C13.7598 13.1744 13.6326 13.125 13.5 13.125Z" fill="white"/>
</svg>
