<svg width="16" height="16" viewBox="0 0 16 16" fill="none" xmlns="http://www.w3.org/2000/svg">
<path d="M1.97664 13.5313L2.53664 12.9016C2.64809 12.7803 2.70634 12.621 2.69888 12.4582V12.3547C2.69888 12.1251 2.576 12.0001 2.336 12.0001H0.512C0.444105 12.0001 0.37899 12.0264 0.330981 12.0733C0.282971 12.1202 0.256 12.1838 0.256 12.2501V12.7501C0.256 12.8164 0.282971 12.88 0.330981 12.9268C0.37899 12.9737 0.444105 13.0001 0.512 13.0001H1.24256C1.11842 13.1222 1.00092 13.2506 0.89056 13.3847L0.71104 13.6035C0.58304 13.7619 0.54304 13.9201 0.62144 14.0685L0.65504 14.1288C0.75104 14.3088 0.85632 14.3751 1.04704 14.3751H1.1984C1.52896 14.3751 1.70848 14.4513 1.70848 14.6591C1.70848 14.8066 1.57408 14.916 1.24896 14.916C1.07908 14.9147 0.911038 14.8816 0.75392 14.8185C0.54624 14.6972 0.37824 14.7091 0.25472 14.916L0.07584 15.2069C-0.0432 15.3985 -0.02624 15.5732 0.16 15.7051C0.40672 15.8516 0.81216 16.0001 1.344 16.0001C2.43712 16.0001 2.896 15.2891 2.896 14.6213C2.89504 14.1719 2.60416 13.6913 1.97664 13.5313ZM0.512 4.00006H2.56C2.6279 4.00006 2.69301 3.97372 2.74102 3.92684C2.78903 3.87995 2.816 3.81637 2.816 3.75006V3.25006C2.816 3.18376 2.78903 3.12017 2.74102 3.07328C2.69301 3.0264 2.6279 3.00006 2.56 3.00006H2.048V0.250061C2.048 0.183757 2.02103 0.120168 1.97302 0.0732841C1.92501 0.0264001 1.8599 6.10352e-05 1.792 6.10352e-05H1.024C0.976549 0.000143737 0.930056 0.0131041 0.88971 0.0374947C0.849365 0.0618852 0.816754 0.0967456 0.79552 0.138186L0.53952 0.638186C0.520007 0.676267 0.510777 0.718585 0.512707 0.761127C0.514638 0.803668 0.527663 0.845023 0.550548 0.88127C0.573434 0.917517 0.605421 0.947455 0.643477 0.968245C0.681532 0.989034 0.724395 0.999985 0.768 1.00006H1.024V3.00006H0.512C0.444105 3.00006 0.37899 3.0264 0.330981 3.07328C0.282971 3.12017 0.256 3.18376 0.256 3.25006V3.75006C0.256 3.81637 0.282971 3.87995 0.330981 3.92684C0.37899 3.97372 0.444105 4.00006 0.512 4.00006ZM0.38688 10.0001H2.56C2.6279 10.0001 2.69301 9.97372 2.74102 9.92684C2.78903 9.87995 2.816 9.81637 2.816 9.75006V9.25006C2.816 9.18376 2.78903 9.12017 2.74102 9.07328C2.69301 9.0264 2.6279 9.00006 2.56 9.00006H1.32224C1.42752 8.6785 2.86912 8.41631 2.86912 7.23631C2.86912 6.32819 2.06912 6.00006 1.44608 6.00006C0.76256 6.00006 0.36448 6.31256 0.15136 6.586C0.01152 6.76069 0.05536 6.92475 0.24096 7.06631L0.51552 7.28131C0.69504 7.42381 0.86752 7.3585 1.03136 7.20506C1.11218 7.12773 1.22094 7.08462 1.33408 7.08506C1.44064 7.08506 1.63104 7.13381 1.63104 7.3585C1.632 7.756 0 8.041 0 9.5185V9.6435C0 9.87506 0.16256 10.0001 0.38688 10.0001Z" fill="white"/>
<path d="M6.528 12.9459H15.36C15.5297 12.9459 15.6925 13.0107 15.8126 13.1261C15.9326 13.2415 16 13.3981 16 13.5613V14.792C16 14.9552 15.9326 15.1118 15.8126 15.2272C15.6925 15.3426 15.5297 15.4074 15.36 15.4074H6.528C6.35826 15.4074 6.19548 15.3426 6.07545 15.2272C5.95543 15.1118 5.888 14.9552 5.888 14.792V13.5613C5.888 13.3981 5.95543 13.2415 6.07545 13.1261C6.19548 13.0107 6.35826 12.9459 6.528 12.9459Z" fill="white"/>
<path d="M6.528 0.638186H15.36C15.5297 0.638186 15.6925 0.703021 15.8126 0.818428C15.9326 0.933835 16 1.09036 16 1.25357V2.48434C16 2.64755 15.9326 2.80407 15.8126 2.91948C15.6925 3.03489 15.5297 3.09972 15.36 3.09972H6.528C6.35826 3.09972 6.19548 3.03489 6.07545 2.91948C5.95543 2.80407 5.888 2.64755 5.888 2.48434V1.25357C5.888 1.09036 5.95543 0.933835 6.07545 0.818428C6.19548 0.703021 6.35826 0.638186 6.528 0.638186Z" fill="white"/>
<path d="M6.528 6.79203H15.36C15.5297 6.79203 15.6925 6.85687 15.8126 6.97227C15.9326 7.08768 16 7.24421 16 7.40742V8.63819C16 8.8014 15.9326 8.95792 15.8126 9.07333C15.6925 9.18874 15.5297 9.25357 15.36 9.25357H6.528C6.35826 9.25357 6.19548 9.18874 6.07545 9.07333C5.95543 8.95792 5.888 8.8014 5.888 8.63819V7.40742C5.888 7.24421 5.95543 7.08768 6.07545 6.97227C6.19548 6.85687 6.35826 6.79203 6.528 6.79203Z" fill="white"/>
</svg>
