<svg width="8" height="16" viewBox="0 0 8 16" fill="none" xmlns="http://www.w3.org/2000/svg">
<path d="M3.99958 5.32977C6.22426 5.33094 7.99328 7.15952 7.99932 9.38045C7.99951 9.3848 7.99951 9.38972 7.99951 9.39425L7.99951 11.9355C7.99951 14.1769 6.20502 16 3.99957 16C1.79398 16.0002 -0.00055196 14.1767 -0.000363428 11.9355L-0.000362144 10.5323C-0.000361746 10.1602 0.436662 9.96343 0.704875 10.2168C1.0467 10.5396 1.43715 10.8162 1.86621 11.0304C2.0115 11.1029 2.10493 11.2515 2.10493 11.416L2.10492 11.9109C2.10492 12.9708 2.93772 13.8502 3.98068 13.8606C5.03394 13.8711 5.89422 13.0034 5.89422 11.9355L5.89441 9.39444C5.89441 8.32837 5.04433 7.46903 3.99958 7.46903C3.86197 7.46916 3.7392 7.48539 3.6477 7.50254C3.58305 7.51474 3.51648 7.51142 3.45331 7.49284C3.39014 7.47427 3.33211 7.44094 3.28387 7.39554C3.07987 7.20322 2.94691 6.92654 2.94692 6.61077L2.9469 5.81457C2.9469 5.60579 3.09544 5.42921 3.29771 5.39264C3.5294 5.35081 3.76426 5.32977 3.99958 5.32977ZM3.99945 1.50935e-08C1.794 -1.65265e-05 -0.000482722 1.82313 -0.000485069 4.0645L-0.000488281 6.60575C-0.000488286 6.61029 -0.000488467 6.6152 -0.000302394 6.61955C0.00576135 8.84046 1.77477 10.6691 3.99944 10.6702C4.23475 10.6702 4.4696 10.6492 4.70127 10.6074C4.90354 10.5708 5.05209 10.3942 5.05209 10.1854L5.05207 9.38923C5.05207 9.07346 4.91912 8.79678 4.71512 8.60446C4.66687 8.55906 4.60885 8.52573 4.54568 8.50716C4.48251 8.48858 4.41594 8.48526 4.35128 8.49746C4.25979 8.51461 4.13701 8.53084 3.99941 8.53097C2.95465 8.53097 2.10458 7.67163 2.10458 6.60556L2.10477 4.06449C2.10477 2.9966 2.96503 2.12889 4.0183 2.13936C5.06127 2.14976 5.89408 3.02921 5.89406 4.08907L5.89406 4.58397C5.89406 4.74847 5.98749 4.89707 6.13278 4.9696C6.56184 5.18383 6.95229 5.4604 7.29411 5.78324C7.56234 6.03655 7.99935 5.83981 7.99935 5.4677V4.06449C7.99957 1.82331 6.20504 -0.000191559 3.99945 1.50935e-08Z" fill="white"/>
</svg>
