<svg width="16" height="14" viewBox="0 0 16 14" fill="none" xmlns="http://www.w3.org/2000/svg">
<path d="M7.92216 11.6002H7.59043L7.86543 10.7613L5.873 9.19555L5.0857 11.6002H4.12082C3.9948 11.6002 3.87394 11.6511 3.78482 11.7417C3.69571 11.8324 3.64565 11.9553 3.64565 12.0835V13.0502C3.64565 13.1784 3.69571 13.3013 3.78482 13.392C3.87394 13.4826 3.9948 13.5335 4.12082 13.5335H7.92216C8.04818 13.5335 8.16904 13.4826 8.25815 13.392C8.34726 13.3013 8.39732 13.1784 8.39732 13.0502V12.0835C8.39732 11.9553 8.34726 11.8324 8.25815 11.7417C8.16904 11.6511 8.04818 11.6002 7.92216 11.6002ZM15.3394 12.2252L9.13977 7.16815L10.6 2.4167H14.0993V3.38338C14.0993 3.51157 14.1494 3.63451 14.2385 3.72516C14.3276 3.8158 14.4485 3.86672 14.5745 3.86672H15.5248C15.6509 3.86672 15.7717 3.8158 15.8608 3.72516C15.9499 3.63451 16 3.51157 16 3.38338V0.48334C16 0.35515 15.9499 0.232211 15.8608 0.141567C15.7717 0.0509232 15.6509 0 15.5248 0H3.17048C3.04446 0 2.9236 0.0509232 2.83449 0.141567C2.74538 0.232211 2.69532 0.35515 2.69532 0.48334V1.95597L1.49382 1.09431C1.44455 1.05531 1.38821 1.02657 1.32802 1.00973C1.26783 0.992891 1.20496 0.98828 1.14302 0.996164C1.08108 1.00405 1.02127 1.02427 0.967008 1.05567C0.91275 1.08708 0.865108 1.12905 0.826804 1.17919L0.100018 2.08904C0.0226839 2.19023 -0.0119689 2.31853 0.0036808 2.44571C0.0193305 2.57289 0.084001 2.68854 0.183469 2.76722L14.0291 13.8981C14.0783 13.9371 14.1347 13.9659 14.1949 13.9827C14.2551 13.9995 14.3179 14.0041 14.3799 13.9963C14.4418 13.9884 14.5016 13.9682 14.5559 13.9368C14.6101 13.9053 14.6578 13.8634 14.6961 13.8132L15.4232 12.9034C15.5005 12.8022 15.5351 12.6738 15.5194 12.5467C15.5037 12.4195 15.4389 12.3038 15.3394 12.2252ZM7.14734 5.60243L4.59598 3.4501V2.4167H8.09529L7.14734 5.60243Z" fill="white"/>
</svg>
