<svg width="120" height="140" viewBox="0 0 120 140" fill="none" xmlns="http://www.w3.org/2000/svg">
<rect width="120" height="140" rx="4" fill="white"/>
<path d="M91.3956 81.1166H40.4652C39.6561 81.1166 39 81.6537 39 82.316V83.7149C39 84.3772 39.6561 84.9143 40.4652 84.9143H91.3956C92.2047 84.9143 92.8608 84.3772 92.8608 83.7149V82.316C92.8608 81.6537 92.2047 81.1166 91.3956 81.1166ZM91.5348 103.174H40.6044C39.7953 103.174 39.1392 103.711 39.1392 104.373V105.772C39.1392 106.434 39.7953 106.971 40.6044 106.971H91.5348C92.3439 106.971 93 106.434 93 105.772V104.373C93 103.711 92.3439 103.174 91.5348 103.174ZM91.5348 92.0572H40.6044C39.7953 92.0572 39.1392 92.5943 39.1392 93.2566V94.6554C39.1392 95.3177 39.7953 95.8549 40.6044 95.8549H91.5348C92.3439 95.8549 93 95.3177 93 94.6554V93.2566C93 92.5943 92.3439 92.0572 91.5348 92.0572Z" fill="#B3B7B5" fill-opacity="0.5"/>
<path d="M40.6044 114.202H91.5348C92.3438 114.202 93 114.739 93 115.402V116.801C93 117.463 92.3438 118 91.5348 118H40.6044C39.7953 118 39.1392 117.463 39.1392 116.801V115.402C39.1392 114.739 39.7953 114.202 40.6044 114.202Z" fill="#B3B7B5" fill-opacity="0.5"/>
<path d="M27.6044 80.2023H30.5348C31.3438 80.2023 32 80.7394 32 81.4017V84.8006C32 85.4629 31.3438 86 30.5348 86H27.6044C26.7953 86 26.1392 85.4629 26.1392 84.8006V81.4017C26.1392 80.7394 26.7953 80.2023 27.6044 80.2023Z" fill="#B3B7B5" fill-opacity="0.5"/>
<path d="M27.6044 91H30.5348C31.3438 91 32 91.5371 32 92.1994V95.5983C32 96.2606 31.3438 96.7977 30.5348 96.7977H27.6044C26.7953 96.7977 26.1392 96.2606 26.1392 95.5983V92.1994C26.1392 91.5371 26.7953 91 27.6044 91Z" fill="#B3B7B5" fill-opacity="0.5"/>
<path d="M27.6044 101.702H30.5348C31.3438 101.702 32 102.239 32 102.902V106.301C32 106.963 31.3438 107.5 30.5348 107.5H27.6044C26.7953 107.5 26.1392 106.963 26.1392 106.301V102.902C26.1392 102.239 26.7953 101.702 27.6044 101.702Z" fill="#B3B7B5" fill-opacity="0.5"/>
<path d="M27.6044 113H30.5348C31.3438 113 32 113.537 32 114.199V117.598C32 118.261 31.3438 118.798 30.5348 118.798H27.6044C26.7953 118.798 26.1392 118.261 26.1392 117.598V114.199C26.1392 113.537 26.7953 113 27.6044 113Z" fill="#B3B7B5" fill-opacity="0.5"/>
<path d="M94.5348 55.0571H25.6044C24.7953 55.0571 24.1392 55.5943 24.1392 56.2566V57.6554C24.1392 58.3177 24.7953 58.8548 25.6044 58.8548H94.5348C95.3439 58.8548 96 58.3177 96 57.6554V56.2566C96 55.5943 95.3439 55.0571 94.5348 55.0571Z" fill="#B3B7B5" fill-opacity="0.5"/>
<path d="M25.6044 64.0857H76.5348C77.3438 64.0857 78 64.6228 78 65.2851V66.684C78 67.3463 77.3438 67.8834 76.5348 67.8834H25.6044C24.7953 67.8834 24.1392 67.3463 24.1392 66.684V65.2851C24.1392 64.6228 24.7953 64.0857 25.6044 64.0857Z" fill="#B3B7B5" fill-opacity="0.5"/>
<path d="M25.468 39H94.532C95.3426 39 96 39.5495 96 40.227V46.773C96 47.4505 95.3426 48 94.532 48H25.468C24.6574 48 24 47.4505 24 46.773V40.227C24 39.5495 24.6574 39 25.468 39Z" fill="#B3B7B5" fill-opacity="0.5"/>
<path d="M24.6181 15H55.3819C55.7232 15 56 15.6248 56 16.3952V29.6048C56 30.3752 55.7232 31 55.3819 31H24.6181C24.2768 31 24 30.3752 24 29.6048V16.3952C24 15.6248 24.2768 15 24.6181 15Z" fill="#B3B7B5" fill-opacity="0.5"/>
<path d="M31.26 19.91C31.28 20.19 31.28 20.6 31.28 20.88V25.77C31.28 26.25 31.25 27.12 31.25 27.17H32.63C32.63 27.14 32.63 26.91 32.62 26.63H37.44C37.44 26.92 37.43 27.15 37.43 27.17H38.81C38.81 27.13 38.79 26.17 38.79 25.78V20.88C38.79 20.58 38.79 20.21 38.81 19.91C38.45 19.93 38.07 19.93 37.82 19.93H32.32C32.05 19.93 31.67 19.92 31.26 19.91ZM32.62 21.2H37.45V25.35H32.62V21.2ZM47.47 18.65L46.65 18.99C46.9 19.34 47.2 19.87 47.39 20.28H42.57C42.22 20.28 41.71 20.26 41.33 20.22V21.61C41.61 21.59 42.15 21.57 42.57 21.57H47.07V25.71H42.45C42 25.71 41.55 25.68 41.21 25.65V27.08C41.53 27.05 42.1 27.02 42.49 27.02H47.06C47.06 27.21 47.06 27.38 47.05 27.54H48.5C48.47 27.24 48.45 26.71 48.45 26.36V21.18C48.45 20.89 48.47 20.49 48.48 20.26C48.31 20.27 47.9 20.28 47.6 20.28H47.56L48.25 19.99C48.07 19.62 47.72 19.01 47.47 18.65ZM48.82 18.33L47.99 18.67C48.27 19.03 48.57 19.6 48.79 20.01L49.62 19.65C49.43 19.3 49.07 18.69 48.82 18.33Z" fill="white"/>
</svg>
