<svg width="120" height="140" viewBox="0 0 120 140" fill="none" xmlns="http://www.w3.org/2000/svg">
<rect width="120" height="140" rx="4" fill="white"/>
<path d="M94.5348 103.117H25.6044C24.7953 103.117 24.1392 103.654 24.1392 104.316V105.715C24.1392 106.377 24.7953 106.914 25.6044 106.914H94.5348C95.3439 106.914 96 106.377 96 105.715V104.316C96 103.654 95.3439 103.117 94.5348 103.117ZM94.5348 64H25.6044C24.7953 64 24.1392 64.5371 24.1392 65.1994V66.5983C24.1392 67.2606 24.7953 67.7977 25.6044 67.7977H94.5348C95.3439 67.7977 96 67.2606 96 66.5983V65.1994C96 64.5371 95.3439 64 94.5348 64Z" fill="#B3B7B5" fill-opacity="0.5"/>
<path d="M25.6044 116.145H76.5348C77.3438 116.145 78 116.682 78 117.345V118.743C78 119.406 77.3438 119.943 76.5348 119.943H25.6044C24.7953 119.943 24.1392 119.406 24.1392 118.743V117.345C24.1392 116.682 24.7953 116.145 25.6044 116.145Z" fill="#B3B7B5" fill-opacity="0.5"/>
<path d="M25.6044 77H94.5348C95.3438 77 96 77.5371 96 78.1994V79.5983C96 80.2606 95.3438 80.7977 94.5348 80.7977H25.6044C24.7953 80.7977 24.1392 80.2606 24.1392 79.5983V78.1994C24.1392 77.5371 24.7953 77 25.6044 77Z" fill="#B3B7B5" fill-opacity="0.5"/>
<path d="M25.6044 90H94.5348C95.3438 90 96 90.5371 96 91.1994V92.5983C96 93.2606 95.3438 93.7977 94.5348 93.7977H25.6044C24.7953 93.7977 24.1392 93.2606 24.1392 92.5983V91.1994C24.1392 90.5371 24.7953 90 25.6044 90Z" fill="#B3B7B5" fill-opacity="0.5"/>
<path d="M25.6044 43H94.5348C95.3438 43 96 43.5371 96 44.1994V50.5983C96 51.2606 95.3438 51.7977 94.5348 51.7977H25.6044C24.7953 51.7977 24.1392 51.2606 24.1392 50.5983V44.1994C24.1392 43.5371 24.7953 43 25.6044 43Z" fill="#B3B7B5" fill-opacity="0.5"/>
<path d="M24.6181 17H55.3819C55.7232 17 56 17.6248 56 18.3952V31.6048C56 32.3752 55.7232 33 55.3819 33H24.6181C24.2768 33 24 32.3752 24 31.6048V18.3952C24 17.6248 24.2768 17 24.6181 17Z" fill="#B3B7B5" fill-opacity="0.5"/>
<path d="M31.26 21.91C31.28 22.19 31.28 22.6 31.28 22.88V27.77C31.28 28.25 31.25 29.12 31.25 29.17H32.63C32.63 29.14 32.63 28.91 32.62 28.63H37.44C37.44 28.92 37.43 29.15 37.43 29.17H38.81C38.81 29.13 38.79 28.17 38.79 27.78V22.88C38.79 22.58 38.79 22.21 38.81 21.91C38.45 21.93 38.07 21.93 37.82 21.93H32.32C32.05 21.93 31.67 21.92 31.26 21.91ZM32.62 23.2H37.45V27.35H32.62V23.2ZM47.47 20.65L46.65 20.99C46.9 21.34 47.2 21.87 47.39 22.28H42.57C42.22 22.28 41.71 22.26 41.33 22.22V23.61C41.61 23.59 42.15 23.57 42.57 23.57H47.07V27.71H42.45C42 27.71 41.55 27.68 41.21 27.65V29.08C41.53 29.05 42.1 29.02 42.49 29.02H47.06C47.06 29.21 47.06 29.38 47.05 29.54H48.5C48.47 29.24 48.45 28.71 48.45 28.36V23.18C48.45 22.89 48.47 22.49 48.48 22.26C48.31 22.27 47.9 22.28 47.6 22.28H47.56L48.25 21.99C48.07 21.62 47.72 21.01 47.47 20.65ZM48.82 20.33L47.99 20.67C48.27 21.03 48.57 21.6 48.79 22.01L49.62 21.65C49.43 21.3 49.07 20.69 48.82 20.33Z" fill="white"/>
</svg>
