<svg width="120" height="140" viewBox="0 0 120 140" fill="none" xmlns="http://www.w3.org/2000/svg">
<rect width="120" height="140" rx="4" fill="white"/>
<path d="M25.676 74H57.324C57.6973 74 58 74.5417 58 75.2096V94.7904C58 95.4583 57.6973 96 57.324 96H25.676C25.3027 96 25 95.4583 25 94.7904V75.2096C25 74.5417 25.3027 74 25.676 74Z" fill="#B3B7B5" fill-opacity="0.5"/>
<path d="M93.571 83.1411H63.429C62.6399 83.1411 62 83.6798 62 84.3441V84.7442C62 85.4085 62.6399 85.9472 63.429 85.9472H93.571C94.3601 85.9472 95 85.4085 95 84.7442V84.3441C95 83.6798 94.3601 83.1411 93.571 83.1411ZM93.571 76H63.429C62.6399 76 62 76.5387 62 77.203V77.6031C62 78.2674 62.6399 78.8062 63.429 78.8062H93.571C94.3601 78.8062 95 78.2674 95 77.6031V77.203C95 76.5387 94.3601 76 93.571 76Z" fill="#B3B7B5" fill-opacity="0.5"/>
<path d="M63.429 90.1938H83.8179C84.607 90.1938 85.2469 90.7326 85.2469 91.3969V91.7969C85.2469 92.4613 84.607 93 83.8179 93H63.429C62.6399 93 62 92.4613 62 91.7969V91.3969C62 90.7326 62.6399 90.1938 63.429 90.1938Z" fill="#B3B7B5" fill-opacity="0.5"/>
<path d="M25.676 102H57.324C57.6973 102 58 102.542 58 103.21V122.79C58 123.458 57.6973 124 57.324 124H25.676C25.3027 124 25 123.458 25 122.79V103.21C25 102.542 25.3027 102 25.676 102Z" fill="#B3B7B5" fill-opacity="0.5"/>
<path d="M93.571 111.141H63.429C62.6399 111.141 62 111.68 62 112.344V112.744C62 113.408 62.6399 113.947 63.429 113.947H93.571C94.3601 113.947 95 113.408 95 112.744V112.344C95 111.68 94.3601 111.141 93.571 111.141ZM93.571 104H63.429C62.6399 104 62 104.539 62 105.203V105.603C62 106.267 62.6399 106.806 63.429 106.806H93.571C94.3601 106.806 95 106.267 95 105.603V105.203C95 104.539 94.3601 104 93.571 104Z" fill="#B3B7B5" fill-opacity="0.5"/>
<path d="M63.429 118.194H83.8179C84.607 118.194 85.2469 118.733 85.2469 119.397V119.797C85.2469 120.461 84.607 121 83.8179 121H63.429C62.6399 121 62 120.461 62 119.797V119.397C62 118.733 62.6399 118.194 63.429 118.194Z" fill="#B3B7B5" fill-opacity="0.5"/>
<path d="M94.5348 55.0571H25.6044C24.7953 55.0571 24.1392 55.5943 24.1392 56.2566V57.6554C24.1392 58.3177 24.7953 58.8548 25.6044 58.8548H94.5348C95.3439 58.8548 96 58.3177 96 57.6554V56.2566C96 55.5943 95.3439 55.0571 94.5348 55.0571Z" fill="#B3B7B5" fill-opacity="0.5"/>
<path d="M25.6044 64.0857H76.5348C77.3438 64.0857 78 64.6228 78 65.2851V66.684C78 67.3463 77.3438 67.8834 76.5348 67.8834H25.6044C24.7953 67.8834 24.1392 67.3463 24.1392 66.684V65.2851C24.1392 64.6228 24.7953 64.0857 25.6044 64.0857Z" fill="#B3B7B5" fill-opacity="0.5"/>
<path d="M25.468 40H94.532C95.3426 40 96 40.5495 96 41.227V47.773C96 48.4505 95.3426 49 94.532 49H25.468C24.6574 49 24 48.4505 24 47.773V41.227C24 40.5495 24.6574 40 25.468 40Z" fill="#B3B7B5" fill-opacity="0.5"/>
<path d="M24.6181 16H55.3819C55.7232 16 56 16.6248 56 17.3952V30.6048C56 31.3752 55.7232 32 55.3819 32H24.6181C24.2768 32 24 31.3752 24 30.6048V17.3952C24 16.6248 24.2768 16 24.6181 16Z" fill="#B3B7B5" fill-opacity="0.5"/>
<path d="M31.26 20.91C31.28 21.19 31.28 21.6 31.28 21.88V26.77C31.28 27.25 31.25 28.12 31.25 28.17H32.63C32.63 28.14 32.63 27.91 32.62 27.63H37.44C37.44 27.92 37.43 28.15 37.43 28.17H38.81C38.81 28.13 38.79 27.17 38.79 26.78V21.88C38.79 21.58 38.79 21.21 38.81 20.91C38.45 20.93 38.07 20.93 37.82 20.93H32.32C32.05 20.93 31.67 20.92 31.26 20.91ZM32.62 22.2H37.45V26.35H32.62V22.2ZM47.47 19.65L46.65 19.99C46.9 20.34 47.2 20.87 47.39 21.28H42.57C42.22 21.28 41.71 21.26 41.33 21.22V22.61C41.61 22.59 42.15 22.57 42.57 22.57H47.07V26.71H42.45C42 26.71 41.55 26.68 41.21 26.65V28.08C41.53 28.05 42.1 28.02 42.49 28.02H47.06C47.06 28.21 47.06 28.38 47.05 28.54H48.5C48.47 28.24 48.45 27.71 48.45 27.36V22.18C48.45 21.89 48.47 21.49 48.48 21.26C48.31 21.27 47.9 21.28 47.6 21.28H47.56L48.25 20.99C48.07 20.62 47.72 20.01 47.47 19.65ZM48.82 19.33L47.99 19.67C48.27 20.03 48.57 20.6 48.79 21.01L49.62 20.65C49.43 20.3 49.07 19.69 48.82 19.33Z" fill="white"/>
</svg>
