<svg width="120" height="140" viewBox="0 0 120 140" fill="none" xmlns="http://www.w3.org/2000/svg">
<rect width="120" height="140" rx="4" fill="white"/>
<path d="M96.3956 26H23.4652C22.6561 26 22 26.5371 22 27.1994V28.5983C22 29.2606 22.6561 29.7977 23.4652 29.7977H96.3956C97.2047 29.7977 97.8608 29.2606 97.8608 28.5983V27.1994C97.8608 26.5371 97.2047 26 96.3956 26ZM96.5348 46.0571H23.6044C22.7953 46.0571 22.1392 46.5943 22.1392 47.2566V48.6554C22.1392 49.3177 22.7953 49.8549 23.6044 49.8549H96.5348C97.3439 49.8549 98 49.3177 98 48.6554V47.2566C98 46.5943 97.3439 46.0571 96.5348 46.0571ZM96.5348 35.9406H23.6044C22.7953 35.9406 22.1392 36.4777 22.1392 37.14V38.5389C22.1392 39.2012 22.7953 39.7383 23.6044 39.7383H96.5348C97.3439 39.7383 98 39.2012 98 38.5389V37.14C98 36.4777 97.3439 35.9406 96.5348 35.9406Z" fill="#B3B7B5" fill-opacity="0.5"/>
<path d="M23.6044 56.0857H96.5348C97.3438 56.0857 98 56.6228 98 57.2851V58.684C98 59.3463 97.3438 59.8834 96.5348 59.8834H23.6044C22.7953 59.8834 22.1392 59.3463 22.1392 58.684V57.2851C22.1392 56.6228 22.7953 56.0857 23.6044 56.0857Z" fill="#B3B7B5" fill-opacity="0.5"/>
<path d="M96.5348 101.057H23.6044C22.7953 101.057 22.1392 101.557 22.1392 102.173V103.474C22.1392 104.09 22.7953 104.59 23.6044 104.59H96.5348C97.3439 104.59 98 104.09 98 103.474V102.173C98 101.557 97.3439 101.057 96.5348 101.057Z" fill="#B3B7B5" fill-opacity="0.5"/>
<path d="M23.6044 110.525H76.5348C77.3438 110.525 78 111.024 78 111.64V112.941C78 113.558 77.3438 114.057 76.5348 114.057H23.6044C22.7953 114.057 22.1392 113.558 22.1392 112.941V111.64C22.1392 111.024 22.7953 110.525 23.6044 110.525Z" fill="#B3B7B5" fill-opacity="0.5"/>
<mask id="path-4-inside-1" fill="white">
<rect x="22" y="67" width="76" height="27" rx="2"/>
</mask>
<rect x="22" y="67" width="76" height="27" rx="2" stroke="#D9DBDA" stroke-width="6" mask="url(#path-4-inside-1)"/>
</svg>
