<svg width="120" height="140" viewBox="0 0 120 140" fill="none" xmlns="http://www.w3.org/2000/svg">
<rect width="120" height="140" rx="4" fill="white"/>
<path d="M25.5 78.3184C25.5 77.9449 25.5843 77.6618 25.6666 77.5H94.3334C94.4157 77.6618 94.5 77.9449 94.5 78.3184V119.682C94.5 120.055 94.4157 120.338 94.3334 120.5H25.6666C25.5843 120.338 25.5 120.055 25.5 119.682V78.3184ZM94.258 77.382C94.258 77.3816 94.261 77.3845 94.2667 77.3916C94.2607 77.3859 94.2579 77.3823 94.258 77.382ZM94.258 120.618C94.2579 120.618 94.2607 120.614 94.2666 120.609C94.261 120.616 94.258 120.618 94.258 120.618ZM25.742 120.618C25.7419 120.618 25.739 120.616 25.7333 120.608C25.7393 120.614 25.7421 120.618 25.742 120.618ZM25.7333 77.3916C25.739 77.3845 25.7419 77.3816 25.742 77.382C25.7421 77.3823 25.7393 77.3859 25.7333 77.3916Z" fill="#B3B7B5" fill-opacity="0.01" stroke="#D9DBDA" stroke-width="3"/>
<line x1="26" y1="88.5" x2="94" y2="88.5" stroke="#D9DBDA" stroke-width="3"/>
<line x1="26" y1="99.5" x2="94" y2="99.5" stroke="#D9DBDA" stroke-width="3"/>
<line x1="26" y1="110.5" x2="94" y2="110.5" stroke="#D9DBDA" stroke-width="3"/>
<line x1="49.5" y1="87" x2="49.5" y2="121" stroke="#D9DBDA" stroke-width="3"/>
<path d="M94.5348 55.0571H25.6044C24.7953 55.0571 24.1392 55.5943 24.1392 56.2566V57.6554C24.1392 58.3177 24.7953 58.8548 25.6044 58.8548H94.5348C95.3439 58.8548 96 58.3177 96 57.6554V56.2566C96 55.5943 95.3439 55.0571 94.5348 55.0571Z" fill="#B3B7B5" fill-opacity="0.5"/>
<path d="M25.6044 64.0857H76.5348C77.3438 64.0857 78 64.6228 78 65.2851V66.684C78 67.3463 77.3438 67.8834 76.5348 67.8834H25.6044C24.7953 67.8834 24.1392 67.3463 24.1392 66.684V65.2851C24.1392 64.6228 24.7953 64.0857 25.6044 64.0857Z" fill="#B3B7B5" fill-opacity="0.5"/>
<path d="M25.468 39H94.532C95.3426 39 96 39.5495 96 40.227V46.773C96 47.4505 95.3426 48 94.532 48H25.468C24.6574 48 24 47.4505 24 46.773V40.227C24 39.5495 24.6574 39 25.468 39Z" fill="#B3B7B5" fill-opacity="0.5"/>
<path d="M24.6181 15H55.3819C55.7232 15 56 15.6248 56 16.3952V29.6048C56 30.3752 55.7232 31 55.3819 31H24.6181C24.2768 31 24 30.3752 24 29.6048V16.3952C24 15.6248 24.2768 15 24.6181 15Z" fill="#B3B7B5" fill-opacity="0.5"/>
<path d="M31.26 19.91C31.28 20.19 31.28 20.6 31.28 20.88V25.77C31.28 26.25 31.25 27.12 31.25 27.17H32.63C32.63 27.14 32.63 26.91 32.62 26.63H37.44C37.44 26.92 37.43 27.15 37.43 27.17H38.81C38.81 27.13 38.79 26.17 38.79 25.78V20.88C38.79 20.58 38.79 20.21 38.81 19.91C38.45 19.93 38.07 19.93 37.82 19.93H32.32C32.05 19.93 31.67 19.92 31.26 19.91ZM32.62 21.2H37.45V25.35H32.62V21.2ZM47.47 18.65L46.65 18.99C46.9 19.34 47.2 19.87 47.39 20.28H42.57C42.22 20.28 41.71 20.26 41.33 20.22V21.61C41.61 21.59 42.15 21.57 42.57 21.57H47.07V25.71H42.45C42 25.71 41.55 25.68 41.21 25.65V27.08C41.53 27.05 42.1 27.02 42.49 27.02H47.06C47.06 27.21 47.06 27.38 47.05 27.54H48.5C48.47 27.24 48.45 26.71 48.45 26.36V21.18C48.45 20.89 48.47 20.49 48.48 20.26C48.31 20.27 47.9 20.28 47.6 20.28H47.56L48.25 19.99C48.07 19.62 47.72 19.01 47.47 18.65ZM48.82 18.33L47.99 18.67C48.27 19.03 48.57 19.6 48.79 20.01L49.62 19.65C49.43 19.3 49.07 18.69 48.82 18.33Z" fill="white"/>
</svg>
