<svg width="120" height="140" viewBox="0 0 120 140" fill="none" xmlns="http://www.w3.org/2000/svg">
<rect width="120" height="140" rx="4" fill="white"/>
<path d="M55.571 95H25.429C24.6399 95 24 95.5387 24 96.203V97.6031C24 98.2674 24.6399 98.8062 25.429 98.8062H55.571C56.3601 98.8062 57 98.2674 57 97.6031V96.203C57 95.5387 56.3601 95 55.571 95Z" fill="#B3B7B5" fill-opacity="0.5"/>
<path d="M55.571 104H25.429C24.6399 104 24 104.539 24 105.203V106.603C24 107.267 24.6399 107.806 25.429 107.806H55.571C56.3601 107.806 57 107.267 57 106.603V105.203C57 104.539 56.3601 104 55.571 104Z" fill="#B3B7B5" fill-opacity="0.5"/>
<path d="M55.571 113H25.429C24.6399 113 24 113.539 24 114.203V115.603C24 116.267 24.6399 116.806 25.429 116.806H55.571C56.3601 116.806 57 116.267 57 115.603V114.203C57 113.539 56.3601 113 55.571 113Z" fill="#B3B7B5" fill-opacity="0.5"/>
<path d="M45.571 122H25.429C24.6399 122 24 122.539 24 123.203V124.603C24 125.267 24.6399 125.806 25.429 125.806H45.571C46.3601 125.806 47 125.267 47 124.603V123.203C47 122.539 46.3601 122 45.571 122Z" fill="#B3B7B5" fill-opacity="0.5"/>
<path d="M95.571 95H65.429C64.6399 95 64 95.5387 64 96.203V97.6031C64 98.2674 64.6399 98.8062 65.429 98.8062H95.571C96.3601 98.8062 97 98.2674 97 97.6031V96.203C97 95.5387 96.3601 95 95.571 95Z" fill="#B3B7B5" fill-opacity="0.5"/>
<path d="M95.571 104H65.429C64.6399 104 64 104.539 64 105.203V106.603C64 107.267 64.6399 107.806 65.429 107.806H95.571C96.3601 107.806 97 107.267 97 106.603V105.203C97 104.539 96.3601 104 95.571 104Z" fill="#B3B7B5" fill-opacity="0.5"/>
<path d="M95.571 113H65.429C64.6399 113 64 113.539 64 114.203V115.603C64 116.267 64.6399 116.806 65.429 116.806H95.571C96.3601 116.806 97 116.267 97 115.603V114.203C97 113.539 96.3601 113 95.571 113Z" fill="#B3B7B5" fill-opacity="0.5"/>
<path d="M85.571 122H65.429C64.6399 122 64 122.539 64 123.203V124.603C64 125.267 64.6399 125.806 65.429 125.806H85.571C86.3601 125.806 87 125.267 87 124.603V123.203C87 122.539 86.3601 122 85.571 122Z" fill="#B3B7B5" fill-opacity="0.5"/>
<path d="M25.3906 57H94.6094C95.3773 57 96 57.6997 96 58.5624V86.4376C96 87.3003 95.3773 88 94.6094 88H25.3906C24.6227 88 24 87.3003 24 86.4376V58.5624C24 57.6997 24.6227 57 25.3906 57Z" fill="#B3B7B5" fill-opacity="0.5"/>
<path d="M25.468 40H94.532C95.3426 40 96 40.5495 96 41.227V47.773C96 48.4505 95.3426 49 94.532 49H25.468C24.6574 49 24 48.4505 24 47.773V41.227C24 40.5495 24.6574 40 25.468 40Z" fill="#B3B7B5" fill-opacity="0.5"/>
<path d="M24.6181 14H55.3819C55.7232 14 56 14.6248 56 15.3952V28.6048C56 29.3752 55.7232 30 55.3819 30H24.6181C24.2768 30 24 29.3752 24 28.6048V15.3952C24 14.6248 24.2768 14 24.6181 14Z" fill="#B3B7B5" fill-opacity="0.5"/>
<path d="M31.26 18.91C31.28 19.19 31.28 19.6 31.28 19.88V24.77C31.28 25.25 31.25 26.12 31.25 26.17H32.63C32.63 26.14 32.63 25.91 32.62 25.63H37.44C37.44 25.92 37.43 26.15 37.43 26.17H38.81C38.81 26.13 38.79 25.17 38.79 24.78V19.88C38.79 19.58 38.79 19.21 38.81 18.91C38.45 18.93 38.07 18.93 37.82 18.93H32.32C32.05 18.93 31.67 18.92 31.26 18.91ZM32.62 20.2H37.45V24.35H32.62V20.2ZM47.47 17.65L46.65 17.99C46.9 18.34 47.2 18.87 47.39 19.28H42.57C42.22 19.28 41.71 19.26 41.33 19.22V20.61C41.61 20.59 42.15 20.57 42.57 20.57H47.07V24.71H42.45C42 24.71 41.55 24.68 41.21 24.65V26.08C41.53 26.05 42.1 26.02 42.49 26.02H47.06C47.06 26.21 47.06 26.38 47.05 26.54H48.5C48.47 26.24 48.45 25.71 48.45 25.36V20.18C48.45 19.89 48.47 19.49 48.48 19.26C48.31 19.27 47.9 19.28 47.6 19.28H47.56L48.25 18.99C48.07 18.62 47.72 18.01 47.47 17.65ZM48.82 17.33L47.99 17.67C48.27 18.03 48.57 18.6 48.79 19.01L49.62 18.65C49.43 18.3 49.07 17.69 48.82 17.33Z" fill="white"/>
</svg>
