<svg width="120" height="140" viewBox="0 0 120 140" fill="none" xmlns="http://www.w3.org/2000/svg">
<rect width="120" height="140" rx="4" fill="white"/>
<path d="M94.5348 56.0571H25.6044C24.7953 56.0571 24.1392 56.5943 24.1392 57.2566V58.6554C24.1392 59.3177 24.7953 59.8548 25.6044 59.8548H94.5348C95.3439 59.8548 96 59.3177 96 58.6554V57.2566C96 56.5943 95.3439 56.0571 94.5348 56.0571Z" fill="#B3B7B5" fill-opacity="0.5"/>
<path d="M25.6044 65.0857H76.5348C77.3438 65.0857 78 65.6228 78 66.2851V67.684C78 68.3463 77.3438 68.8834 76.5348 68.8834H25.6044C24.7953 68.8834 24.1392 68.3463 24.1392 67.684V66.2851C24.1392 65.6228 24.7953 65.0857 25.6044 65.0857Z" fill="#B3B7B5" fill-opacity="0.5"/>
<path d="M94.5348 114.057H25.6044C24.7953 114.057 24.1392 114.594 24.1392 115.257V116.655C24.1392 117.318 24.7953 117.855 25.6044 117.855H94.5348C95.3439 117.855 96 117.318 96 116.655V115.257C96 114.594 95.3439 114.057 94.5348 114.057Z" fill="#B3B7B5" fill-opacity="0.5"/>
<path d="M25.6044 123.086H76.5348C77.3438 123.086 78 123.623 78 124.285V125.684C78 126.346 77.3438 126.883 76.5348 126.883H25.6044C24.7953 126.883 24.1392 126.346 24.1392 125.684V124.285C24.1392 123.623 24.7953 123.086 25.6044 123.086Z" fill="#B3B7B5" fill-opacity="0.5"/>
<path d="M25.3906 76H94.6094C95.3773 76 96 76.6997 96 77.5624V105.438C96 106.3 95.3773 107 94.6094 107H25.3906C24.6227 107 24 106.3 24 105.438V77.5624C24 76.6997 24.6227 76 25.3906 76Z" fill="#B3B7B5" fill-opacity="0.5"/>
<path d="M25.468 41H94.532C95.3426 41 96 41.5495 96 42.227V48.773C96 49.4505 95.3426 50 94.532 50H25.468C24.6574 50 24 49.4505 24 48.773V42.227C24 41.5495 24.6574 41 25.468 41Z" fill="#B3B7B5" fill-opacity="0.5"/>
<path d="M24.6181 16H55.3819C55.7232 16 56 16.6248 56 17.3952V30.6048C56 31.3752 55.7232 32 55.3819 32H24.6181C24.2768 32 24 31.3752 24 30.6048V17.3952C24 16.6248 24.2768 16 24.6181 16Z" fill="#B3B7B5" fill-opacity="0.5"/>
<path d="M31.26 20.91C31.28 21.19 31.28 21.6 31.28 21.88V26.77C31.28 27.25 31.25 28.12 31.25 28.17H32.63C32.63 28.14 32.63 27.91 32.62 27.63H37.44C37.44 27.92 37.43 28.15 37.43 28.17H38.81C38.81 28.13 38.79 27.17 38.79 26.78V21.88C38.79 21.58 38.79 21.21 38.81 20.91C38.45 20.93 38.07 20.93 37.82 20.93H32.32C32.05 20.93 31.67 20.92 31.26 20.91ZM32.62 22.2H37.45V26.35H32.62V22.2ZM47.47 19.65L46.65 19.99C46.9 20.34 47.2 20.87 47.39 21.28H42.57C42.22 21.28 41.71 21.26 41.33 21.22V22.61C41.61 22.59 42.15 22.57 42.57 22.57H47.07V26.71H42.45C42 26.71 41.55 26.68 41.21 26.65V28.08C41.53 28.05 42.1 28.02 42.49 28.02H47.06C47.06 28.21 47.06 28.38 47.05 28.54H48.5C48.47 28.24 48.45 27.71 48.45 27.36V22.18C48.45 21.89 48.47 21.49 48.48 21.26C48.31 21.27 47.9 21.28 47.6 21.28H47.56L48.25 20.99C48.07 20.62 47.72 20.01 47.47 19.65ZM48.82 19.33L47.99 19.67C48.27 20.03 48.57 20.6 48.79 21.01L49.62 20.65C49.43 20.3 49.07 19.69 48.82 19.33Z" fill="white"/>
</svg>
