<svg width="120" height="140" viewBox="0 0 120 140" fill="none" xmlns="http://www.w3.org/2000/svg">
<path d="M116 0H4C1.79086 0 0 1.79086 0 4V136C0 138.209 1.79086 140 4 140H116C118.209 140 120 138.209 120 136V4C120 1.79086 118.209 0 116 0Z" fill="white"/>
<path d="M116 0H4C1.79086 0 0 1.79086 0 4V136C0 138.209 1.79086 140 4 140H116C118.209 140 120 138.209 120 136V4C120 1.79086 118.209 0 116 0Z" fill="white"/>
<path d="M94.5348 107.174H25.6044C24.7953 107.174 24.1392 107.711 24.1392 108.373V109.772C24.1392 110.434 24.7953 110.971 25.6044 110.971H94.5348C95.3439 110.971 96 110.434 96 109.772V108.373C96 107.711 95.3439 107.174 94.5348 107.174ZM94.5348 96.0571H25.6044C24.7953 96.0571 24.1392 96.5942 24.1392 97.2566V98.6554C24.1392 99.3177 24.7953 99.8548 25.6044 99.8548H94.5348C95.3439 99.8548 96 99.3177 96 98.6554V97.2566C96 96.5942 95.3439 96.0571 94.5348 96.0571Z" fill="#B3B7B5" fill-opacity="0.5"/>
<path d="M25.6044 118.202H76.5348C77.3438 118.202 78 118.739 78 119.402V120.801C78 121.463 77.3438 122 76.5348 122H25.6044C24.7953 122 24.1392 121.463 24.1392 120.801V119.402C24.1392 118.739 24.7953 118.202 25.6044 118.202Z" fill="#B3B7B5" fill-opacity="0.5"/>
<path d="M25.3906 56H94.6094C95.3773 56 96 56.6997 96 57.5624V85.4376C96 86.3003 95.3773 87 94.6094 87H25.3906C24.6227 87 24 86.3003 24 85.4376V57.5624C24 56.6997 24.6227 56 25.3906 56Z" fill="#B3B7B5" fill-opacity="0.5"/>
<path d="M25.6044 40H94.5348C95.3438 40 96 40.5371 96 41.1994V47.5983C96 48.2606 95.3438 48.7977 94.5348 48.7977H25.6044C24.7953 48.7977 24.1392 48.2606 24.1392 47.5983V41.1994C24.1392 40.5371 24.7953 40 25.6044 40Z" fill="#B3B7B5" fill-opacity="0.5"/>
<path d="M26.6181 14H57.3819C57.7232 14 58 14.6248 58 15.3952V28.6048C58 29.3752 57.7232 30 57.3819 30H26.6181C26.2768 30 26 29.3752 26 28.6048V15.3952C26 14.6248 26.2768 14 26.6181 14Z" fill="#B3B7B5" fill-opacity="0.5"/>
<path d="M33.26 18.91C33.28 19.19 33.28 19.6 33.28 19.88V24.77C33.28 25.25 33.25 26.12 33.25 26.17H34.63C34.63 26.14 34.63 25.91 34.62 25.63H39.44C39.44 25.92 39.43 26.15 39.43 26.17H40.81C40.81 26.13 40.79 25.17 40.79 24.78V19.88C40.79 19.58 40.79 19.21 40.81 18.91C40.45 18.93 40.07 18.93 39.82 18.93H34.32C34.05 18.93 33.67 18.92 33.26 18.91ZM34.62 20.2H39.45V24.35H34.62V20.2ZM49.47 17.65L48.65 17.99C48.9 18.34 49.2 18.87 49.39 19.28H44.57C44.22 19.28 43.71 19.26 43.33 19.22V20.61C43.61 20.59 44.15 20.57 44.57 20.57H49.07V24.71H44.45C44 24.71 43.55 24.68 43.21 24.65V26.08C43.53 26.05 44.1 26.02 44.49 26.02H49.06C49.06 26.21 49.06 26.38 49.05 26.54H50.5C50.47 26.24 50.45 25.71 50.45 25.36V20.18C50.45 19.89 50.47 19.49 50.48 19.26C50.31 19.27 49.9 19.28 49.6 19.28H49.56L50.25 18.99C50.07 18.62 49.72 18.01 49.47 17.65ZM50.82 17.33L49.99 17.67C50.27 18.03 50.57 18.6 50.79 19.01L51.62 18.65C51.43 18.3 51.07 17.69 50.82 17.33Z" fill="white"/>
</svg>
