<svg width="16" height="12" viewBox="0 0 16 12" fill="none" xmlns="http://www.w3.org/2000/svg">
<path d="M14.851 4.84615H13.7063V2.69231C13.7063 2.05529 13.1925 1.53846 12.5592 1.53846H6.50021L4.97075 0H1.1471C0.513804 0 0 0.516827 0 1.15385V10.8462C0 11.4832 0.513804 12 1.1471 12H12.9415C13.3358 12 13.7039 11.7957 13.9142 11.4567L15.8236 6.61058C16.3016 5.84375 15.7519 4.84615 14.851 4.84615ZM1.1471 1.29808C1.1471 1.21875 1.21162 1.15385 1.29048 1.15385H4.49518L6.02465 2.69231H12.4158C12.4946 2.69231 12.5592 2.75721 12.5592 2.83654V4.84615H3.63247C3.23099 4.84615 2.85818 5.05769 2.65027 5.40385L1.1471 9.67789V1.29808ZM12.9415 10.8462H1.72064L3.56556 6H14.8534L12.9415 10.8462Z" fill="#2EB964"/>
</svg>
