<svg width="18" height="20" viewBox="0 0 18 20" fill="none" xmlns="http://www.w3.org/2000/svg">
<path d="M17.654 13.8596C16.8778 13.0081 15.4253 12.7271 15.4253 8.53125C15.4253 5.34434 13.2364 2.79316 10.2849 2.16727V1.3125C10.2849 0.587754 9.70955 0 9 0C8.29045 0 7.71509 0.587754 7.71509 1.3125V2.16727C4.76358 2.79316 2.57466 5.34434 2.57466 8.53125C2.57466 12.7271 1.12221 13.0081 0.345964 13.8596C0.104894 14.1241 -0.00198114 14.4403 2.77789e-05 14.75C0.00444741 15.4227 0.521544 16.0625 1.28976 16.0625H16.7102C17.4785 16.0625 17.996 15.4227 18 14.75C18.002 14.4403 17.8951 14.1237 17.654 13.8596ZM2.71328 14.0938C3.56587 12.9465 4.498 12.0451 4.50242 8.55504C4.50242 8.54684 4.50001 8.53945 4.50001 8.53125C4.50001 5.99402 6.51456 3.9375 9 3.9375C11.4854 3.9375 13.5 5.99402 13.5 8.53125C13.5 8.53945 13.4976 8.54684 13.4976 8.55504C13.502 12.0455 14.4341 12.947 15.2867 14.0938H2.71328ZM9 20C10.4191 20 11.5702 18.8249 11.5702 17.375H6.42978C6.42978 18.8249 7.5809 20 9 20Z" fill="#2EB964"/>
</svg>
