<svg width="18" height="20" viewBox="0 0 18 20" fill="none" xmlns="http://www.w3.org/2000/svg">
<path d="M12.1412 7.28916H10.5341C10.2689 7.28916 10.0519 7.07187 10.0519 6.80629V5.19672C10.0519 4.93115 10.2689 4.71386 10.5341 4.71386H12.1412C12.4064 4.71386 12.6234 4.93115 12.6234 5.19672V6.80629C12.6234 7.07187 12.4064 7.28916 12.1412 7.28916ZM7.46591 7.28916H5.85877C5.59359 7.28916 5.37662 7.07187 5.37662 6.80629V5.19672C5.37662 4.93115 5.59359 4.71386 5.85877 4.71386H7.46591C7.73109 4.71386 7.94805 4.93115 7.94805 5.19672V6.80629C7.94805 7.07187 7.73109 7.28916 7.46591 7.28916ZM10.0519 11.7536V10.144C10.0519 9.87844 10.2689 9.66114 10.5341 9.66114H12.1412C12.4064 9.66114 12.6234 9.87844 12.6234 10.144V11.7536C12.6234 12.0192 12.4064 12.2364 12.1412 12.2364H10.5341C10.2689 12.2364 10.0519 12.0192 10.0519 11.7536ZM7.46591 12.2364H5.85877C5.59359 12.2364 5.37662 12.0192 5.37662 11.7536V10.144C5.37662 9.87844 5.59359 9.66114 5.85877 9.66114H7.46591C7.73109 9.66114 7.94805 9.87844 7.94805 10.144V11.7536C7.94805 12.0192 7.73109 12.2364 7.46591 12.2364ZM0 18.5514V20H18V18.5514C18 18.2858 17.783 18.0685 17.5179 18.0685H16.7344V0.965738C16.7344 0.430558 16.3045 0 15.7701 0H2.22991C1.69554 0 1.26562 0.430558 1.26562 0.965738V18.0685H0.482143C0.216965 18.0685 0 18.2858 0 18.5514ZM14.8058 18.0283H12.7347V15.3323C12.7347 15.0667 12.5177 14.8494 12.2526 14.8494H5.74745C5.48227 14.8494 5.26531 15.0667 5.26531 15.3323V18.0283H3.1942V1.97172L14.7857 1.93148L14.8058 18.0283Z" fill="#2EB964"/>
</svg>
