<svg width="14" height="12" viewBox="0 0 14 12" fill="none" xmlns="http://www.w3.org/2000/svg">
<path d="M0 10.2308C0 10.9315 0.522569 11.5 1.16667 11.5H12.8333C13.4774 11.5 14 10.9315 14 10.2308V5.57692H0V10.2308ZM4.66667 8.43269C4.66667 8.25817 4.79792 8.11538 4.95833 8.11538H8.26389C8.42431 8.11538 8.55556 8.25817 8.55556 8.43269V9.49039C8.55556 9.6649 8.42431 9.80769 8.26389 9.80769H4.95833C4.79792 9.80769 4.66667 9.6649 4.66667 9.49039V8.43269ZM1.55556 8.43269C1.55556 8.25817 1.68681 8.11538 1.84722 8.11538H3.59722C3.75764 8.11538 3.88889 8.25817 3.88889 8.43269V9.49039C3.88889 9.6649 3.75764 9.80769 3.59722 9.80769H1.84722C1.68681 9.80769 1.55556 9.6649 1.55556 9.49039V8.43269ZM14 1.76923V3.88462H0V1.76923C0 1.06851 0.522569 0.5 1.16667 0.5H12.8333C13.4774 0.5 14 1.06851 14 1.76923Z" fill="#2EB964"/>
</svg>
