<svg width="20" height="21" viewBox="0 0 20 21" fill="none" xmlns="http://www.w3.org/2000/svg">
<path d="M0.255455 13.0234L2.04982 11.9818C1.8687 10.9996 1.8687 9.99194 2.04982 9.00968L0.255455 7.96815C0.0490627 7.84961 -0.0436039 7.60404 0.0237904 7.37541C0.491335 5.86816 1.28742 4.50486 2.32782 3.37019C2.48787 3.1966 2.74903 3.15426 2.95121 3.27281L4.74557 4.31434C5.49954 3.66232 6.36723 3.1585 7.30654 2.82825V0.749432C7.30654 0.512336 7.47081 0.304877 7.70247 0.254071C9.24832 -0.0931051 10.8321 -0.0761697 12.3021 0.254071C12.5338 0.304877 12.698 0.512336 12.698 0.749432V2.83249C13.6331 3.16696 14.5008 3.67079 15.259 4.31857L17.0492 3.27704C17.2555 3.1585 17.5125 3.1966 17.6725 3.37442C18.7129 4.50486 19.509 5.86816 19.9766 7.37965C20.0482 7.60828 19.9513 7.85384 19.7449 7.97239L17.9505 9.01392C18.1317 9.99617 18.1317 11.0038 17.9505 11.9861L19.7449 13.0276C19.9513 13.1462 20.044 13.3917 19.9766 13.6203C19.509 15.1276 18.7129 16.4909 17.6725 17.6256C17.5125 17.7992 17.2513 17.8415 17.0492 17.723L15.2548 16.6814C14.5008 17.3334 13.6331 17.8373 12.6938 18.1675V20.2506C12.6938 20.4877 12.5296 20.6951 12.2979 20.7459C10.752 21.0931 9.16829 21.0762 7.69826 20.7459C7.4666 20.6951 7.30232 20.4877 7.30232 20.2506V18.1675C6.36723 17.833 5.49954 17.3292 4.74136 16.6814L2.947 17.723C2.7406 17.8415 2.48367 17.8034 2.3236 17.6256C1.28321 16.4951 0.487122 15.1318 0.019577 13.6203C-0.0436039 13.3875 0.0490627 13.1419 0.255455 13.0234ZM10.0023 13.8828C11.8598 13.8828 13.372 12.3629 13.372 10.4958C13.372 8.62864 11.8598 7.10868 10.0023 7.10868C8.14475 7.10868 6.6326 8.62864 6.6326 10.4958C6.6326 12.3629 8.14475 13.8828 10.0023 13.8828Z" fill="#2EB964"/>
</svg>
