<svg width="16" height="14" viewBox="0 0 16 14" fill="none" xmlns="http://www.w3.org/2000/svg">
<path d="M14.7647 0H1.23529C0.553309 0 0 0.572485 0 1.27811V12.7219C0 13.4275 0.553309 14 1.23529 14H14.7647C15.4467 14 16 13.4275 16 12.7219V1.27811C16 0.572485 15.4467 0 14.7647 0ZM14.7647 12.5621C14.7647 12.65 14.6952 12.7219 14.6103 12.7219H1.38971C1.30478 12.7219 1.23529 12.65 1.23529 12.5621V4.40828H14.7647V12.5621Z" fill="#2EB964"/>
<path d="M7.03574 11.1457L4.78618 8.83346C4.67912 8.72001 4.67912 8.53607 4.78618 8.42261L5.17388 8.01176C5.28094 7.8983 5.45454 7.8983 5.5616 8.01176L7.2296 9.70769L10.4384 6.70047C10.5455 6.58702 10.7191 6.58702 10.8261 6.70047L11.2138 7.11132C11.3209 7.22477 11.3209 7.40872 11.2138 7.52217L7.42346 11.1457C7.31639 11.2591 7.1428 11.2591 7.03574 11.1457Z" fill="#2EB964"/>
</svg>
