<svg width="16" height="14" viewBox="0 0 16 14" fill="none" xmlns="http://www.w3.org/2000/svg">
<path d="M13.4891 8.22707L14.2792 7.47718C14.4027 7.36001 14.6175 7.44203 14.6175 7.61076V12.8752C14.6175 13.4962 14.0866 14 13.4323 14H1.18521C0.530876 14 0 13.4962 0 12.8752V1.62642C0 1.00542 0.530876 0.501587 1.18521 0.501587H10.7162C10.8915 0.501587 10.9804 0.70312 10.857 0.822634L10.0668 1.57252C10.0298 1.60767 9.9804 1.62642 9.92608 1.62642H1.18521V12.8752H13.4323V8.3583C13.4323 8.30909 13.4521 8.26223 13.4891 8.22707ZM15.5781 4.35522L9.09398 10.509L6.86184 10.7433C6.21491 10.8113 5.66428 10.2934 5.73589 9.67476L5.98281 7.55632L12.4669 1.40253C13.0323 0.865889 13.9459 0.865889 14.5089 1.40253L15.5756 2.41488C16.1411 2.95152 16.1411 3.82092 15.5781 4.35522ZM13.1385 5.07933L11.7039 3.71782L7.11617 8.07421L6.93591 9.60445L8.54829 9.43338L13.1385 5.07933ZM14.7386 3.21164L13.6719 2.19929C13.5706 2.10321 13.4052 2.10321 13.3064 2.19929L12.5434 2.9234L13.978 4.28492L14.741 3.56081C14.8398 3.46238 14.8398 3.30772 14.7386 3.21164Z" fill="#2EB964"/>
</svg>
