<svg width="18" height="12" viewBox="0 0 18 12" fill="none" xmlns="http://www.w3.org/2000/svg">
<path d="M5.4 6C7.14094 6 8.55 4.65804 8.55 3C8.55 1.34196 7.14094 0 5.4 0C3.65906 0 2.25 1.34196 2.25 3C2.25 4.65804 3.65906 6 5.4 6ZM7.56 6.85714H7.32656C6.74156 7.125 6.09188 7.28571 5.4 7.28571C4.70813 7.28571 4.06125 7.125 3.47344 6.85714H3.24C1.45125 6.85714 0 8.23929 0 9.94286V10.7143C0 11.4241 0.604688 12 1.35 12H9.45C10.1953 12 10.8 11.4241 10.8 10.7143V9.94286C10.8 8.23929 9.34875 6.85714 7.56 6.85714ZM13.5 6C14.9906 6 16.2 4.84821 16.2 3.42857C16.2 2.00893 14.9906 0.857143 13.5 0.857143C12.0094 0.857143 10.8 2.00893 10.8 3.42857C10.8 4.84821 12.0094 6 13.5 6ZM14.85 6.85714H14.7431C14.3522 6.98571 13.9388 7.07143 13.5 7.07143C13.0613 7.07143 12.6478 6.98571 12.2569 6.85714H12.15C11.5763 6.85714 11.0475 7.01518 10.5834 7.26964C11.2697 7.97411 11.7 8.90893 11.7 9.94286V10.9714C11.7 11.0304 11.6859 11.0866 11.6831 11.1429H16.65C17.3953 11.1429 18 10.567 18 9.85714C18 8.19911 16.5909 6.85714 14.85 6.85714Z" fill="#2EB964"/>
</svg>
