<svg width="18" height="12" viewBox="0 0 18 12" fill="none" xmlns="http://www.w3.org/2000/svg">
<path d="M16.7181 8.28399C16.7872 7.90623 16.7872 7.52043 16.7181 7.14267L17.4035 6.74347C17.4832 6.69792 17.5177 6.60415 17.4912 6.51574C17.3132 5.93704 17.0077 5.41192 16.6092 4.9779C16.5481 4.91092 16.4498 4.89484 16.3701 4.94039L15.6847 5.33958C15.3952 5.09042 15.0631 4.89752 14.7045 4.76892V3.97053C14.7045 3.87944 14.6407 3.79906 14.553 3.78031C13.9606 3.64635 13.3576 3.65171 12.7944 3.78031C12.7068 3.79906 12.643 3.87944 12.643 3.97053V4.76892C12.2844 4.89752 11.9523 5.09042 11.6627 5.33958L10.9774 4.94039C10.9003 4.89484 10.7994 4.91092 10.7383 4.9779C10.3398 5.41192 10.0343 5.93704 9.8563 6.51574C9.82973 6.60415 9.86693 6.69792 9.94396 6.74347L10.6293 7.14267C10.5603 7.52043 10.5603 7.90623 10.6293 8.28399L9.94396 8.68319C9.86427 8.72873 9.82973 8.82251 9.8563 8.91092C10.0343 9.48962 10.3398 10.0121 10.7383 10.4488C10.7994 10.5157 10.8977 10.5318 10.9774 10.4863L11.6627 10.0871C11.9523 10.3362 12.2844 10.5291 12.643 10.6577V11.4561C12.643 11.5472 12.7068 11.6276 12.7944 11.6463C13.3868 11.7803 13.9899 11.775 14.553 11.6463C14.6407 11.6276 14.7045 11.5472 14.7045 11.4561V10.6577C15.0631 10.5291 15.3952 10.3362 15.6847 10.0871L16.3701 10.4863C16.4472 10.5318 16.5481 10.5157 16.6092 10.4488C17.0077 10.0147 17.3132 9.48962 17.4912 8.91092C17.5177 8.82251 17.4805 8.72873 17.4035 8.68319L16.7181 8.28399ZM13.6764 9.01273C12.9644 9.01273 12.388 8.42867 12.388 7.71333C12.388 6.99799 12.9671 6.41393 13.6764 6.41393C14.3857 6.41393 14.9648 6.99799 14.9648 7.71333C14.9648 8.42867 14.3883 9.01273 13.6764 9.01273ZM3.05027 5.14133C3.98802 5.14133 4.75045 4.3724 4.75045 3.42666C4.75045 2.48091 3.98802 1.71199 3.05027 1.71199C2.11251 1.71199 1.35009 2.48091 1.35009 3.42666C1.35009 4.3724 2.11251 5.14133 3.05027 5.14133ZM9.0009 5.99866C9.05137 5.99866 9.09919 5.98526 9.14966 5.98259C9.37015 5.40121 9.69425 4.85466 10.114 4.39652C10.3106 4.18218 10.5895 4.05894 10.8817 4.05894C11.065 4.05894 11.2457 4.10717 11.4024 4.20094L11.6123 4.32418C11.6335 4.31078 11.6548 4.30007 11.676 4.28667C11.862 3.89551 11.9736 3.46149 11.9736 3.00067C11.9736 1.34226 10.6426 0 8.99824 0C7.35385 0 6.02558 1.33958 6.02558 2.99799C6.02558 4.6564 7.3565 5.99866 9.0009 5.99866ZM11.7956 11.2096C11.7345 11.1775 11.6734 11.14 11.6149 11.1052C11.3971 11.2338 11.2085 11.3677 10.8844 11.3677C10.5948 11.3677 10.3159 11.2445 10.1166 11.0301C9.63049 10.4997 9.25858 9.85399 9.04871 9.16544C8.76447 8.24113 9.71019 7.83389 9.7341 7.81782C9.73144 7.74816 9.73144 7.6785 9.7341 7.60884L9.52423 7.4856C9.42329 7.42666 9.33828 7.35164 9.26389 7.26859C9.17623 7.27394 9.09122 7.28466 9.00355 7.28466C8.35005 7.28466 7.73905 7.12391 7.18383 6.85599H6.96334C5.27113 6.85599 3.90036 8.23845 3.90036 9.9424V10.714C3.90036 11.424 4.47151 12 5.17549 12H11.9603C11.862 11.8392 11.7956 11.6571 11.7956 11.4561V11.2096ZM5.09845 6.49699C4.7903 6.18888 4.36791 5.99866 3.90036 5.99866H2.20018C1.26242 5.99866 0.5 6.76758 0.5 7.71333V8.57066C0.5 9.04488 0.879884 9.428 1.35009 9.428H3.10074C3.2681 8.15807 4.02787 7.08908 5.09845 6.49699Z" fill="#2EB964"/>
</svg>
