<svg width="16" height="14" viewBox="0 0 16 14" fill="none" xmlns="http://www.w3.org/2000/svg">
<path d="M15.7917 7.97113L8.80087 0.261652C8.6511 0.0962581 8.4425 0.000222878 8.21786 0.000222878C8.00391 -0.0051124 7.77926 0.0855874 7.6295 0.245646L0.221513 7.95513C-0.0833638 8.27524 -0.0726664 8.7821 0.248257 9.08621C0.56918 9.39032 1.07731 9.37965 1.38219 9.05953L2.66588 7.72038V13.1997C2.66588 13.6425 3.02424 14 3.46819 14H12.5289C12.9729 14 13.3312 13.6425 13.3312 13.1997V7.64568L14.5989 9.04352C14.7593 9.21959 14.9733 9.30495 15.1926 9.30495C15.3851 9.30495 15.5777 9.23559 15.7328 9.09688C16.0644 8.80344 16.0912 8.29659 15.7917 7.97113ZM11.732 5.99174V12.4048H4.2705V6.05577L8.19111 1.97428L11.7427 5.89037C11.7373 5.92239 11.732 5.9544 11.732 5.99174Z" fill="#2EB964"/>
</svg>
