<svg width="99" height="14" viewBox="0 0 99 14" fill="none" xmlns="http://www.w3.org/2000/svg">
<path d="M8.53061 5.77982H2.72316V0.17784H0V13.8222H2.72316V8.20042H8.53061V13.8222H11.2538V0.17784H8.53061V5.77982ZM20.4871 0.17784L15.0603 13.8222H17.9982L18.9548 11.2435H25.0745L26.0311 13.8222H28.969L23.5422 0.17784H20.4871ZM19.7844 8.98095L22.0195 2.96401L24.2351 8.98095H19.7844ZM42.3798 4.24841C42.3798 1.976 40.6131 0.17784 38.378 0.17784H32.7853V13.8222H35.5084V8.03246H36.8456L39.803 13.8123H42.8483L39.5688 7.84474C41.2085 7.42978 42.3798 6.05646 42.3798 4.24841ZM38.2706 5.90826H35.5084V2.55893H38.2706C39.1881 2.55893 39.9104 3.29005 39.9104 4.22865C39.9104 5.17713 39.2076 5.90826 38.2706 5.90826ZM52.4428 10.6309L48.5288 0.17784H45.4836L50.9104 13.8222H53.9556L59.3824 0.17784H56.3372L52.4428 10.6309ZM63.2183 13.8222H71.2511V11.4213H65.9414V8.20042H70.4898V5.79958H65.9414V2.55893H71.2414V0.17784H63.2085V13.8222H63.2183ZM81.2848 5.60198C79.9086 5.05857 78.7374 4.58433 78.7374 3.65561C78.7374 2.81581 79.4987 2.29217 80.5821 2.29217C81.9193 2.29217 82.8758 2.76641 83.7054 3.71489L85.4721 1.98589C84.3691 0.800282 82.6415 0 80.5138 0C77.9175 0 75.9459 1.47212 75.9459 3.76429C75.9459 5.96754 77.898 6.79746 79.7329 7.52858C81.3239 8.15102 82.8172 8.71419 82.8172 9.97883C82.7977 11.036 81.8802 11.451 80.6504 11.451C79.1375 11.451 77.8687 10.7989 77.0976 9.59351L75.2236 11.4707C76.3558 12.9824 78.3762 14 80.5626 14C83.3248 14 85.5794 12.7057 85.5794 9.94919C85.5794 7.31122 83.2369 6.3825 81.2848 5.60198ZM89.3665 0.17784V2.55893H92.8509V13.8123H95.5351V2.55893H99V0.17784H89.3665Z" fill="#2EB964"/>
</svg>
