<svg width="26" height="30" viewBox="0 0 26 30" fill="none" xmlns="http://www.w3.org/2000/svg">
<path d="M25.3361 7.00734L13.667 0.183663C13.257 -0.0612211 12.7429 -0.0612211 12.3329 0.183663L0.663827 7.00734C0.253816 7.25222 0 7.69566 0 8.17881V21.8262C0 22.3093 0.253816 22.7527 0.663827 22.9976L12.3329 29.8213C12.5411 29.9404 12.7689 30 13.0032 30C13.231 30 13.4653 29.9404 13.667 29.8213L25.3361 22.9976C25.7461 22.7594 25.9999 22.3093 25.9999 21.8262V8.17219C26.0064 7.68904 25.7461 7.2456 25.3361 7.00734ZM23.3316 8.95317V14.2877L19.8692 11.1174C19.9994 10.9122 20.0775 10.6674 20.0775 10.4026C20.0775 10.2835 20.058 10.1644 20.0254 10.0518L22.9411 8.72814L23.3316 8.95317ZM19.5699 18.9339C19.4788 18.8611 19.3746 18.7949 19.264 18.7486V11.6337C19.4072 11.5741 19.5308 11.4881 19.6415 11.3888L23.3316 14.7708V14.9363L19.5699 18.9339ZM19.8953 9.72092C19.6675 9.33043 19.251 9.07231 18.7694 9.07231C18.6132 9.07231 18.457 9.1054 18.3203 9.15835L15.6195 4.44598L22.5701 8.50973L19.8953 9.72092ZM18.7694 21.3165C19.3291 21.3165 19.8042 20.9657 19.9929 20.4627L23.0127 21.2305L15.7756 25.4663L18.3594 21.2437C18.4895 21.2834 18.6262 21.3165 18.7694 21.3165ZM20.071 20.112C20.0775 20.0656 20.084 20.0259 20.084 19.9796C20.084 19.6818 19.9864 19.4104 19.8172 19.1854L23.3316 15.4525V20.9327L20.071 20.112ZM15.4437 11.3954V4.86294L18.0014 9.32381C17.6695 9.5687 17.4482 9.95919 17.4482 10.4026C17.4482 10.9851 17.8192 11.4682 18.3268 11.6535V14.3737H7.38019V11.5741C7.7902 11.3491 8.07656 10.9122 8.07656 10.4092C8.07656 9.98566 7.87481 9.60841 7.56893 9.36352L10.3869 4.45259L10.5561 4.35332V11.3954H15.4437ZM2.87658 8.83404L5.50586 10.0254C5.47332 10.1445 5.44728 10.2703 5.44728 10.396C5.44728 10.674 5.53189 10.9321 5.67507 11.1505L2.66832 13.9104V8.95317L2.87658 8.83404ZM5.99397 18.9074L2.66832 15.3797V14.4002L5.91587 11.4219C6.06555 11.5542 6.24778 11.6469 6.44953 11.6999V18.7022C6.28032 18.7353 6.12413 18.8081 5.99397 18.9074ZM6.76192 9.07231C6.29334 9.07231 5.88333 9.32381 5.64904 9.70106L3.25405 8.61563L9.76867 4.80338L7.26305 9.17158C7.10685 9.1054 6.93764 9.07231 6.76192 9.07231ZM5.73364 19.1589C5.55141 19.3839 5.44078 19.6685 5.44078 19.9862C5.44078 20.0325 5.44728 20.0855 5.45379 20.1318L2.66182 20.84V15.896L5.73364 19.1589ZM2.86357 21.1577L5.5384 20.4826C5.73364 20.9724 6.20222 21.3231 6.75541 21.3231C6.93764 21.3231 7.10685 21.2834 7.26305 21.2173L10.1852 25.4465L2.86357 21.1577ZM10.5561 18.6029V25.3406L7.57543 21.0253C7.88132 20.7804 8.07656 20.4098 8.07656 19.9862C8.07656 19.4766 7.79671 19.0464 7.38019 18.8214V15.3202H18.3333V18.7419C17.8257 18.9272 17.4547 19.4104 17.4547 19.9928C17.4547 20.4561 17.6825 20.8599 18.034 21.0981L15.4437 25.3207V18.6029H10.5561Z" fill="#2EB964"/>
</svg>
