<svg width="20" height="16" viewBox="0 0 20 16" fill="none" xmlns="http://www.w3.org/2000/svg">
<path d="M19.5645 5.21053C19.804 5.21053 20 5.00625 20 4.75658V3.24342C20 2.99375 19.804 2.78947 19.5645 2.78947H18.3508V1.81579C18.3508 0.813322 17.5704 0 16.6086 0H1.74216C0.780343 0 0 0.813322 0 1.81579V14.1842C0 15.1867 0.780343 16 1.74216 16H16.6086C17.5704 16 18.3508 15.1867 18.3508 14.1842V13.2105H19.5645C19.804 13.2105 20 13.0063 20 12.7566V11.2434C20 10.9938 19.804 10.7895 19.5645 10.7895H18.3508V9.21053H19.5645C19.804 9.21053 20 9.00625 20 8.75658V7.24342C20 6.99375 19.804 6.78947 19.5645 6.78947H18.3508V5.21053H19.5645ZM16.6086 14.1842H1.74216V1.81579H16.6086V14.1842ZM9.17538 8C10.4566 8 11.4983 6.91431 11.4983 5.57895C11.4983 4.24359 10.4566 3.15789 9.17538 3.15789C7.89416 3.15789 6.8525 4.24359 6.8525 5.57895C6.8525 6.91431 7.89416 8 9.17538 8ZM5.92335 12.8421H12.4274C12.8775 12.8421 13.2404 12.5168 13.2404 12.1158V11.3895C13.2404 10.1865 12.1479 9.21053 10.8014 9.21053C10.4094 9.21053 10.1227 9.51316 9.17538 9.51316C8.19904 9.51316 7.96312 9.21053 7.54936 9.21053C6.20282 9.21053 5.11034 10.1865 5.11034 11.3895V12.1158C5.11034 12.5168 5.47329 12.8421 5.92335 12.8421Z" fill="#2EB964"/>
</svg>
