<svg width="20" height="15" viewBox="0 0 20 15" fill="none" xmlns="http://www.w3.org/2000/svg">
<path d="M3 6C4.10313 6 5 5.10313 5 4C5 2.89687 4.10313 2 3 2C1.89688 2 1 2.89687 1 4C1 5.10313 1.89688 6 3 6ZM17 6C18.1031 6 19 5.10313 19 4C19 2.89687 18.1031 2 17 2C15.8969 2 15 2.89687 15 4C15 5.10313 15.8969 6 17 6ZM18 7H16C15.45 7 14.9531 7.22188 14.5906 7.58125C15.85 8.27188 16.7437 10.5188 16.9375 12H19C19.5531 12 20 11.5531 20 11V10C20 8 19.1031 7 18 7ZM10 7C11.9344 7 13.5 5.43437 13.5 3.5C13.5 1.56562 11.9344 0 10 0C8.06563 0 6.5 1.56562 6.5 3.5C6.5 5.43437 8.06563 7 10 7ZM12.4 8H12.1406C11.4906 8.3125 10.7688 8.5 10 8.5C9.23125 8.5 8.5125 8.3125 7.85938 8H7.6C5.6125 8 5 9.5 4 12.6V13.5C4 14.3281 4.67188 15 5.5 15H14.5C15.3281 15 16 14.3281 16 13.5V12.6C15 9.5 14.3875 8 12.4 8ZM5.40938 7.58125C5.04688 7.22188 4.55 7 4 7H2C0.896875 7 0 8 0 10V11C0 11.5531 0.446875 12 1 12H3.05938C3.25625 10.5188 4.15 8.27188 5.40938 7.58125Z" fill="#2EB964"/>
</svg>
