<svg width="17" height="16" viewBox="0 0 17 16" fill="none" xmlns="http://www.w3.org/2000/svg">
<path d="M6.4509 6.9691C8.35546 6.9691 9.89904 5.40922 9.89904 3.48455C9.89904 1.55988 8.35546 0 6.4509 0C4.54634 0 3.00276 1.55988 3.00276 3.48455C3.00276 5.40922 4.54634 6.9691 6.4509 6.9691ZM8.8646 7.84024H8.41472C7.81668 8.11791 7.1513 8.2758 6.4509 8.2758C5.75049 8.2758 5.08781 8.11791 4.48708 7.84024H4.0372C2.03836 7.84024 0.416656 9.47906 0.416656 11.499V12.6315C0.416656 13.3529 0.995836 13.9382 1.70971 13.9382H8.97567C8.97567 13.9382 8.98105 12.0454 8.98105 11.618C8.98105 11.1906 9.3097 10.8013 9.76766 10.8013C10.341 10.8013 11.5575 10.8013 11.5575 10.8013L11.5558 9.31769C10.9405 8.38806 9.93944 7.84024 8.8646 7.84024Z" fill="#2EB964"/>
<path d="M16.6071 13.1269V12.306C16.6071 12.1367 16.4693 11.9981 16.3009 11.9981H14.0556V9.74067C14.0556 9.57136 13.9178 9.43284 13.7494 9.43284H12.9329C12.7645 9.43284 12.6267 9.57136 12.6267 9.74067V11.9981H10.3813C10.2129 11.9981 10.0751 12.1367 10.0751 12.306V13.1269C10.0751 13.2962 10.2129 13.4347 10.3813 13.4347H12.6267V15.6922C12.6267 15.8615 12.7645 16 12.9329 16H13.7494C13.9178 16 14.0556 15.8615 14.0556 15.6922V13.4347H16.3009C16.4693 13.4347 16.6071 13.2962 16.6071 13.1269Z" fill="#2EB964"/>
</svg>
