<svg width="12" height="16" viewBox="0 0 12 16" fill="none" xmlns="http://www.w3.org/2000/svg">
<path d="M3.03503 11.3322C2.76347 11.0607 2.90503 11.1372 2.25004 10.9619C1.95285 10.8822 1.69161 10.7291 1.45536 10.5457L0.0375614 14.0218C-0.0996247 14.3584 0.156623 14.724 0.519744 14.7103L2.16629 14.6475L3.29878 15.8437C3.54878 16.1074 3.98752 16.0252 4.12471 15.6887L5.75125 11.7006C5.41251 11.8894 5.03657 12 4.64783 12C4.03846 12 3.46596 11.7628 3.03503 11.3322ZM11.9624 14.0218L10.5446 10.5457C10.3084 10.7294 10.0471 10.8822 9.74996 10.9619C9.09153 11.1382 9.2359 11.0613 8.96497 11.3322C8.53404 11.7628 7.96123 12 7.35186 12C6.96311 12 6.58718 11.8891 6.24844 11.7006L7.87498 15.6887C8.01217 16.0252 8.45123 16.1074 8.70091 15.8437L9.83371 14.6475L11.4803 14.7103C11.8434 14.724 12.0996 14.3581 11.9624 14.0218ZM8.21873 10.625C8.69622 10.1391 8.75091 10.181 9.4309 9.99568C9.86496 9.87724 10.2043 9.53194 10.3206 9.09007C10.5543 8.20259 10.4937 8.30977 11.1315 7.66041C11.4493 7.33698 11.5734 6.86543 11.4571 6.42356C11.2237 5.5367 11.2234 5.66045 11.4571 4.77266C11.5734 4.33079 11.4493 3.85924 11.1315 3.53581C10.4937 2.88644 10.5543 2.99332 10.3206 2.10615C10.2043 1.66428 9.86496 1.31898 9.4309 1.20054C8.55966 0.962733 8.66466 1.02492 8.02623 0.375244C7.70842 0.0518134 7.24499 -0.0747465 6.81093 0.0436886C5.94 0.281184 6.06156 0.281496 5.18907 0.0436886C4.75501 -0.0747465 4.29158 0.051501 3.97377 0.375244C3.33597 1.02461 3.44096 0.962733 2.56941 1.20054C2.13535 1.31898 1.79598 1.66428 1.67973 2.10615C1.4463 2.99332 1.50661 2.88644 0.868803 3.53581C0.550994 3.85924 0.42662 4.33079 0.543181 4.77266C0.776616 5.65889 0.776929 5.53514 0.543181 6.42325C0.426932 6.86511 0.550994 7.33667 0.868803 7.66041C1.50661 8.30977 1.44598 8.20259 1.67973 9.09007C1.79598 9.53194 2.13535 9.87724 2.56941 9.99568C3.26878 10.1863 3.32097 10.1563 3.78127 10.625C4.19471 11.046 4.83876 11.1213 5.33563 10.8069C5.53432 10.6808 5.76481 10.6138 6.00016 10.6138C6.2355 10.6138 6.46599 10.6808 6.66468 10.8069C7.16124 11.1213 7.80529 11.046 8.21873 10.625ZM3.05191 5.49889C3.05191 3.84174 4.37189 2.49833 6 2.49833C7.62811 2.49833 8.9481 3.84174 8.9481 5.49889C8.9481 7.15605 7.62811 8.49946 6 8.49946C4.37189 8.49946 3.05191 7.15605 3.05191 5.49889Z" fill="#2EB964"/>
</svg>
