<svg width="16" height="14" viewBox="0 0 16 14" fill="none" xmlns="http://www.w3.org/2000/svg">
<path d="M14.5 0H1.5C0.671875 0 0 0.723558 0 1.61538V12.3846C0 13.2764 0.671875 14 1.5 14H14.5C15.3281 14 16 13.2764 16 12.3846V1.61538C16 0.723558 15.3281 0 14.5 0ZM14.5 12.1827C14.5 12.2938 14.4156 12.3846 14.3125 12.3846H1.6875C1.58438 12.3846 1.5 12.2938 1.5 12.1827V4.30769H14.5V12.1827Z" fill="#2EB964"/>
<path d="M9 6.05769V6.86539C9 7.08841 9.16791 7.26923 9.375 7.26923H12.625C12.8321 7.26923 13 7.08841 13 6.86539V6.05769C13 5.83467 12.8321 5.65385 12.625 5.65385H9.375C9.16791 5.65385 9 5.83467 9 6.05769Z" fill="#2EB964"/>
<path d="M9 8.48077V10.3654C9 10.5884 9.16791 10.7692 9.375 10.7692H12.625C12.8321 10.7692 13 10.5884 13 10.3654V8.48077C13 8.25775 12.8321 8.07692 12.625 8.07692H9.375C9.16791 8.07692 9 8.25775 9 8.48077Z" fill="#2EB964"/>
<path fill-rule="evenodd" clip-rule="evenodd" d="M3.375 10.7692H7.625C7.83209 10.7692 8 10.5884 8 10.3654V6.05769C8 5.83467 7.83209 5.65385 7.625 5.65385H3.375C3.16791 5.65385 3 5.83467 3 6.05769V10.3654C3 10.5884 3.16791 10.7692 3.375 10.7692ZM6.75 7H4.25V9.42308H6.75V7Z" fill="#2EB964"/>
</svg>
