<svg width="17" height="13" viewBox="0 0 17 13" fill="none" xmlns="http://www.w3.org/2000/svg">
<path d="M16.2917 0H3.30556C2.68995 0 2.16505 0.388172 1.97011 0.928571H0.708333C0.317127 0.928571 0 1.24037 0 1.625V11.375C0 12.2725 0.739972 13 1.65278 13H16.2917C16.6829 13 17 12.6882 17 12.3036V0.696429C17 0.311797 16.6829 0 16.2917 0ZM1.41667 11.375V2.32143H1.88889V11.375C1.88889 11.503 1.78296 11.6071 1.65278 11.6071C1.52259 11.6071 1.41667 11.503 1.41667 11.375ZM15.5833 11.6071H3.2885C3.29953 11.5313 3.30556 11.4538 3.30556 11.375V1.39286H15.5833V11.6071ZM10.263 9.40179V8.70536C10.263 8.51306 10.4215 8.35714 10.6171 8.35714H13.6866C13.8822 8.35714 14.0407 8.51306 14.0407 8.70536V9.40179C14.0407 9.59409 13.8822 9.75 13.6866 9.75H10.6171C10.4215 9.75 10.263 9.59409 10.263 9.40179ZM10.263 4.29464V3.59821C10.263 3.40591 10.4215 3.25 10.6171 3.25H13.6866C13.8822 3.25 14.0407 3.40591 14.0407 3.59821V4.29464C14.0407 4.48694 13.8822 4.64286 13.6866 4.64286H10.6171C10.4215 4.64286 10.263 4.48694 10.263 4.29464ZM10.263 6.84821V6.15179C10.263 5.95948 10.4215 5.80357 10.6171 5.80357H13.6866C13.8822 5.80357 14.0407 5.95948 14.0407 6.15179V6.84821C14.0407 7.04052 13.8822 7.19643 13.6866 7.19643H10.6171C10.4215 7.19643 10.263 7.04052 10.263 6.84821Z" fill="#2EB964"/>
<path d="M4.9426 8.70536V9.40179C4.9426 9.59409 5.10118 9.75 5.29677 9.75H8.36621C8.5618 9.75 8.72038 9.59409 8.72038 9.40179V8.70536C8.72038 8.51306 8.5618 8.35714 8.36621 8.35714H5.29677C5.10118 8.35714 4.9426 8.51306 4.9426 8.70536Z" fill="#2EB964"/>
<path d="M4.9426 3.59821V4.29464C4.9426 4.48694 5.10118 4.64286 5.29677 4.64286H8.36621C8.5618 4.64286 8.72038 4.48694 8.72038 4.29464V3.59821C8.72038 3.40591 8.5618 3.25 8.36621 3.25H5.29677C5.10118 3.25 4.9426 3.40591 4.9426 3.59821Z" fill="#2EB964"/>
<path d="M4.9426 6.15179V6.84821C4.9426 7.04052 5.10118 7.19643 5.29677 7.19643H8.36621C8.5618 7.19643 8.72038 7.04052 8.72038 6.84821V6.15179C8.72038 5.95948 8.5618 5.80357 8.36621 5.80357H5.29677C5.10118 5.80357 4.9426 5.95948 4.9426 6.15179Z" fill="#2EB964"/>
</svg>
