<svg width="17" height="14" viewBox="0 0 17 14" fill="none" xmlns="http://www.w3.org/2000/svg">
<path d="M16.2181 10.2074C16.2872 9.82187 16.2872 9.42813 16.2181 9.04258L16.9035 8.63516C16.9832 8.58867 17.0177 8.49297 16.9912 8.40273C16.8132 7.81211 16.5077 7.27617 16.1092 6.8332C16.0481 6.76484 15.9498 6.74844 15.8701 6.79492L15.1847 7.20234C14.8952 6.94805 14.5631 6.75117 14.2045 6.61992V5.80508C14.2045 5.71211 14.1407 5.63008 14.053 5.61094C13.4606 5.47422 12.8576 5.47969 12.2944 5.61094C12.2068 5.63008 12.143 5.71211 12.143 5.80508V6.61992C11.7844 6.75117 11.4523 6.94805 11.1627 7.20234L10.4774 6.79492C10.4003 6.74844 10.2994 6.76484 10.2383 6.8332C9.83979 7.27617 9.53429 7.81211 9.3563 8.40273C9.32973 8.49297 9.36693 8.58867 9.44396 8.63516L10.1293 9.04258C10.0603 9.42813 10.0603 9.82187 10.1293 10.2074L9.44396 10.6148C9.36427 10.6613 9.32973 10.757 9.3563 10.8473C9.53429 11.4379 9.83979 11.9711 10.2383 12.4168C10.2994 12.4852 10.3977 12.5016 10.4774 12.4551L11.1627 12.0477C11.4523 12.302 11.7844 12.4988 12.143 12.6301V13.4449C12.143 13.5379 12.2068 13.6199 12.2944 13.6391C12.8868 13.7758 13.4899 13.7703 14.053 13.6391C14.1407 13.6199 14.2045 13.5379 14.2045 13.4449V12.6301C14.5631 12.4988 14.8952 12.302 15.1847 12.0477L15.8701 12.4551C15.9472 12.5016 16.0481 12.4852 16.1092 12.4168C16.5077 11.9738 16.8132 11.4379 16.9912 10.8473C17.0177 10.757 16.9805 10.6613 16.9035 10.6148L16.2181 10.2074ZM13.1764 10.9512C12.4644 10.9512 11.888 10.3551 11.888 9.625C11.888 8.89492 12.4671 8.29883 13.1764 8.29883C13.8857 8.29883 14.4648 8.89492 14.4648 9.625C14.4648 10.3551 13.8883 10.9512 13.1764 10.9512ZM5.95063 7C7.82879 7 9.35099 5.4332 9.35099 3.5C9.35099 1.5668 7.82879 0 5.95063 0C4.07246 0 2.55027 1.5668 2.55027 3.5C2.55027 5.4332 4.07246 7 5.95063 7ZM11.2956 13.1934C11.2345 13.1605 11.1734 13.1223 11.1149 13.0867L10.9051 13.2125C10.7457 13.3055 10.565 13.3574 10.3844 13.3574C10.0948 13.3574 9.81588 13.2316 9.61664 13.0129C9.13049 12.4715 8.75858 11.8125 8.54871 11.1098C8.40261 10.6258 8.59919 10.1145 9.02423 9.86016L9.2341 9.73438C9.23144 9.66328 9.23144 9.59219 9.2341 9.52109L9.02423 9.39531C8.59919 9.14375 8.40261 8.62969 8.54871 8.1457C8.57262 8.06641 8.60716 7.98711 8.63372 7.90781C8.53277 7.89961 8.43448 7.875 8.33088 7.875H7.88724C7.29749 8.15391 6.64133 8.3125 5.95063 8.3125C5.25993 8.3125 4.60642 8.15391 4.01402 7.875H3.57038C1.59923 7.875 0 9.52109 0 11.55V12.6875C0 13.4121 0.571154 14 1.27513 14H10.6261C10.8944 14 11.1441 13.9125 11.3487 13.7676C11.3168 13.6637 11.2956 13.557 11.2956 13.4449V13.1934Z" fill="#2EB964"/>
</svg>
