<svg width="10" height="10" viewBox="0 0 10 10" fill="none" xmlns="http://www.w3.org/2000/svg">
<path d="M8.75 0H1.25C0.560547 0 0 0.560547 0 1.25V6.875C0 7.56445 0.560547 8.125 1.25 8.125H3.125V9.76562C3.125 9.9043 3.23828 10 3.35938 10C3.40625 10 3.45508 9.98633 3.49805 9.95312L5.9375 8.125H8.75C9.43945 8.125 10 7.56445 10 6.875V1.25C10 0.560547 9.43945 0 8.75 0ZM9.0625 6.875C9.0625 7.04688 8.92188 7.1875 8.75 7.1875H5.625L5.375 7.375L4.0625 8.35938V7.1875H1.25C1.07812 7.1875 0.9375 7.04688 0.9375 6.875V1.25C0.9375 1.07812 1.07812 0.9375 1.25 0.9375H8.75C8.92188 0.9375 9.0625 1.07812 9.0625 1.25V6.875Z" fill="#B3B7B5"/>
</svg>
