<svg width="16" height="13" viewBox="0 0 16 13" fill="none" xmlns="http://www.w3.org/2000/svg">
<path d="M15.5 3.625V11.6607C15.5 12.4001 14.8701 13 14.0938 13H1.90625C1.12988 13 0.5 12.4001 0.5 11.6607V3.625C0.5 2.8856 1.12988 2.28571 1.90625 2.28571H4.48438L4.84473 1.36775C5.0498 0.845982 5.57422 0.5 6.16016 0.5H9.83691C10.4229 0.5 10.9473 0.845982 11.1523 1.36775L11.5156 2.28571H14.0938C14.8701 2.28571 15.5 2.8856 15.5 3.625ZM11.5156 7.64286C11.5156 5.79576 9.93945 4.29464 8 4.29464C6.06055 4.29464 4.48438 5.79576 4.48438 7.64286C4.48438 9.48995 6.06055 10.9911 8 10.9911C9.93945 10.9911 11.5156 9.48995 11.5156 7.64286ZM10.5781 7.64286C10.5781 8.99609 9.4209 10.0982 8 10.0982C6.5791 10.0982 5.42188 8.99609 5.42188 7.64286C5.42188 6.28962 6.5791 5.1875 8 5.1875C9.4209 5.1875 10.5781 6.28962 10.5781 7.64286Z" fill="#2EB964"/>
</svg>
