<svg width="16" height="16" viewBox="0 0 16 16" fill="none" xmlns="http://www.w3.org/2000/svg">
<path d="M5.96325 6.9691C7.8454 6.9691 9.37082 5.40922 9.37082 3.48455C9.37082 1.55988 7.8454 0 5.96325 0C4.0811 0 2.55568 1.55988 2.55568 3.48455C2.55568 5.40922 4.0811 6.9691 5.96325 6.9691ZM8.34855 7.84024H7.90397C7.31297 8.11791 6.65541 8.2758 5.96325 8.2758C5.27109 8.2758 4.6162 8.11791 4.02253 7.84024H3.57795C1.60262 7.84024 0 9.47906 0 11.499V12.6315C0 13.3529 0.572366 13.9382 1.27784 13.9382H8.45832C8.45832 13.9382 8.46364 12.0454 8.46364 11.618C8.46364 11.1906 8.78842 10.8013 9.24099 10.8013C9.8076 10.8013 11.0098 10.8013 11.0098 10.8013L11.0081 9.31769C10.4 8.38806 9.41076 7.84024 8.34855 7.84024Z" fill="#2EB964"/>
<path d="M16 13.1269V12.306C16 12.1367 15.8638 11.9981 15.6974 11.9981H13.4784V9.74067C13.4784 9.57136 13.3423 9.43284 13.1759 9.43284H12.369C12.2025 9.43284 12.0664 9.57136 12.0664 9.74067V11.9981H9.84741C9.68099 11.9981 9.54483 12.1367 9.54483 12.306V13.1269C9.54483 13.2962 9.68099 13.4347 9.84741 13.4347H12.0664V15.6922C12.0664 15.8615 12.2025 16 12.369 16H13.1759C13.3423 16 13.4784 15.8615 13.4784 15.6922V13.4347H15.6974C15.8638 13.4347 16 13.2962 16 13.1269Z" fill="#2EB964"/>
</svg>
