<svg width="14" height="14" viewBox="0 0 14 14" fill="none" xmlns="http://www.w3.org/2000/svg">
<path d="M1.3125 -1.10918e-06C0.587618 -1.17255e-06 9.02303e-07 0.587616 8.38932e-07 1.3125L1.50477e-07 9.1875C8.71063e-08 9.91238 0.587617 10.5 1.3125 10.5L9.1875 10.5C9.91238 10.5 10.5 9.91238 10.5 9.1875L10.5 1.3125C10.5 0.587617 9.91238 -3.57351e-07 9.1875 -4.20722e-07L1.3125 -1.10918e-06ZM9.1875 11.375C10.3937 11.375 11.375 10.3937 11.375 9.1875L11.375 3.5L12.6875 3.5C13.4124 3.5 14 4.08762 14 4.8125L14 12.6875C14 13.4124 13.4124 14 12.6875 14L4.8125 14C4.08762 14 3.5 13.4124 3.5 12.6875L3.5 11.375L9.1875 11.375Z" fill="white"/>
</svg>
