<svg width="10" height="10" viewBox="0 0 10 10" fill="none" xmlns="http://www.w3.org/2000/svg">
<path d="M0.555067 4.16667H4.16618V0.555556C4.16618 0.248785 4.41496 0 4.72173 0H5.27729C5.58406 0 5.83284 0.248785 5.83284 0.555556V4.16667H9.44396C9.75073 4.16667 9.99951 4.41545 9.99951 4.72222V5.27778C9.99951 5.58455 9.75073 5.83333 9.44396 5.83333H5.83284V9.44444C5.83284 9.75122 5.58406 10 5.27729 10H4.72173C4.41496 10 4.16618 9.75122 4.16618 9.44444V5.83333H0.555067C0.248296 5.83333 -0.000488281 5.58455 -0.000488281 5.27778V4.72222C-0.000488281 4.41545 0.248296 4.16667 0.555067 4.16667Z" fill="#909491"/>
</svg>
