<svg width="17" height="12" viewBox="0 0 17 12" fill="none" xmlns="http://www.w3.org/2000/svg">
<g clip-path="url(#clip0)">
<path d="M17 6V9C17 9.41484 16.6202 9.75 16.15 9.75H15.3V5.25H16.15C16.6202 5.25 17 5.58516 17 6ZM4.675 2.25H7.65V0.75C7.65 0.335156 8.02984 0 8.5 0C8.97016 0 9.35 0.335156 9.35 0.75V2.25H12.325C13.4991 2.25 14.45 3.08906 14.45 4.125V10.5C14.45 11.3273 13.6877 12 12.75 12H4.25C3.31234 12 2.55 11.3273 2.55 10.5V4.125C2.55 3.08906 3.50094 2.25 4.675 2.25ZM10.2 9.75H11.9V9H10.2V9.75ZM11.05 6.9375C11.637 6.9375 12.1125 6.51797 12.1125 6C12.1125 5.48203 11.637 5.0625 11.05 5.0625C10.463 5.0625 9.9875 5.48203 9.9875 6C9.9875 6.51797 10.463 6.9375 11.05 6.9375ZM7.65 9.75H9.35V9H7.65V9.75ZM5.1 9.75H6.8V9H5.1V9.75ZM5.95 6.9375C6.53703 6.9375 7.0125 6.51797 7.0125 6C7.0125 5.48203 6.53703 5.0625 5.95 5.0625C5.36297 5.0625 4.8875 5.48203 4.8875 6C4.8875 6.51797 5.36297 6.9375 5.95 6.9375ZM0.850001 5.25H1.7V9.75H0.850001C0.379844 9.75 0 9.41484 0 9V6C0 5.58516 0.379844 5.25 0.850001 5.25Z" fill="#2EB964"/>
</g>
<defs>
<clipPath id="clip0">
<rect width="17" height="12" fill="white"/>
</clipPath>
</defs>
</svg>
