<svg width="12" height="12" viewBox="0 0 12 12" fill="none" xmlns="http://www.w3.org/2000/svg">
<path d="M10.875 0.193098L11.8068 1.12435C12.0644 1.38181 12.0644 1.79814 11.8013 2.0556L7.85804 5.99726L11.8068 9.9444C12.0644 10.2019 12.0644 10.6182 11.8068 10.8757L10.875 11.8069C10.6174 12.0644 10.2009 12.0644 9.94327 11.8069L6 7.86524L2.05673 11.8069C1.79912 12.0644 1.38257 12.0644 1.12497 11.8069L0.193204 10.8757C-0.0644011 10.6182 -0.0644011 10.2019 0.193204 9.9444L4.13648 6.00274L0.193204 2.06108C-0.0644012 1.80362 -0.0644012 1.38729 0.193204 1.12983L1.12497 0.198577C1.38257 -0.0588865 1.79912 -0.0588865 2.05673 0.198577L6 4.14024L9.94327 0.193098C10.2009 -0.0643654 10.6174 -0.0643654 10.875 0.193098Z" fill="#2EB964"/>
</svg>
