<svg width="16" height="15" viewBox="0 0 16 15" fill="none" xmlns="http://www.w3.org/2000/svg">
<path d="M15.7761 10.7072L12.8403 7.37265C12.7185 7.23436 12.5535 7.12097 12.36 7.04254C12.1665 6.96411 11.9504 6.92308 11.7309 6.92308L10.1793 8.26923H11.493L13.8634 10.9615H10.4444L9.55556 12.3077H6.44444L5.55556 10.9615H2.13661L4.507 8.26923H5.80678L4.26914 6.92308C4.04964 6.92308 3.83353 6.96411 3.64 7.04254C3.44647 7.12096 3.28151 7.23436 3.15975 7.37265L0.223944 10.7072C0.0779189 10.873 -3.21479e-06 11.0679 0 11.2672L0 13.9904C0 14.548 0.596945 15 1.33333 15H14.6667C15.4031 15 16 14.548 16 13.9904V11.2672C16 11.0679 15.9221 10.873 15.7761 10.7072Z" fill="#E9EAE9"/>
<path d="M6.70448 0.796784V3.82741H5.41293C4.66653 3.82741 4.28951 4.68601 4.81862 5.18762L7.40588 7.84356C7.73412 8.15471 8.26627 8.15471 8.59447 7.84356L11.1817 5.18762C11.708 4.6887 11.3382 3.82741 10.5875 3.82741H9.29591V0.796784C9.29591 0.356727 8.91963 -2.04851e-08 8.45545 0H7.54494C7.08076 2.04851e-08 6.70448 0.356727 6.70448 0.796784Z" fill="#E9EAE9"/>
</svg>
