<svg width="18" height="14" viewBox="0 0 18 14" fill="none" xmlns="http://www.w3.org/2000/svg">
<path d="M16.3125 0H1.6875C0.755508 0 0 0.731257 0 1.63333V12.3667C0 13.2687 0.755508 14 1.6875 14H16.3125C17.2445 14 18 13.2687 18 12.3667V1.63333C18 0.731257 17.2445 0 16.3125 0ZM16.3125 1.63333V3.02184C15.5242 3.64315 14.2675 4.60927 11.5809 6.64546C10.9889 7.09622 9.81605 8.17915 9 8.16653C8.18409 8.17929 7.01089 7.09605 6.41907 6.64546C3.73289 4.60957 2.47588 3.64325 1.6875 3.02184V1.63333H16.3125ZM1.6875 12.3667V5.11771C2.49307 5.73875 3.63547 6.61024 5.37673 7.92997C6.14514 8.51542 7.49081 9.80783 9 9.79996C10.5018 9.80783 11.8304 8.53417 12.623 7.93024C14.3642 6.61054 15.5069 5.73882 16.3125 5.11774V12.3667H1.6875Z" fill="#DFE1E0"/>
</svg>
