<svg width="12" height="12" viewBox="0 0 12 12" fill="none" xmlns="http://www.w3.org/2000/svg">
<path d="M12 6C12 9.31444 9.31348 12 6 12C2.68652 12 0 9.31444 0 6C0 2.68749 2.68652 0 6 0C9.31348 0 12 2.68749 12 6ZM6 7.95968C5.38536 7.95968 5.02772 8.31732 5.02772 8.93196C5.02772 9.54659 5.38536 9.90423 6 9.90423C6.61464 9.90423 6.97228 9.54659 6.97228 8.93196C6.97228 8.31732 6.61464 7.95968 6 7.95968ZM5.03714 2.27187L5.21661 6.76755C5.22501 6.92152 5.35231 7.04205 5.5065 7.04205H6.4935C6.64769 7.04205 6.77499 6.92152 6.78339 6.76755L6.96285 2.27187C6.97193 2.10556 6.83952 1.96573 6.67297 1.96573H5.32701C5.16046 1.96573 5.02807 2.10556 5.03714 2.27187Z" fill="#E7A82E"/>
</svg>
