<svg width="16" height="16" viewBox="0 0 16 16" fill="none" xmlns="http://www.w3.org/2000/svg">
<path d="M14 0H2C0.896875 0 0 0.896875 0 2V11C0 12.1031 0.896875 13 2 13H5V15.625C5 15.8469 5.18125 16 5.375 16C5.45 16 5.52813 15.9781 5.59688 15.925L9.5 13H14C15.1031 13 16 12.1031 16 11V2C16 0.896875 15.1031 0 14 0ZM14.5 11C14.5 11.275 14.275 11.5 14 11.5H9L8.6 11.8L6.5 13.375V11.5H2C1.725 11.5 1.5 11.275 1.5 11V2C1.5 1.725 1.725 1.5 2 1.5H14C14.275 1.5 14.5 1.725 14.5 2V11Z" fill="#2EB964"/>
<path d="M5.33333 6.5H7.5V4.33333C7.5 4.14927 7.64927 4 7.83333 4H8.16667C8.35073 4 8.5 4.14927 8.5 4.33333V6.5H10.6667C10.8507 6.5 11 6.64927 11 6.83333V7.16667C11 7.35073 10.8507 7.5 10.6667 7.5H8.5V9.66667C8.5 9.85073 8.35073 10 8.16667 10H7.83333C7.64927 10 7.5 9.85073 7.5 9.66667V7.5H5.33333C5.14927 7.5 5 7.35073 5 7.16667V6.83333C5 6.64927 5.14927 6.5 5.33333 6.5Z" fill="#2EB964"/>
</svg>
