<svg width="16" height="12" viewBox="0 0 16 12" fill="none" xmlns="http://www.w3.org/2000/svg">
<path d="M14.5 0H1.5C0.671562 0 0 0.626792 0 1.4V10.6C0 11.3732 0.671562 12 1.5 12H14.5C15.3284 12 16 11.3732 16 10.6V1.4C16 0.626792 15.3284 0 14.5 0ZM14.5 1.4V2.59015C13.7993 3.1227 12.6823 3.9508 10.2942 5.6961C9.76787 6.08248 8.72538 7.0107 8 6.99988C7.27475 7.01082 6.23191 6.08233 5.70584 5.6961C3.31813 3.95106 2.20078 3.12279 1.5 2.59015V1.4H14.5ZM1.5 10.6V4.38661C2.21606 4.91893 3.23153 5.66592 4.77931 6.79712C5.46234 7.29893 6.6585 8.40671 8 8.39997C9.33491 8.40671 10.5159 7.315 11.2204 6.79735C12.7682 5.66618 13.7839 4.91899 14.5 4.38664V10.6H1.5Z" fill="#B3B7B5"/>
</svg>
