<svg width="14" height="3" viewBox="0 0 14 3" fill="none" xmlns="http://www.w3.org/2000/svg">
<path d="M8.58064 1.5C8.58064 2.32917 7.87375 3 7 3C6.12625 3 5.41936 2.32917 5.41936 1.5C5.41936 0.670833 6.12625 0 7 0C7.87375 0 8.58064 0.670833 8.58064 1.5ZM12.4194 0C11.5456 0 10.8387 0.670833 10.8387 1.5C10.8387 2.32917 11.5456 3 12.4194 3C13.2931 3 14 2.32917 14 1.5C14 0.670833 13.2931 0 12.4194 0ZM1.58064 0C0.706899 0 0 0.670833 0 1.5C0 2.32917 0.706899 3 1.58064 3C2.45439 3 3.16129 2.32917 3.16129 1.5C3.16129 0.670833 2.45439 0 1.58064 0Z" fill="#B3B7B5"/>
</svg>
