<svg width="11" height="12" viewBox="0 0 11 12" fill="none" xmlns="http://www.w3.org/2000/svg">
<path d="M6.16295 5.80488V4.95122C6.16295 4.79024 6.03036 4.65854 5.8683 4.65854H5.03348C4.87143 4.65854 4.73884 4.79024 4.73884 4.95122V5.80488C4.73884 5.96585 4.87143 6.09756 5.03348 6.09756H5.8683C6.03036 6.09756 6.16295 5.96585 6.16295 5.80488ZM8.64286 5.80488V4.95122C8.64286 4.79024 8.51027 4.65854 8.34821 4.65854H7.51339C7.35134 4.65854 7.21875 4.79024 7.21875 4.95122V5.80488C7.21875 5.96585 7.35134 6.09756 7.51339 6.09756H8.34821C8.51027 6.09756 8.64286 5.96585 8.64286 5.80488ZM6.16295 7.85366V7C6.16295 6.83902 6.03036 6.70732 5.8683 6.70732H5.03348C4.87143 6.70732 4.73884 6.83902 4.73884 7V7.85366C4.73884 8.01463 4.87143 8.14634 5.03348 8.14634H5.8683C6.03036 8.14634 6.16295 8.01463 6.16295 7.85366ZM3.68304 7.85366V7C3.68304 6.83902 3.55045 6.70732 3.38839 6.70732H2.55357C2.39152 6.70732 2.25893 6.83902 2.25893 7V7.85366C2.25893 8.01463 2.39152 8.14634 2.55357 8.14634H3.38839C3.55045 8.14634 3.68304 8.01463 3.68304 7.85366ZM8.64286 7.85366V7C8.64286 6.83902 8.51027 6.70732 8.34821 6.70732H7.51339C7.35134 6.70732 7.21875 6.83902 7.21875 7V7.85366C7.21875 8.01463 7.35134 8.14634 7.51339 8.14634H8.34821C8.51027 8.14634 8.64286 8.01463 8.64286 7.85366ZM11 2.73171V10.8293C11 11.4756 10.4721 12 9.82143 12H1.17857C0.527902 12 0 11.4756 0 10.8293V2.73171C0 2.08537 0.527902 1.56098 1.17857 1.56098H2.35714V0.292683C2.35714 0.131707 2.48973 0 2.65179 0H3.63393C3.79598 0 3.92857 0.131707 3.92857 0.292683V1.56098H7.07143V0.292683C7.07143 0.131707 7.20402 0 7.36607 0H8.34821C8.51027 0 8.64286 0.131707 8.64286 0.292683V1.56098H9.82143C10.4721 1.56098 11 2.08537 11 2.73171ZM9.82143 10.6829V3.85366H1.17857V10.6829C1.17857 10.7634 1.24487 10.8293 1.32589 10.8293H9.67411C9.75513 10.8293 9.82143 10.7634 9.82143 10.6829Z" fill="#E95050"/>
<path d="M6.16295 8.97561V9.82927C6.16295 9.99024 6.03036 10.122 5.8683 10.122H5.03348C4.87143 10.122 4.73884 9.99024 4.73884 9.82927V8.97561C4.73884 8.81463 4.87143 8.68293 5.03348 8.68293H5.8683C6.03036 8.68293 6.16295 8.81463 6.16295 8.97561Z" fill="#E95050"/>
<path d="M3.68304 8.97561V9.82927C3.68304 9.99024 3.55045 10.122 3.38839 10.122H2.55357C2.39152 10.122 2.25893 9.99024 2.25893 9.82927V8.97561C2.25893 8.81463 2.39152 8.68293 2.55357 8.68293H3.38839C3.55045 8.68293 3.68304 8.81463 3.68304 8.97561Z" fill="#E95050"/>
</svg>
