<svg width="367" height="350" viewBox="0 0 367 350" fill="none" xmlns="http://www.w3.org/2000/svg">
<g opacity="0.8">
<path d="M14.8156 282.259L13.8805 281.817C13.9065 281.739 17.2574 274.492 17.9068 260.724C18.5042 247.996 16.8678 226.955 5.62004 198.927C-10.0437 159.936 10.4516 121.154 25.44 92.8394C31.4665 81.4358 36.6617 71.5907 38.1943 64.1875C43.4675 38.7567 28.5571 8.10461 28.4012 7.79289L29.3364 7.32532C29.4923 7.63703 44.5326 38.6008 39.2074 64.3953C37.6488 71.9544 32.4016 81.8514 26.3491 93.307C11.4647 121.439 -8.90074 159.988 6.58115 198.537C17.9328 226.773 19.5693 247.996 18.9459 260.854C18.2705 274.804 14.9455 281.973 14.8156 282.259Z" fill="#1B284F" fill-opacity="0.2"/>
<path d="M5.56819 198.797C3.51606 181.237 7.33459 154.871 37.2333 129.18C55.0791 113.828 74.0418 105.879 74.2237 105.802L74.6133 106.763C74.4315 106.841 55.5986 114.737 37.8827 129.985C21.5956 144.013 2.91864 167.313 6.58131 198.693L5.56819 198.797Z" fill="#1B284F" fill-opacity="0.2"/>
<path d="M31.5179 83.3821L30.5308 83.0964C36.8948 61.9523 31.0503 45.4578 25.024 35.3273C18.4782 24.3397 10.3478 18.2873 10.2439 18.2354L10.8413 17.4042C10.9192 17.4561 19.2314 23.6123 25.8552 34.7559C32.0114 45.0682 37.9858 61.8484 31.5179 83.3821Z" fill="#1B284F" fill-opacity="0.2"/>
<path d="M9.23063 208.562C8.0877 191.989 10.7113 169.261 29.5695 154.948C40.8429 146.402 52.7917 144.948 52.9216 144.922L53.0514 145.935C52.9215 145.961 41.2325 147.389 30.1669 155.78C11.6983 169.806 9.15268 192.171 10.2696 208.458L9.23063 208.562Z" fill="#1B284F" fill-opacity="0.2"/>
<path d="M80.6915 104.451C78.8992 104.451 77.4446 102.996 77.4446 101.204C77.4446 99.4114 78.8992 97.9568 80.6915 97.9568C82.4838 97.9568 83.9385 99.4114 83.9385 101.204C83.9385 102.996 82.4838 104.451 80.6915 104.451ZM80.6915 98.9958C79.4707 98.9958 78.4836 99.9829 78.4836 101.204C78.4836 102.425 79.4707 103.412 80.6915 103.412C81.9124 103.412 82.8995 102.425 82.8995 101.204C82.8995 99.9829 81.9124 98.9958 80.6915 98.9958Z" fill="#1B284F" fill-opacity="0.2"/>
<path d="M60.5337 148.429C58.8713 148.429 57.4946 147.078 57.4946 145.39C57.4946 143.701 58.8453 142.35 60.5337 142.35C62.1962 142.35 63.5729 143.701 63.5729 145.39C63.5729 147.078 62.1962 148.429 60.5337 148.429ZM60.5337 143.415C59.4428 143.415 58.5336 144.299 58.5336 145.415C58.5336 146.506 59.4168 147.416 60.5337 147.416C61.6247 147.416 62.5339 146.532 62.5339 145.415C62.5339 144.299 61.6247 143.415 60.5337 143.415Z" fill="#1B284F" fill-opacity="0.2"/>
<path d="M27.2842 5.11719C25.8815 5.11719 24.7385 3.97427 24.7385 2.54561C24.7385 1.14293 25.8815 0 27.2842 0C28.6868 0 29.8557 1.14293 29.8557 2.54561C29.8557 3.97427 28.7128 5.11719 27.2842 5.11719ZM27.2842 1.03903C26.4529 1.03903 25.7516 1.7144 25.7516 2.5716C25.7516 3.40281 26.427 4.10415 27.2842 4.10415C28.1154 4.10415 28.8167 3.42879 28.8167 2.5716C28.8167 1.7144 28.1414 1.03903 27.2842 1.03903Z" fill="#1B284F" fill-opacity="0.2"/>
<path d="M6.19126 17.5338C4.78858 17.5338 3.61963 16.3909 3.61963 14.9622C3.61963 13.5595 4.76261 12.3906 6.19126 12.3906C7.59395 12.3906 8.76282 13.5335 8.76282 14.9622C8.73685 16.3649 7.59395 17.5338 6.19126 17.5338ZM6.19126 13.4297C5.36005 13.4297 4.65872 14.105 4.65872 14.9622C4.65872 15.7934 5.33407 16.4948 6.19126 16.4948C7.02248 16.4948 7.72381 15.8194 7.72381 14.9622C7.72381 14.131 7.02248 13.4297 6.19126 13.4297Z" fill="#1B284F" fill-opacity="0.2"/>
<path opacity="0.5" d="M344.99 256.133C347.881 256.123 351.529 255.574 352.325 252.797C353.055 250.267 350.477 247.756 347.852 247.509C345.227 247.263 342.735 248.552 340.413 249.793C345.199 248.694 347.814 242.619 345.929 238.08C344.033 233.55 338.584 231.096 333.751 231.949C328.918 232.802 324.872 236.488 322.797 240.942C328.861 239.161 333.154 232.669 332.434 226.386C331.704 220.103 326.047 214.768 319.736 214.408C313.424 214.057 307.198 218.72 305.767 224.879C309.937 219.544 305.995 210.826 299.579 208.665C293.164 206.505 285.961 209.49 281.053 214.143C283.611 204.268 275.717 193.503 265.71 191.522C255.703 189.542 245.118 195.322 239.887 204.088C234.656 212.854 234.286 223.932 237.196 233.712C238.977 229.078 236.892 223.591 233.178 220.293C229.453 217.005 224.421 215.574 219.484 215.005C211.107 214.048 202.104 215.498 195.518 220.767C188.941 226.045 185.539 235.673 189.036 243.349C192.599 236.564 187.567 226.945 179.958 226.007C172.348 225.078 165.137 233.2 166.965 240.639C166.558 234.981 161.839 229.921 156.219 229.134C150.6 228.348 144.667 231.902 142.715 237.227C140.763 242.553 142.999 249.101 147.804 252.124C144.62 253.877 141.445 255.621 138.261 257.374C163.848 258.094 189.377 256.825 215.021 256.701C242.588 256.578 270.155 256.446 297.722 256.322C313.481 256.275 329.231 256.199 344.99 256.133Z" fill="#96DCB2"/>
<path d="M290.178 273.26C289.164 273.26 287.885 273.061 287.6 272.085C287.344 271.194 288.245 270.313 289.164 270.228C290.083 270.142 290.964 270.588 291.779 271.033C290.102 270.645 289.183 268.512 289.846 266.92C290.51 265.328 292.424 264.466 294.12 264.769C295.816 265.072 297.238 266.361 297.968 267.925C295.835 267.299 294.329 265.025 294.584 262.817C294.84 260.609 296.83 258.742 299.038 258.619C301.246 258.496 303.435 260.135 303.938 262.296C302.478 260.429 303.852 257.368 306.108 256.61C308.363 255.852 310.884 256.894 312.609 258.534C311.708 255.065 314.476 251.294 317.991 250.592C321.507 249.891 325.222 251.929 327.051 254.999C328.88 258.069 329.022 261.964 327.998 265.395C327.373 263.765 328.103 261.841 329.41 260.685C330.718 259.529 332.481 259.026 334.215 258.827C337.153 258.496 340.318 258.998 342.621 260.846C344.923 262.694 346.117 266.077 344.895 268.768C343.644 266.39 345.416 263.007 348.079 262.684C350.742 262.362 353.282 265.205 352.637 267.821C352.779 265.831 354.438 264.058 356.409 263.784C358.38 263.509 360.465 264.75 361.147 266.627C361.829 268.493 361.043 270.796 359.366 271.858C360.484 272.474 361.602 273.08 362.711 273.696C353.737 273.952 344.772 273.506 335.779 273.459C326.103 273.412 316.428 273.374 306.762 273.326C301.227 273.307 295.703 273.279 290.178 273.26Z" fill="#96DCB2"/>
<path opacity="0.15" d="M308.272 282.563H90.5596C89.0908 282.563 87.8967 283.757 87.8967 285.226C87.8967 286.695 89.0908 287.889 90.5596 287.889H308.272C309.741 287.889 310.935 286.695 310.935 285.226C310.935 283.757 309.741 282.563 308.272 282.563Z" fill="#040000"/>
<path d="M74.1465 252.543C74.1465 252.998 74.5066 253.358 74.9614 253.358H85.7927C86.2476 253.358 86.6077 252.989 86.6077 252.543V244.375C86.6077 243.92 86.2381 243.56 85.7927 243.56H74.9614C74.5066 243.56 74.1465 243.929 74.1465 244.375V252.543Z" fill="white"/>
<path d="M52.8714 251.766C57.7232 251.766 56.7566 248.089 54.9467 244.829C54.2549 244.82 53.5726 244.82 52.8714 244.82C46.9867 244.82 41.3483 245.123 36.127 245.72C38.8182 247.492 45.9822 251.766 52.8714 251.766Z" fill="#1B284F"/>
<path d="M42.6467 241.541C42.6467 247.189 47.2237 251.766 52.8715 251.766C58.5194 251.766 63.0964 247.189 63.0964 241.541C63.0964 235.893 58.5194 231.316 52.8715 231.316C47.2237 231.316 42.6467 235.893 42.6467 241.541Z" fill="#EB634D"/>
<path d="M47.9248 241.541C47.9248 244.27 50.1328 246.478 52.8619 246.478C55.591 246.478 57.799 244.261 57.799 241.541C57.799 238.812 55.591 236.604 52.8619 236.604C50.1422 236.604 47.9248 238.812 47.9248 241.541Z" fill="#1D55A5"/>
<path d="M118.066 145.505C127.107 153.901 168.254 112.262 159.213 103.866C159.213 103.866 154.2 99.3549 151.414 99.3549C148.628 99.3549 137.247 99.1369 128.983 105.581C120.72 112.025 112.03 136.057 112.03 136.057C112.03 136.057 115.707 144.444 118.066 145.505Z" fill="#D74C34"/>
<path d="M114.38 117.768C114.38 128.77 123.288 137.678 134.29 137.678C145.292 137.678 154.2 128.76 154.2 117.768C154.2 106.775 145.283 97.8577 134.29 97.8577C123.297 97.8482 114.38 106.766 114.38 117.768Z" fill="#F5B7CD"/>
<path d="M144.629 131.063C144.326 131.063 144.013 130.94 143.786 130.703C143.34 130.238 143.35 129.499 143.814 129.054C148.164 124.875 148.211 118.801 148.211 118.734C148.211 118.09 148.732 117.569 149.377 117.569C150.021 117.569 150.542 118.09 150.542 118.734C150.542 119.028 150.485 125.87 145.425 130.731C145.216 130.949 144.923 131.063 144.629 131.063Z" fill="white"/>
<path d="M66.6661 236.043L34.5124 152.129L97.2182 84.8085L93.9299 80.1935L27.9263 150.082L60.2695 235.143L66.6661 236.043Z" fill="#1D55A5"/>
<path d="M89.9874 84.3726L82.6528 92.1336H90.3949L92.9156 89.4328L89.9874 84.3726Z" fill="#1B284F"/>
<path d="M33.4414 164.591L37.6583 160.327L37.2887 159.369L35.8767 159.151L31.2334 158.791L33.4414 164.591Z" fill="#1B284F"/>
<path d="M63.4725 238.877C90.1393 238.877 111.755 245.103 111.755 256.257C111.755 263.734 15.1804 263.734 15.1804 256.257C15.1804 245.094 36.7962 238.877 63.4725 238.877Z" fill="#1D55A5"/>
<path d="M88.4714 90.3422C92.5367 94.2654 99.0184 94.1422 102.932 90.0769C106.855 86.0116 106.732 79.5394 102.667 75.6162C98.6015 71.6931 92.1292 71.8163 88.2061 75.8816C84.2924 79.9469 84.4061 86.4191 88.4714 90.3422Z" fill="#EB634D"/>
<path d="M92.1481 86.5329C94.1097 88.4281 97.2368 88.3713 99.1321 86.4002C101.027 84.4386 100.97 81.3115 98.9994 79.4163C97.0378 77.521 93.9107 77.5779 92.0155 79.5489C90.1202 81.52 90.1865 84.6471 92.1481 86.5329Z" fill="#1D55A5"/>
<path d="M21.0747 151.068C21.0747 156.716 25.6517 161.293 31.2995 161.293C36.9473 161.293 41.5243 156.716 41.5243 151.068C41.5243 145.42 36.9473 140.843 31.2995 140.843C25.6517 140.843 21.0747 145.42 21.0747 151.068Z" fill="#EB634D"/>
<path d="M26.3625 151.068C26.3625 153.797 28.5705 156.005 31.2996 156.005C34.0288 156.005 36.2367 153.797 36.2367 151.068C36.2367 148.339 34.0193 146.131 31.2996 146.131C28.5705 146.131 26.3625 148.339 26.3625 151.068Z" fill="#1D55A5"/>
<path d="M105.748 81.7123L94.884 92.9836L99.4895 97.4228L110.354 86.1514L105.748 81.7123Z" fill="#1D55A5"/>
<path d="M159.346 103.998C139.446 84.8181 120.966 72.3849 102.999 90.3523C86.472 106.879 98.8104 126.979 118.702 146.159C105.33 133.271 145.965 91.1104 159.346 103.998Z" fill="#EB634D"/>
<path d="M95.5978 79.4259C97.4835 79.4259 98.9997 80.9421 98.9997 82.8279C98.9997 84.7041 97.4835 86.2298 95.5978 86.2298C93.7215 86.2298 92.1958 84.7041 92.1958 82.8279C92.2053 80.9421 93.7215 79.4259 95.5978 79.4259Z" fill="white"/>
<path d="M31.2999 147.6C33.1762 147.6 34.7019 149.125 34.7019 151.002C34.7019 152.878 33.1762 154.404 31.2999 154.404C29.4236 154.404 27.8979 152.887 27.8979 151.002C27.8979 149.125 29.4236 147.6 31.2999 147.6Z" fill="white"/>
<path d="M63.4725 232.196C65.3488 232.196 66.8745 233.722 66.8745 235.598C66.8745 237.474 65.3488 239 63.4725 239C61.5962 239 60.0706 237.474 60.0706 235.598C60.0706 233.712 61.5867 232.196 63.4725 232.196Z" fill="white"/>
<path d="M346.263 142.654C345.733 142.654 345.297 142.218 345.297 141.688C345.297 141.157 345.733 140.721 346.263 140.721C346.794 140.721 347.23 141.157 347.23 141.688C347.23 142.218 346.794 142.654 346.263 142.654ZM346.263 141.1C345.941 141.1 345.676 141.365 345.676 141.688C345.676 142.01 345.941 142.275 346.263 142.275C346.586 142.275 346.851 142.01 346.851 141.688C346.851 141.365 346.586 141.1 346.263 141.1Z" fill="#1B284F"/>
<path d="M265.258 279.529H99.3344L62.5752 170.398H228.489L265.258 279.529Z" fill="white"/>
<path d="M249.309 262.708H105.295L75.9937 177.79H220.017L249.309 262.708Z" fill="#2EB964"/>
<path opacity="0.15" d="M220.017 177.79H75.9937L76.439 179.078H218.946L247.793 262.708H249.309L220.017 177.79Z" fill="#1A2956"/>
<path d="M265.258 279.529H99.3347L94.7102 265.779H260.624L265.258 279.529Z" fill="#E6E7E8"/>
<path d="M304.804 275.35H98.9747L62.5756 170.398C60.0738 176.909 59.9506 184.101 62.2345 190.687L93.3173 280.752C94.1512 283.168 96.4256 284.789 98.9842 284.789H304.813C307.419 284.789 309.532 282.675 309.532 280.069C309.532 277.463 307.419 275.35 304.804 275.35Z" fill="#F1F2F1"/>
<path d="M98.9747 275.352H113.597V284.8H98.9747C96.416 284.8 94.1417 283.179 93.3077 280.763L62.2249 190.698C59.9506 184.103 60.0738 176.92 62.5661 170.409L98.9747 275.352Z" fill="#CCCCCC"/>
<path d="M98.3871 281.728C99.4181 281.728 100.254 280.892 100.254 279.861C100.254 278.83 99.4181 277.994 98.3871 277.994C97.3561 277.994 96.5203 278.83 96.5203 279.861C96.5203 280.892 97.3561 281.728 98.3871 281.728Z" fill="white"/>
<path d="M218.587 270.29H136.596C135.052 270.29 133.649 269.37 133.033 267.958L131.299 264.007H218.975L220.463 267.409C221.069 268.764 220.074 270.29 218.587 270.29Z" fill="white"/>
<path d="M148.925 275.35C144.499 275.35 144.499 284.798 148.925 284.798H98.9744C104.48 284.798 104.48 275.35 98.9744 275.35H148.925Z" fill="#999999"/>
<path d="M118.098 278.667H133.374C134.217 278.667 134.899 279.349 134.899 280.193V280.752C134.899 281.595 134.217 282.277 133.374 282.277H118.098C117.255 282.277 116.572 281.595 116.572 280.752V280.193C116.572 279.349 117.255 278.667 118.098 278.667Z" fill="#7F8080"/>
<path d="M162.097 201.712L154.052 264.74C153.54 268.976 157.369 272.046 161.529 272.046H176.833C180.747 272.046 183.799 268.739 184.434 264.74L193.739 204.28L162.097 201.712Z" fill="#1B284F"/>
<path d="M193.739 204.289L179.022 203.095L170.256 264.749C169.593 268.587 173.033 272.908 176.833 272.055C181.95 272.16 183.798 268.748 184.433 264.749L193.739 204.289Z" fill="#294C9F"/>
<path opacity="0.15" d="M186.821 203.872C184.689 203.55 182.689 205.028 182.376 207.16L180.017 222.957C179.695 225.089 181.173 227.089 183.305 227.402C185.437 227.724 187.437 226.246 187.749 224.113L190.109 208.317C190.431 206.184 188.962 204.194 186.821 203.872Z" fill="#040000"/>
<path d="M193.16 201.115C192.62 201.039 192.099 201.067 191.597 201.2C191.578 201.2 191.559 201.209 191.54 201.209C191.521 201.209 191.502 201.219 191.483 201.219C191.464 201.219 191.445 201.228 191.426 201.228C191.407 201.228 191.388 201.238 191.369 201.238C191.35 201.238 191.331 201.247 191.312 201.247C191.293 201.247 191.274 201.257 191.255 201.257C191.237 201.257 191.218 201.266 191.199 201.266C191.18 201.266 191.161 201.276 191.142 201.276C191.123 201.276 191.104 201.285 191.085 201.285C191.066 201.285 191.047 201.295 191.028 201.295C191.009 201.295 190.99 201.304 190.971 201.304C190.952 201.304 190.933 201.314 190.914 201.314C190.895 201.314 190.876 201.323 190.857 201.323C190.839 201.323 190.82 201.333 190.801 201.333C190.782 201.333 190.763 201.342 190.744 201.342C190.725 201.342 190.706 201.351 190.687 201.351C190.668 201.351 190.649 201.361 190.63 201.361C190.611 201.361 190.592 201.37 190.573 201.37C190.554 201.37 190.535 201.38 190.516 201.38C190.497 201.38 190.478 201.389 190.459 201.389C190.44 201.389 190.422 201.399 190.403 201.399C190.384 201.399 190.365 201.408 190.346 201.408C190.327 201.408 190.308 201.418 190.289 201.418C190.27 201.418 190.251 201.427 190.232 201.427C190.213 201.427 190.194 201.437 190.175 201.437C190.156 201.437 190.137 201.446 190.118 201.446C190.099 201.446 190.08 201.456 190.061 201.456C190.042 201.456 190.024 201.465 190.005 201.465C189.986 201.465 189.967 201.475 189.948 201.475C189.929 201.475 189.91 201.484 189.891 201.484C189.872 201.484 189.853 201.494 189.834 201.494C189.815 201.494 189.796 201.503 189.777 201.503C189.758 201.503 189.739 201.513 189.72 201.513C189.701 201.513 189.682 201.522 189.663 201.522C189.644 201.522 189.626 201.532 189.607 201.532C189.588 201.532 189.569 201.541 189.55 201.541C189.531 201.541 189.512 201.55 189.493 201.55C189.474 201.55 189.455 201.56 189.436 201.56C189.417 201.56 189.398 201.569 189.379 201.569C189.36 201.569 189.341 201.579 189.322 201.579C189.303 201.579 189.284 201.588 189.265 201.588C189.246 201.588 189.228 201.598 189.209 201.598C189.19 201.598 189.171 201.607 189.152 201.607C189.133 201.607 189.114 201.617 189.095 201.617C189.076 201.617 189.057 201.626 189.038 201.626C189.019 201.626 189 201.636 188.981 201.636C188.962 201.636 188.943 201.645 188.924 201.645C188.905 201.645 188.886 201.655 188.867 201.655C188.848 201.655 188.83 201.664 188.811 201.664C188.792 201.664 188.773 201.674 188.754 201.674C188.735 201.674 188.716 201.683 188.697 201.683C188.678 201.683 188.659 201.693 188.64 201.693C188.621 201.693 188.602 201.702 188.583 201.702C188.564 201.702 188.545 201.712 188.526 201.712C188.507 201.712 188.488 201.721 188.469 201.721C188.451 201.721 188.432 201.731 188.413 201.731C188.394 201.731 188.375 201.74 188.356 201.74C188.337 201.74 188.318 201.749 188.299 201.749C188.28 201.749 188.261 201.759 188.242 201.759C188.223 201.759 188.204 201.768 188.185 201.768C188.166 201.768 188.147 201.778 188.128 201.778C188.109 201.778 188.09 201.787 188.071 201.787C188.053 201.787 188.034 201.797 188.015 201.797C187.996 201.797 187.977 201.806 187.958 201.806C187.939 201.806 187.92 201.816 187.901 201.816C187.882 201.816 187.863 201.825 187.844 201.825C187.825 201.825 187.806 201.835 187.787 201.835C187.768 201.835 187.749 201.844 187.73 201.844C187.711 201.844 187.692 201.854 187.673 201.854C187.655 201.854 187.636 201.863 187.617 201.863C187.598 201.863 187.579 201.873 187.56 201.873C187.541 201.873 187.522 201.882 187.503 201.882C187.484 201.882 187.465 201.892 187.446 201.892C187.427 201.892 187.408 201.901 187.389 201.901C187.37 201.901 187.351 201.911 187.332 201.911C187.313 201.911 187.294 201.92 187.275 201.92C187.256 201.92 187.238 201.93 187.219 201.93C187.2 201.93 187.181 201.939 187.162 201.939C187.143 201.939 187.124 201.948 187.105 201.948C187.086 201.948 187.067 201.958 187.048 201.958C187.029 201.958 187.01 201.967 186.991 201.967C186.972 201.967 186.953 201.977 186.934 201.977C186.915 201.977 186.896 201.986 186.877 201.986C186.858 201.986 186.84 201.996 186.821 201.996C186.802 201.996 186.783 202.005 186.764 202.005C186.745 202.005 186.726 202.015 186.707 202.015C186.688 202.015 186.669 202.024 186.65 202.024C186.631 202.024 186.612 202.034 186.593 202.034C186.574 202.034 186.555 202.043 186.536 202.043C186.517 202.043 186.498 202.053 186.479 202.053C186.46 202.053 186.442 202.062 186.423 202.062C186.404 202.062 186.385 202.072 186.366 202.072C186.347 202.072 186.328 202.081 186.309 202.081C186.29 202.081 186.271 202.091 186.252 202.091C186.233 202.091 186.214 202.1 186.195 202.1C186.176 202.1 186.157 202.11 186.138 202.11C186.119 202.11 186.1 202.119 186.081 202.119C186.062 202.119 186.044 202.129 186.025 202.129C186.006 202.129 185.987 202.138 185.968 202.138C185.949 202.138 185.93 202.147 185.911 202.147C184.414 202.517 183.21 203.749 182.973 205.369L180.614 221.166C180.291 223.298 181.77 225.298 183.902 225.611C184.442 225.686 184.963 225.658 185.466 225.525C185.484 225.525 185.503 225.516 185.522 225.516C185.541 225.516 185.56 225.506 185.579 225.506C185.598 225.506 185.617 225.497 185.636 225.497C185.655 225.497 185.674 225.487 185.693 225.487C185.712 225.487 185.731 225.478 185.75 225.478C185.769 225.478 185.788 225.468 185.807 225.468C185.826 225.468 185.845 225.459 185.864 225.459C185.882 225.459 185.901 225.449 185.92 225.449C185.939 225.449 185.958 225.44 185.977 225.44C185.996 225.44 186.015 225.43 186.034 225.43C186.053 225.43 186.072 225.421 186.091 225.421C186.11 225.421 186.129 225.412 186.148 225.412C186.167 225.412 186.186 225.402 186.205 225.402C186.224 225.402 186.243 225.393 186.261 225.393C186.28 225.393 186.299 225.383 186.318 225.383C186.337 225.383 186.356 225.374 186.375 225.374C186.394 225.374 186.413 225.364 186.432 225.364C186.451 225.364 186.47 225.355 186.489 225.355C186.508 225.355 186.527 225.345 186.546 225.345C186.565 225.345 186.584 225.336 186.603 225.336C186.622 225.336 186.641 225.326 186.659 225.326C186.678 225.326 186.697 225.317 186.716 225.317C186.735 225.317 186.754 225.307 186.773 225.307C186.792 225.307 186.811 225.298 186.83 225.298C186.849 225.298 186.868 225.288 186.887 225.288C186.906 225.288 186.925 225.279 186.944 225.279C186.963 225.279 186.982 225.269 187.001 225.269C187.02 225.269 187.039 225.26 187.057 225.26C187.076 225.26 187.095 225.25 187.114 225.25C187.133 225.25 187.152 225.241 187.171 225.241C187.19 225.241 187.209 225.232 187.228 225.232C187.247 225.232 187.266 225.222 187.285 225.222C187.304 225.222 187.323 225.213 187.342 225.213C187.361 225.213 187.38 225.203 187.399 225.203C187.418 225.203 187.437 225.194 187.455 225.194C187.474 225.194 187.493 225.184 187.512 225.184C187.531 225.184 187.55 225.175 187.569 225.175C187.588 225.175 187.607 225.165 187.626 225.165C187.645 225.165 187.664 225.156 187.683 225.156C187.702 225.156 187.721 225.146 187.74 225.146C187.759 225.146 187.778 225.137 187.797 225.137C187.816 225.137 187.835 225.127 187.853 225.127C187.872 225.127 187.891 225.118 187.91 225.118C187.929 225.118 187.948 225.108 187.967 225.108C187.986 225.108 188.005 225.099 188.024 225.099C188.043 225.099 188.062 225.089 188.081 225.089C188.1 225.089 188.119 225.08 188.138 225.08C188.157 225.08 188.176 225.07 188.195 225.07C188.214 225.07 188.233 225.061 188.252 225.061C188.27 225.061 188.289 225.051 188.308 225.051C188.327 225.051 188.346 225.042 188.365 225.042C188.384 225.042 188.403 225.032 188.422 225.032C188.441 225.032 188.46 225.023 188.479 225.023C188.498 225.023 188.517 225.014 188.536 225.014C188.555 225.014 188.574 225.004 188.593 225.004C188.612 225.004 188.631 224.995 188.65 224.995C188.668 224.995 188.687 224.985 188.706 224.985C188.725 224.985 188.744 224.976 188.763 224.976C188.782 224.976 188.801 224.966 188.82 224.966C188.839 224.966 188.858 224.957 188.877 224.957C188.896 224.957 188.915 224.947 188.934 224.947C188.953 224.947 188.972 224.938 188.991 224.938C189.01 224.938 189.029 224.928 189.048 224.928C189.066 224.928 189.085 224.919 189.104 224.919C189.123 224.919 189.142 224.909 189.161 224.909C189.18 224.909 189.199 224.9 189.218 224.9C189.237 224.9 189.256 224.89 189.275 224.89C189.294 224.89 189.313 224.881 189.332 224.881C189.351 224.881 189.37 224.871 189.389 224.871C189.408 224.871 189.427 224.862 189.446 224.862C189.464 224.862 189.483 224.852 189.502 224.852C189.521 224.852 189.54 224.843 189.559 224.843C189.578 224.843 189.597 224.834 189.616 224.834C189.635 224.834 189.654 224.824 189.673 224.824C189.692 224.824 189.711 224.815 189.73 224.815C189.749 224.815 189.768 224.805 189.787 224.805C189.806 224.805 189.825 224.796 189.843 224.796C189.862 224.796 189.881 224.786 189.9 224.786C189.919 224.786 189.938 224.777 189.957 224.777C189.976 224.777 189.995 224.767 190.014 224.767C190.033 224.767 190.052 224.758 190.071 224.758C190.09 224.758 190.109 224.748 190.128 224.748C190.147 224.748 190.166 224.739 190.185 224.739C190.204 224.739 190.223 224.729 190.241 224.729C190.26 224.729 190.279 224.72 190.298 224.72C190.317 224.72 190.336 224.71 190.355 224.71C190.374 224.71 190.393 224.701 190.412 224.701C190.431 224.701 190.45 224.691 190.469 224.691C190.488 224.691 190.507 224.682 190.526 224.682C190.545 224.682 190.564 224.672 190.583 224.672C190.602 224.672 190.621 224.663 190.639 224.663C190.658 224.663 190.677 224.653 190.696 224.653C190.715 224.653 190.734 224.644 190.753 224.644C190.772 224.644 190.791 224.635 190.81 224.635C190.829 224.635 190.848 224.625 190.867 224.625C190.886 224.625 190.905 224.616 190.924 224.616C190.943 224.616 190.962 224.606 190.981 224.606C191 224.606 191.019 224.597 191.037 224.597C191.056 224.597 191.075 224.587 191.094 224.587C191.113 224.587 191.132 224.578 191.151 224.578C192.648 224.208 193.852 222.976 194.089 221.356L196.448 205.559C196.771 203.427 195.302 201.437 193.16 201.115Z" fill="#4469B2"/>
<path d="M189.645 224.653C187.513 224.331 186.035 222.341 186.357 220.209L188.717 204.412C189.039 202.28 191.029 200.802 193.161 201.124C195.293 201.446 196.771 203.436 196.449 205.568L194.09 221.365C193.777 223.497 191.787 224.976 189.645 224.653Z" fill="#79A1D5"/>
<path opacity="0.15" d="M162.098 201.712L159.965 219.243L177.838 211.482L182.273 211.577L187.997 209.208L195.777 210.079L196.44 204.763L162.098 201.712Z" fill="#040000"/>
<path d="M273.711 76.5269L307.211 226.539C248.485 213.253 196.184 204.109 157.795 203.891C143.931 203.815 131.858 194.291 128.684 180.796C128.646 180.626 128.608 180.455 128.56 180.275C125.281 165.786 133.365 151.145 147.238 145.819C193.834 127.918 233.38 101.763 273.711 76.5269Z" fill="#1D55A5"/>
<path d="M322.368 227.632C346.499 222.242 358.132 182.377 348.352 138.59C338.572 94.8037 311.081 63.6769 286.951 69.0668C262.82 74.4566 251.187 114.322 260.967 158.109C270.747 201.895 298.237 233.022 322.368 227.632Z" fill="#79A1D5"/>
<path d="M321.695 218.829C343.231 214.019 353.613 178.442 344.885 139.365C336.157 100.288 311.623 72.509 290.087 77.3192C268.551 82.1295 258.169 117.707 266.897 156.784C275.625 195.861 300.159 223.64 321.695 218.829Z" fill="#1B284F"/>
<path d="M266.888 156.793C269.106 166.734 272.347 175.936 276.308 184.066L318.222 171.434L307.116 121.711L263.799 128.506C263.714 137.433 264.699 147.004 266.888 156.793Z" fill="#294C9F"/>
<path d="M319.471 171.143C327.036 169.453 330.682 156.953 327.615 143.222C324.549 129.492 315.93 119.731 308.365 121.42C300.799 123.11 297.153 135.611 300.22 149.341C303.287 163.072 311.906 172.833 319.471 171.143Z" fill="#79A1D5"/>
<path d="M155.293 142.607C152.631 143.697 149.949 144.767 147.248 145.81C133.374 151.136 125.281 165.777 128.57 180.266C128.608 180.437 128.646 180.607 128.693 180.788C131.858 194.291 143.931 203.806 157.805 203.882C161.377 203.901 165.073 204.005 168.892 204.175C153.853 182.038 152.839 149.657 155.293 142.607Z" fill="#294C9F"/>
<path d="M132.114 179.83C131.441 175.376 131.356 164.734 142.254 153.505C142.993 152.737 144.234 152.756 144.973 153.533C145.675 154.263 145.675 155.419 144.973 156.149C135.194 166.241 135.336 175.651 135.867 179.271C135.999 180.19 135.459 181.072 134.578 181.356C133.46 181.716 132.285 180.987 132.114 179.83Z" fill="#385CA9"/>
<path d="M263.781 166.067L232.69 299.401L233.714 299.64L264.806 166.306L263.781 166.067Z" fill="#9B8CAA"/>
<path d="M235.358 166.078L204.266 299.411L205.291 299.65L236.382 166.317L235.358 166.078Z" fill="#9B8CAA"/>
<path d="M262.314 173.759H233.885V174.811H262.314V173.759Z" fill="#9B8CAA"/>
<path d="M260.315 182.401H231.885V183.453H260.315V182.401Z" fill="#9B8CAA"/>
<path d="M258.325 191.044H229.896V192.096H258.325V191.044Z" fill="#9B8CAA"/>
<path d="M256.325 199.686H227.896V200.738H256.325V199.686Z" fill="#9B8CAA"/>
<path d="M254.335 208.329H225.906V209.381H254.335V208.329Z" fill="#9B8CAA"/>
<path d="M252.336 216.971H223.906V218.023H252.336V216.971Z" fill="#9B8CAA"/>
<path d="M250.346 225.614H221.916V226.666H250.346V225.614Z" fill="#9B8CAA"/>
<path d="M248.346 234.256H219.917V235.308H248.346V234.256Z" fill="#9B8CAA"/>
<path d="M246.356 242.899H217.927V243.951H246.356V242.899Z" fill="#9B8CAA"/>
<path d="M244.357 251.542H215.927V252.594H244.357V251.542Z" fill="#9B8CAA"/>
<path d="M242.366 260.184H213.937V261.236H242.366V260.184Z" fill="#9B8CAA"/>
<path d="M240.367 268.827H211.937V269.879H240.367V268.827Z" fill="#9B8CAA"/>
<path d="M238.377 277.469H209.947V278.521H238.377V277.469Z" fill="#9B8CAA"/>
<path d="M236.377 286.112H207.948V287.164H236.377V286.112Z" fill="#9B8CAA"/>
<path d="M234.387 294.754H205.958V295.806H234.387V294.754Z" fill="#9B8CAA"/>
<path d="M230.47 203.654V207.246H233.901C233.901 207.246 233.825 206.687 234.953 206.876C236.071 207.066 235.55 207.473 237.388 207.473H240.326C240.629 207.473 240.866 207.227 240.866 206.933C240.866 206.734 240.762 206.554 240.591 206.459C239.577 205.891 236.09 203.901 235.256 202.725H230.48V203.654H230.47Z" fill="#1B284F"/>
<path d="M214.474 203.654V207.246H217.904C217.904 207.246 217.828 206.687 218.956 206.876C220.074 207.066 219.553 207.473 221.391 207.473H224.329C224.632 207.473 224.869 207.227 224.869 206.933C224.869 206.734 224.765 206.554 224.594 206.459C223.58 205.891 220.093 203.901 219.259 202.725H214.483V203.654H214.474Z" fill="#1B284F"/>
<path d="M214.531 161.37L215.63 186.028L213.403 203.133L220.387 202.944C220.387 202.944 222.15 186.132 222.15 185.071C222.15 184.01 223.676 167.113 223.676 167.113L214.531 161.37Z" fill="#1B284F"/>
<path d="M230.66 157.788C230.66 157.788 232.934 172.117 234.441 185.137C235.37 193.145 235.569 201.74 236.071 202.991C236.071 202.991 230.433 203.133 229.627 203.133L227.741 185.952L222.15 170.297C222.15 170.297 218.928 169.444 216.17 167.644C213.413 165.843 214.844 159.134 214.844 159.134L230.66 157.788Z" fill="#97C544"/>
<path d="M230.953 138.048L231.039 138.314C231.039 138.314 232.593 137.831 232.801 137.622C233 137.423 233.37 137.006 233.37 137.006L233.777 136.627L232.962 134.372L231.039 137.11L230.773 137.698L230.953 138.048Z" fill="#EF8DA0"/>
<path d="M227.836 118.792L228.404 120.11C228.594 120.545 228.622 121.048 228.471 121.503C228.262 122.128 228.044 123.009 228.3 123.265C228.556 123.521 229.191 124.042 229.627 124.393C229.854 124.573 229.845 124.923 229.608 125.085L228.954 125.558C228.954 125.558 229.57 127.255 228.3 127.861C227.03 128.468 226.348 128.866 226.348 129.652C226.348 130.439 226.755 132.192 226.755 132.192L220.662 131.898C220.662 131.898 221.752 129.823 221.752 127.994C221.752 126.165 219.715 121.901 220.662 120.28C221.61 118.65 226.348 114.86 227.836 118.792Z" fill="#F5B7CD"/>
<path d="M219.771 131.5L220.757 129.539L226.187 131.216C226.765 131.396 227.21 131.86 227.362 132.439L227.58 133.282L219.771 131.5Z" fill="#E6E7E8"/>
<path d="M239.35 142.152L231.068 135.243C230.887 135.092 230.944 134.826 231.191 134.646L237.89 129.937C238.137 129.757 238.487 129.738 238.677 129.889L246.959 136.798C247.139 136.949 247.082 137.215 246.836 137.395L240.136 142.104C239.88 142.284 239.53 142.303 239.35 142.152Z" fill="#E6E7E8"/>
<path d="M239.795 141.545L231.882 134.95L238.212 130.496L246.125 137.091L239.795 141.545Z" fill="#040000"/>
<path d="M242.515 140.048L242.429 139.972L243.86 138.968L243.946 139.043L242.515 140.048Z" fill="#939498"/>
<path d="M230.982 137.802C230.982 137.802 231.721 137.594 232.1 137.215C232.479 136.836 232.64 135.291 232.64 135.291L233.38 134.192C233.465 134.059 233.503 133.898 233.465 133.737L233.408 133.472C233.361 133.244 233.057 133.187 232.934 133.377C232.479 134.05 231.683 135.187 231.371 135.499C230.925 135.945 229.636 136.504 229.636 136.504C229.636 136.504 230.366 138.049 230.982 137.802Z" fill="#F5B7CD"/>
<path d="M214.256 135.016C215.213 132.334 217.942 130.723 220.757 131.178L227.703 132.306C230.252 132.657 232.081 134.94 231.873 137.499L230.556 153.694L231.086 157.627C231.086 157.627 222.605 160.896 214.844 159.124L213.915 144.606C213.488 141.991 213.166 138.068 214.256 135.016Z" fill="#BCBDBF"/>
<path d="M225.173 126.288C225.334 126.288 225.448 126.146 225.419 125.994C225.258 125.132 224.851 122.659 225.239 122.261C225.713 121.787 224.017 120.47 224.017 120.47C224.017 120.47 224.263 118.802 225.969 118.802C227.674 118.802 227.693 118.461 227.693 118.461C227.693 118.461 228.632 117.219 226.528 116.319C224.424 115.419 220.558 118.176 220.558 118.176C220.558 118.176 218.549 117.958 218.085 120.223C217.62 122.479 218.947 125.52 220.131 126.411C221.306 127.311 221.723 128.581 221.723 128.581H221.932C223.192 128.581 224.301 127.719 224.595 126.487L224.614 126.411C224.614 126.411 222.083 125.085 222.946 123.938C223.808 122.791 224.519 123.786 224.519 124.184C224.519 124.506 224.813 125.653 224.936 126.098C224.964 126.212 225.059 126.288 225.173 126.288Z" fill="#1B284F"/>
<path d="M228.272 124.052C227.76 124.052 227.353 123.493 227.353 122.791C227.353 122.1 227.769 121.531 228.272 121.531C228.783 121.531 229.191 122.09 229.191 122.791C229.191 123.483 228.783 124.052 228.272 124.052ZM228.272 121.749C227.883 121.749 227.561 122.223 227.561 122.801C227.561 123.379 227.883 123.843 228.272 123.843C228.66 123.843 228.982 123.37 228.982 122.801C228.982 122.213 228.66 121.749 228.272 121.749Z" fill="#111B39"/>
<path d="M224.547 123.417C224.5 123.417 224.453 123.379 224.443 123.332C224.434 123.275 224.472 123.218 224.528 123.208L227.438 122.687C227.494 122.678 227.551 122.716 227.561 122.773C227.57 122.829 227.532 122.886 227.475 122.896L224.566 123.417C224.557 123.417 224.557 123.417 224.547 123.417Z" fill="#111B39"/>
<path d="M235.739 143.422C235.739 143.422 236.279 141.716 236.516 141.479C236.753 141.242 237.957 140.56 237.957 140.56L238.838 138.522C238.838 138.522 239.596 138.797 239.596 139.157C239.596 139.517 238.478 141.555 239.672 142.228L242.704 140.295C242.704 140.295 242.448 141.536 242.031 141.953C241.615 142.37 237.161 145.933 237.161 145.933L235.739 143.422Z" fill="#F5B7CD"/>
<path d="M234.45 143.668L235.55 143.033L237.549 145.943L236.668 146.833L234.45 143.668Z" fill="#E6E7E8"/>
<path d="M222.074 136.03C222.074 136.03 218.871 139.678 218.407 147.904C217.942 156.129 221.117 155.854 223.173 155.854C225.229 155.854 236.828 147.06 236.828 147.06L234.213 143.317L226.727 147.43C226.727 147.43 229.911 141.346 229.911 137.613C229.901 133.879 223.363 133.547 222.074 136.03Z" fill="#BCBDBF"/>
<path d="M221.818 156.205C221.155 156.205 220.454 156.053 219.847 155.513C218.577 154.376 218.066 151.893 218.293 147.904C218.757 139.735 221.96 136.002 221.989 135.964C222.027 135.916 222.093 135.916 222.14 135.954C222.188 135.992 222.188 136.059 222.15 136.106C222.14 136.115 221.344 137.035 220.501 138.939C219.724 140.702 218.748 143.687 218.502 147.913C218.284 151.78 218.786 154.281 219.989 155.352C220.852 156.12 221.932 156.044 222.785 155.902C223.619 155.76 224.5 155.286 225.135 154.945C225.306 154.85 225.457 154.774 225.59 154.708C225.637 154.679 225.704 154.708 225.732 154.755C225.76 154.802 225.732 154.869 225.685 154.897C225.561 154.954 225.41 155.039 225.239 155.134C224.585 155.485 223.685 155.968 222.823 156.12C222.51 156.158 222.169 156.205 221.818 156.205Z" fill="#111B39"/>
<path d="M226.471 147.695L226.633 147.392C226.661 147.345 229.039 142.768 229.655 139.167C229.665 139.11 229.712 139.072 229.779 139.082C229.835 139.091 229.873 139.148 229.864 139.205C229.333 142.303 227.514 146.103 226.974 147.184L230.613 145.184C230.66 145.156 230.726 145.175 230.755 145.222C230.783 145.269 230.764 145.336 230.717 145.364L226.471 147.695Z" fill="#111B39"/>
<path d="M225.912 154.632C225.912 154.632 228.632 153.23 230.612 153.069L230.745 151.477L225.912 154.632Z" fill="#1B284F"/>
<path d="M166.788 258.836L166.068 255.112L159.804 256.372L159.965 258.57C159.956 258.58 163.604 258.134 166.788 258.836Z" fill="#1B284F"/>
<path d="M166.788 258.836L166.068 255.112L159.804 256.372L159.965 258.57C159.956 258.58 163.604 258.134 166.788 258.836Z" fill="#1B284F"/>
<path opacity="0.15" d="M175.88 321.788C176.543 321.816 177.453 322.139 177.311 322.792C177.206 323.314 176.524 323.418 176.003 323.427C167.228 323.437 158.452 323.437 149.677 323.437C149.27 323.437 148.853 323.437 148.483 323.276C147.905 323.029 147.535 322.224 148.057 321.722C148.455 321.343 149.165 321.589 149.639 321.608C151.696 321.693 153.799 321.504 155.865 321.475C160.158 321.409 164.46 321.428 168.753 321.532C171.132 321.589 173.501 321.674 175.88 321.788Z" fill="#040000"/>
<path d="M150.075 321.959C151.61 321.144 152.833 320.186 153.543 319.002H156.415V322.082C156.415 322.3 156.235 322.48 156.017 322.48C155.799 322.48 155.619 322.3 155.619 322.082V321.049L155.249 321.57C154.851 322.139 154.197 322.48 153.496 322.48H150.265C150.075 322.48 149.933 322.3 149.98 322.11C149.999 322.053 150.028 322.006 150.075 321.959Z" fill="#1B284F"/>
<path d="M152.236 320.518H154.036L155.372 319.002H156.415V316.121H153.515L153.695 318.727L152.236 320.518Z" fill="#F5B7CD"/>
<path d="M166.488 321.959C168.023 321.144 169.246 320.186 169.957 319.002H172.828V322.082C172.828 322.3 172.648 322.48 172.43 322.48C172.212 322.48 172.032 322.3 172.032 322.082V321.049L171.662 321.57C171.264 322.139 170.61 322.48 169.909 322.48H166.678C166.488 322.48 166.346 322.3 166.393 322.11C166.412 322.053 166.441 322.006 166.488 321.959Z" fill="#1B284F"/>
<path d="M168.639 320.518H170.44L171.785 319.002H172.818V316.121H169.928L170.108 318.727L168.639 320.518Z" fill="#F5B7CD"/>
<path d="M151.923 283.039C151.923 283.039 152.056 313.392 149.971 316.623C149.971 316.623 154.519 319.049 159.618 317.704C159.618 317.704 156.519 303.659 158.357 293.88C158.973 290.61 160.092 284.65 160.414 284.053C161.352 282.299 161.286 283.437 161.286 284.252C161.286 285.067 166.867 311.449 166.062 317.306C166.062 317.306 171.444 318.85 176.495 316.434C176.495 316.434 170.724 299.66 170.724 292.259C170.724 284.849 172.184 281.911 171.643 279.949C171.103 277.988 151.459 274.216 151.923 283.039Z" fill="#1D55A5"/>
<path d="M147.014 253.775L146.009 263.28C146.009 263.28 145.725 265.355 147.8 265.573C149.876 265.791 149.933 259.651 149.933 259.651L150.444 254.391L147.014 253.775Z" fill="#F5B7CD"/>
<path d="M162.489 245.209L152.567 246.327C152.567 246.327 149.525 246.687 148.559 248.137C147.393 249.89 146.749 253.718 146.749 253.718L150.464 254.391C150.464 254.391 152.548 258.608 152.728 259.945C153.316 264.199 152.577 269.847 152.51 270.454C152.425 271.24 150.577 285.019 150.577 285.019C150.577 285.019 157.798 286.867 163.209 286.924C168.62 286.981 174.107 285.768 174.107 285.768L169.094 263.754L165.313 245.332L162.489 245.209Z" fill="#EB634D"/>
<path d="M155.647 271.031L146.616 270.074L143.745 256.675L152.775 257.623L155.647 271.031Z" fill="#BB4A4A"/>
<path d="M155.135 271.249L146.114 270.302L143.242 256.893L152.273 257.85L155.135 271.249Z" fill="#BCBDBF"/>
<path d="M154.434 271.524L145.413 270.577L142.541 257.168L151.572 258.115L154.434 271.524Z" fill="#E6E7E8"/>
<path d="M153.505 272.046L144.474 271.098L141.603 257.689L150.634 258.637L153.505 272.046Z" fill="#1D55A5"/>
<path d="M155.647 271.032L153.41 272.036L150.539 258.627L152.775 257.623L155.647 271.032Z" fill="#1B284F"/>
<path d="M151.411 239.845C151.411 239.845 152.122 244.09 153.771 245.54C154.254 245.957 154.576 246.137 154.879 246.364C155.315 246.687 154.908 247.198 155.145 247.682C155.192 247.786 155.41 247.814 156.538 247.691C157.315 247.606 158.357 246.592 158.878 244.621C159.4 242.659 157.77 239.03 157.476 237.722C157.192 236.414 152.472 235.287 151.79 236.225C151.108 237.154 151.411 239.845 151.411 239.845Z" fill="#F5B7CD"/>
<path d="M153.401 245.151C153.401 245.151 154.226 246.137 154.282 247.066C154.463 249.861 153.562 250.828 152.785 251.14C152.274 251.349 151.714 250.97 151.695 250.411C151.667 249.529 151.658 248.117 151.771 246.999C151.961 245.227 150.767 243.484 150.539 241.712C150.321 240.053 147.706 232.88 154.917 232.908C160.48 232.927 161.465 237.315 161.655 238.376C162.271 241.778 162.479 245.218 162.479 245.218C162.479 245.218 161.134 245.284 160.944 247.085C160.802 248.411 160.025 249.473 159.343 250.401C158.869 251.036 157.864 250.818 157.713 250.032C157.523 249.094 157.448 247.9 157.789 246.63C157.789 246.63 157.997 240.982 157.078 239.845C156.405 239.011 153.638 239.068 152.217 239.153C151.752 239.181 151.421 239.608 151.506 240.072C151.705 241.2 152.624 244.678 153.401 245.151Z" fill="#1B284F"/>
<path d="M165.152 245.313C165.152 245.313 166.308 245.048 167.569 248.535C168.829 252.022 168.696 252.458 168.696 252.458C168.696 252.458 163.683 251.292 162.309 253.415C162.309 253.424 162.233 247.672 165.152 245.313Z" fill="#EB634D"/>
<path d="M162.309 253.425C162.309 253.425 163.427 250.819 168.696 252.468C168.696 252.468 171.814 265.033 171.122 266.407C170.43 267.781 158.509 269.97 156.898 269.809L155.95 266.72C155.95 266.72 165.654 264.114 165.72 263.488C165.787 262.863 162.309 253.425 162.309 253.425Z" fill="#F5B7CD"/>
<path d="M155.95 266.711L155.344 265.555C155.088 265.062 154.501 264.844 153.989 265.033L151.108 266.114C151.013 266.152 150.947 266.256 150.975 266.36L151.032 266.616C151.051 266.72 151.155 266.796 151.269 266.786L153.297 266.559C153.373 266.55 153.43 266.616 153.42 266.682C153.411 266.73 153.373 266.777 153.325 266.786L151.487 267.052C151.364 267.071 151.279 267.194 151.307 267.317L151.364 267.535C151.392 267.63 151.468 267.687 151.563 267.696L153.468 267.734C153.524 267.734 153.562 267.781 153.553 267.838C153.543 267.886 153.515 267.924 153.468 267.924L151.914 267.971C151.781 267.971 151.686 268.094 151.715 268.227L151.733 268.322C151.752 268.416 151.828 268.483 151.923 268.492L153.534 268.663C153.61 268.672 153.657 268.748 153.629 268.814C153.61 268.862 153.562 268.9 153.506 268.89L152.643 268.795C152.511 268.786 152.406 268.881 152.406 269.013C152.406 269.099 152.463 269.174 152.548 269.212L153.686 269.648C154.008 269.771 154.349 269.828 154.69 269.828L156.889 269.79L155.95 266.711Z" fill="#F5B7CD"/>
<path d="M150.274 253.917C150.265 253.917 150.255 253.917 150.246 253.917C150.189 253.908 150.151 253.842 150.16 253.785L151.051 249.89C151.061 249.833 151.127 249.795 151.184 249.805C151.241 249.814 151.279 249.881 151.269 249.937L150.378 253.832C150.369 253.88 150.321 253.917 150.274 253.917Z" fill="#111B39"/>
<path d="M162.091 252.818C162.044 252.818 161.996 252.78 161.977 252.733C161.447 250.297 161.485 249.549 161.485 249.52C161.485 249.454 161.542 249.407 161.608 249.416C161.674 249.416 161.722 249.473 161.712 249.539C161.712 249.549 161.674 250.297 162.195 252.685C162.205 252.742 162.167 252.809 162.11 252.818C162.11 252.818 162.101 252.818 162.091 252.818Z" fill="#111B39"/>
<path d="M100.474 266.712H104.625V266.096H100.474V266.712Z" fill="#BCBDBF"/>
<path d="M98.3178 292.065C98.3178 292.065 98.2041 293.856 98.2041 294.548C98.2041 295.24 98.1472 295.439 98.1472 295.439H101.597L101.199 291.904L98.3178 292.065Z" fill="#EF8DA0"/>
<path d="M102.117 297.978H97.512C97.0951 297.978 96.7539 297.637 96.7539 297.22V294.965C96.7539 294.548 97.0951 294.207 97.512 294.207H102.117C102.534 294.207 102.876 294.548 102.876 294.965V297.22C102.885 297.637 102.544 297.978 102.117 297.978ZM97.512 294.87C97.4646 294.87 97.4172 294.908 97.4172 294.965V297.22C97.4172 297.267 97.4551 297.315 97.512 297.315H102.117C102.165 297.315 102.212 297.277 102.212 297.22V294.965C102.212 294.917 102.174 294.87 102.117 294.87H97.512Z" fill="#111B39"/>
<path d="M96.2044 307.606H103.529C105.216 307.606 106.59 306.232 106.59 304.545V300.129C106.59 298.443 105.216 297.068 103.529 297.068H96.2044C94.5176 297.068 93.1436 298.443 93.1436 300.129V304.545C93.1436 306.232 94.5081 307.606 96.2044 307.606Z" fill="#EB634D"/>
<path d="M106.23 300.451H93.4941C93.4373 300.451 93.3899 300.404 93.3899 300.357C93.3899 300.309 93.4373 300.262 93.4941 300.262H106.23C106.287 300.262 106.334 300.309 106.334 300.357C106.334 300.404 106.287 300.451 106.23 300.451Z" fill="#111B39"/>
<path d="M99.8622 303.939C99.3978 303.939 99.0188 303.56 99.0188 303.095V300.347C99.0188 300.29 99.0662 300.252 99.123 300.252C99.1799 300.252 99.2273 300.3 99.2273 300.347V303.095C99.2273 303.455 99.521 303.74 99.8717 303.74C100.232 303.74 100.516 303.446 100.516 303.095V300.347C100.516 300.29 100.563 300.252 100.62 300.252C100.677 300.252 100.725 300.3 100.725 300.347V303.095C100.706 303.56 100.327 303.939 99.8622 303.939Z" fill="#111B39"/>
<path d="M99.6157 303.048C99.6157 303.171 99.72 303.275 99.8431 303.275C99.9663 303.275 100.071 303.171 100.071 303.048C100.071 302.925 99.9663 302.821 99.8431 302.821C99.72 302.821 99.6157 302.925 99.6157 303.048Z" fill="#1B284F"/>
<path d="M101.255 296.396C101.54 296.396 101.767 296.168 101.767 295.884V294.974C101.767 294.69 101.54 294.463 101.255 294.463C100.971 294.463 100.744 294.69 100.744 294.974V295.884C100.744 296.168 100.971 296.396 101.255 296.396Z" fill="#F5B7CD"/>
<path d="M100.232 296.945C100.516 296.945 100.743 296.718 100.743 296.434V294.861C100.743 294.576 100.516 294.349 100.232 294.349C99.9474 294.349 99.72 294.576 99.72 294.861V296.434C99.72 296.718 99.9569 296.945 100.232 296.945Z" fill="#F5B7CD"/>
<path d="M99.2085 296.737C99.4928 296.737 99.7202 296.509 99.7202 296.225V294.984C99.7202 294.699 99.4928 294.472 99.2085 294.472C98.9242 294.472 98.6968 294.699 98.6968 294.984V296.225C98.7063 296.5 98.9337 296.737 99.2085 296.737Z" fill="#F5B7CD"/>
<path d="M98.1943 296.396C98.4786 296.396 98.706 296.168 98.706 295.884V294.974C98.706 294.69 98.4786 294.463 98.1943 294.463C97.91 294.463 97.6826 294.69 97.6826 294.974V295.884C97.6826 296.168 97.91 296.396 98.1943 296.396Z" fill="#F5B7CD"/>
<path d="M99.284 295.704C99.3787 295.363 99.6441 294.851 100.345 294.794L100.649 294.766C100.677 294.766 100.705 294.747 100.734 294.737C100.743 294.775 100.753 294.813 100.753 294.861V294.974C100.753 294.69 100.98 294.463 101.264 294.463C101.549 294.463 101.776 294.69 101.776 294.974V295.344C101.606 295.6 101.34 295.77 101.037 295.808L99.4924 295.979C99.3503 295.998 99.2461 295.856 99.284 295.704Z" fill="#EF8DA0"/>
<path d="M101.549 291.989L101.909 292.795C102.023 293.032 102.07 293.297 102.051 293.562L101.966 294.775C101.928 295.268 101.549 295.657 101.056 295.704L99.5682 295.846C99.4355 295.856 99.3313 295.732 99.3692 295.6C99.4545 295.306 99.7103 294.851 100.383 294.813L100.667 294.794C100.781 294.785 100.857 294.681 100.838 294.576L100.829 294.52C100.81 294.415 100.724 294.349 100.62 294.358C100.326 294.396 99.7388 294.377 99.5966 293.724C99.445 293.041 99.6061 292.245 99.6914 291.914C99.7103 291.828 99.7956 291.762 99.8904 291.771L101.378 291.876C101.463 291.885 101.52 291.923 101.549 291.989Z" fill="#F5B7CD"/>
<path d="M103.17 263.655C103.17 263.655 98.1566 275.5 97.6354 278.855C97.1237 282.21 97.6354 291.762 97.6354 291.762L102.127 291.677C102.127 291.677 102.288 280.381 102.705 279.319C103.653 276.95 105.311 275.188 105.311 275.188L103.17 263.655Z" fill="#1B284F"/>
<path opacity="0.15" d="M121.317 335.714C121.44 336.131 121.203 336.595 120.862 336.86C120.521 337.135 120.085 337.249 119.658 337.363C115.716 338.339 111.537 338.377 107.576 337.467C106.998 337.334 106.401 337.173 105.946 336.785C105.491 336.396 105.216 335.733 105.463 335.193C105.823 334.378 106.951 334.349 107.841 334.444C110.447 334.738 113.044 335.174 115.669 335.022C116.834 334.956 120.871 334.122 121.317 335.714Z" fill="#040000"/>
<path d="M118.777 250.076L119.014 250.692V252.227L119.961 254.521C120.085 254.805 119.867 255.127 119.554 255.127H118.834L119.118 256.321C119.118 256.321 119.459 257.799 118.038 258.197C116.616 258.595 115.877 258.197 115.877 258.197V261.097L108.78 261.249C109.67 259.458 110.571 257.657 110.476 256.548C110.476 256.548 109.054 254.274 109.395 251.147C109.576 249.527 111.139 248.048 112.987 247.375C115.328 246.551 117.896 247.773 118.777 250.076Z" fill="#F5B7CD"/>
<path d="M118.853 255.126H117.772C117.223 255.126 116.711 255.391 116.398 255.836L115.64 256.898C115.64 256.898 116.768 257.372 117.488 256.651C118.208 255.931 119.089 256.092 119.089 256.092C119.364 255.581 119.184 255.315 118.853 255.126Z" fill="#1B284F"/>
<path d="M109.415 251.146C109.595 249.525 111.158 248.047 113.006 247.374C114.75 246.749 116.636 247.279 117.839 248.568C117.839 248.568 115.318 249.033 113.887 249.033C113.887 249.033 114.001 249.715 114.181 250.407C114.371 251.146 114.229 251.923 113.821 252.567C113.745 252.69 113.688 252.823 113.688 252.965C113.688 252.965 112.892 252.131 111.907 252.719C110.912 253.306 111.793 254.519 112.409 254.747C113.035 254.974 113.139 254.946 113.139 254.946C113.139 254.946 113.025 255.865 111.878 256.225C110.732 256.585 110.495 256.528 110.495 256.528C110.495 256.528 109.074 254.273 109.415 251.146Z" fill="#1B284F"/>
<path d="M116.322 260.281C116.057 259.466 115.337 258.888 114.484 258.821C112.466 258.66 107.358 258.319 107.358 260.565L116.322 260.281Z" fill="white"/>
<path d="M125.306 267.018L126.32 264.735C126.415 264.517 126.585 264.346 126.794 264.242L128.85 263.237C128.954 263.181 129.077 263.162 129.201 263.162H130.698C130.698 263.162 130.745 263.436 130.413 263.768C130.082 264.1 129.077 264.166 129.077 264.166L128.007 265.095L128.206 265.133C128.604 265.208 128.878 265.559 128.859 265.967L128.964 266.033C129.371 266.289 129.485 266.838 129.21 267.236C129.494 267.634 129.485 268.165 129.191 268.563L129.115 268.667C129.115 268.667 128.509 269.814 127.239 270.193C125.969 270.572 124.851 268.061 125.306 267.018Z" fill="#F5B7CD"/>
<path d="M107.841 331.828V334.416C107.841 334.842 108.192 335.193 108.618 335.193H110.011L110.125 335.013C110.258 334.804 110.57 334.804 110.694 335.022L110.788 335.193H115.053C115.346 335.193 115.489 334.823 115.261 334.633L112.077 331.838H107.841V331.828Z" fill="#1B284F"/>
<path d="M110.409 332.795V335.382C110.409 335.808 110.76 336.159 111.186 336.159H112.579L112.693 335.979C112.826 335.771 113.139 335.771 113.262 335.989L113.357 336.159H117.621C117.915 336.159 118.057 335.79 117.829 335.6L114.645 332.805H110.409V332.795Z" fill="#1B284F"/>
<path d="M103.169 289.81L106.818 307.986C106.818 307.986 106.031 328.341 107.709 332.312H112.191L113.404 307.455L111.556 288.388L103.169 289.81Z" fill="#1B284F"/>
<path d="M119.517 289.772L119.052 307.114L115.243 332.975H110.135C110.135 332.975 110.58 311.824 111.575 308.905C112.57 305.986 108.922 292.691 108.922 292.691C108.922 292.691 105.975 293.032 103.568 290.625C101.161 288.218 106.496 286.455 106.496 286.455L118.37 287.829L119.517 289.772Z" fill="#13408A"/>
<path d="M122.217 265.038C122.672 263.275 121.63 261.465 119.867 260.982C117.327 260.281 113.802 259.523 111.461 259.864C107.443 260.451 104.515 260.954 103.435 262.707C102.345 264.46 104.184 275.841 104.184 277.594C104.184 279.347 101.758 290.312 101.758 290.312C101.758 290.312 113.802 292.738 119.99 290.312L118.152 280.778L122.217 265.038Z" fill="#1D55A5"/>
<path d="M124.984 267.037L125.202 266.734L127.637 270.164L127.353 270.468L124.984 267.037Z" fill="white"/>
<path d="M120.918 266.8L118.369 272.78L124.823 266.8L127.457 270.619C127.457 270.619 120.767 279.991 115.962 281.782C111.158 283.573 111.584 272.998 111.584 272.704C111.584 272.41 112.655 261.389 116.19 260.773C116.237 260.764 116.285 260.754 116.341 260.754C119.687 260.271 122.245 263.692 120.918 266.8Z" fill="#1D55A5"/>
<path d="M118.369 272.875C118.35 272.875 118.331 272.865 118.312 272.856C118.275 272.827 118.256 272.78 118.275 272.732L120.824 266.753C120.843 266.706 120.909 266.677 120.956 266.696C121.004 266.715 121.032 266.772 121.013 266.829L118.644 272.372L120.378 270.771C120.416 270.733 120.482 270.733 120.52 270.78C120.558 270.818 120.558 270.885 120.511 270.923L118.436 272.846C118.417 272.865 118.388 272.875 118.369 272.875Z" fill="#111B39"/>
<path d="M114.93 282.076C114.465 282.076 114.048 281.943 113.669 281.668C111.48 280.114 111.442 274.457 111.48 272.761V272.694C111.48 272.372 111.992 267.34 113.385 263.901C113.404 263.853 113.461 263.825 113.518 263.844C113.565 263.863 113.593 263.92 113.574 263.976C112.125 267.558 111.689 272.657 111.689 272.694V272.77C111.651 274.438 111.689 280.02 113.792 281.517C114.38 281.934 115.11 281.991 115.934 281.687C116.455 281.498 117.024 281.204 117.621 280.816C117.668 280.787 117.725 280.797 117.763 280.844C117.791 280.891 117.782 280.948 117.734 280.986C117.119 281.384 116.54 281.678 116.01 281.877C115.621 282.01 115.271 282.076 114.93 282.076Z" fill="#111B39"/>
<path d="M125.979 271.046C125.979 271.207 126.111 271.339 126.272 271.339C126.433 271.339 126.566 271.207 126.566 271.046C126.566 270.885 126.433 270.752 126.272 270.752C126.111 270.752 125.979 270.885 125.979 271.046Z" fill="white"/>
<path d="M125.6 272.135C125.762 272.135 125.893 272.004 125.893 271.842C125.893 271.679 125.762 271.548 125.6 271.548C125.437 271.548 125.306 271.679 125.306 271.842C125.306 272.004 125.437 272.135 125.6 272.135Z" fill="white"/>
<path d="M124.908 272.903C125.07 272.903 125.202 272.772 125.202 272.609C125.202 272.447 125.07 272.316 124.908 272.316C124.746 272.316 124.614 272.447 124.614 272.609C124.614 272.772 124.746 272.903 124.908 272.903Z" fill="white"/>
<path opacity="0.15" d="M13.9158 291.671C13.9158 291.671 14.5507 293.434 18.8625 293.434C23.1743 293.434 40.9143 293.112 45.5198 293.434C50.1254 293.756 63.5062 293.908 66.0743 292.553C68.6424 291.198 62.9565 290.468 58.1141 290.004C53.2621 289.539 30.149 289.795 25.4013 289.776C20.6441 289.757 12.5891 290.544 13.9158 291.671Z" fill="#040000"/>
<path d="M16.4716 289.326L15.6282 289.098L22.2617 258.518H28.8573L33.9557 289.127L33.1028 289.297L28.1466 259.39H22.9251L16.4716 289.326Z" fill="#E6E7E8"/>
<path d="M17.0876 289.544C17.0876 290.141 16.6043 290.624 16.0073 290.624C15.4103 290.624 14.927 290.141 14.927 289.544C14.927 288.947 15.4103 288.463 16.0073 288.463C16.6043 288.463 17.0876 288.947 17.0876 289.544Z" fill="#A7A9AC"/>
<path d="M34.6095 289.544C34.6095 290.141 34.1263 290.624 33.5293 290.624C32.9323 290.624 32.449 290.141 32.449 289.544C32.449 288.947 32.9323 288.463 33.5293 288.463C34.1263 288.463 34.6095 288.947 34.6095 289.544Z" fill="#A7A9AC"/>
<path d="M25.228 289.326L24.394 289.098L31.0181 258.518H37.6137L42.7121 289.127L41.8592 289.297L36.903 259.39H31.6909L25.228 289.326Z" fill="#6D6E71"/>
<path d="M25.8534 289.544C25.8534 290.141 25.3702 290.624 24.7732 290.624C24.1762 290.624 23.6929 290.141 23.6929 289.544C23.6929 288.947 24.1762 288.463 24.7732 288.463C25.3702 288.463 25.8534 288.947 25.8534 289.544Z" fill="#6D6E71"/>
<path d="M43.3659 289.544C43.3659 290.141 42.8826 290.624 42.2856 290.624C41.6886 290.624 41.2053 290.141 41.2053 289.544C41.2053 288.947 41.6886 288.463 42.2856 288.463C42.8826 288.463 43.3659 288.947 43.3659 289.544Z" fill="#6D6E71"/>
<path d="M18.2907 238.19H33.6521L34.2301 249.097C34.4291 252.793 36.2202 256.214 39.139 258.488L42.9959 261.483H24.024L21.996 259.588C19.191 256.963 17.5231 253.343 17.3431 249.505L16.8882 239.668C16.8408 238.863 17.4852 238.19 18.2907 238.19Z" fill="#BCBDBF"/>
<path d="M18.5654 249.495L18.1105 239.659C18.0726 238.853 18.717 238.19 19.513 238.19H18.2906C17.4851 238.19 16.8502 238.863 16.8881 239.659L17.3429 249.495C17.523 253.333 19.1908 256.953 21.9958 259.578L23.5783 261.141L25.2556 261.473L23.2277 259.578C20.4132 256.953 18.7454 253.333 18.5654 249.495Z" fill="#E6E7E8"/>
<path d="M43.5737 261.484H24.1475C23.7874 261.484 23.4937 261.19 23.4937 260.83C23.4937 260.47 23.7874 260.176 24.1475 260.176H43.5737C43.9338 260.176 44.2276 260.47 44.2276 260.83C44.2181 261.19 43.9338 261.484 43.5737 261.484Z" fill="#FEFFFF"/>
<path d="M20.2053 290.643H19.6651L18.7554 245.127H21.1245L20.2053 290.643Z" fill="#9B8DAA"/>
<path d="M21.1244 245.127H18.7554L18.8028 247.762L21.1055 246.151L21.1244 245.127Z" fill="#1B284F"/>
<path d="M63.2189 290.643H62.6787L61.7595 245.127H64.1381L63.2189 290.643Z" fill="#9B8DAA"/>
<path d="M64.138 245.127H61.7595L61.8069 247.762L64.1191 246.151L64.138 245.127Z" fill="#1B284F"/>
<path d="M44.4076 243.8C44.4076 243.8 45.0235 244.217 46.4355 244.416C46.4355 244.416 47.3073 244.483 47.1083 244.113C46.9188 243.743 46.2365 243.364 46.2365 243.364H47.1367L47.1462 243.374C47.3168 243.781 47.7337 244.037 48.1791 243.999C48.8424 243.942 49.2783 243.27 49.0509 242.635C48.8709 242.132 48.6055 241.64 48.236 241.488C47.402 241.137 44.9856 241.251 44.9856 241.251C44.9856 241.251 43.7632 242.635 44.4076 243.8Z" fill="#F5B7CD"/>
<path d="M47.1463 243.364C47.1463 243.364 46.8715 242.985 46.6725 242.976C46.464 242.957 45.6775 242.976 45.6775 242.976L46.2461 243.355L47.1463 243.364Z" fill="#E07D8F"/>
<path d="M35.8697 228.231C35.8697 228.231 38.5799 229.766 38.6367 230.818C38.6936 231.87 37.2532 240.597 37.2532 240.597L45.3838 241.175C45.3838 241.175 43.9908 241.933 44.512 244.085C44.512 244.085 36.5994 244.179 34.6757 243.582C32.752 242.976 35.8697 228.231 35.8697 228.231Z" fill="#1B284F"/>
<path d="M12.7849 227.131C12.7849 227.131 14.2348 224.506 13.2114 223.578C12.1974 222.649 11.5151 222.838 11.5151 222.838C11.5151 222.838 10.9939 223.341 11.5436 223.625C12.0932 223.9 12.5007 224.629 11.9226 224.743C11.3446 224.847 10.8423 224.876 10.8139 224.269C10.7855 223.663 10.8139 223.028 10.8139 223.028C10.8139 223.028 11.2877 223.17 11.5151 222.715C11.7426 222.27 11.3446 221.692 10.8044 221.663C10.2643 221.635 9.79046 222.08 9.81889 222.317C9.84732 222.535 8.97551 221.237 7.87627 220.602C7.7057 220.507 7.49722 220.526 7.3456 220.649C7.1087 220.848 7.13713 221.227 7.40246 221.389C7.9426 221.72 8.72913 222.298 9.10818 223.018L8.8997 223.208C8.8997 223.208 7.73413 222.365 7.06132 221.957C6.84337 221.824 6.5496 221.9 6.41694 222.118L6.37903 222.185C6.25584 222.403 6.33165 222.677 6.54013 222.801L8.45432 223.966L8.37851 224.336L6.89075 223.701C6.63489 223.587 6.34113 223.739 6.26532 224.004C6.20846 224.222 6.32217 224.449 6.53065 224.544L8.3027 225.312C8.3027 225.312 8.90918 227.652 9.5346 228.268C10.16 228.894 12.4343 227.88 12.7849 227.131Z" fill="#F5B7CD"/>
<path d="M10.8231 223.018H10.3872L10.8231 224.26V223.018Z" fill="#E07D8F"/>
<path d="M10.3876 227.444C10.3402 227.444 10.2928 227.406 10.2928 227.359C10.1128 225.151 11.8943 224.885 11.9038 224.876C11.9511 224.866 12.008 224.904 12.0175 224.961C12.027 225.018 11.989 225.065 11.9322 225.075C11.8659 225.084 10.3212 225.331 10.4823 227.349C10.4918 227.397 10.4444 227.444 10.3876 227.444Z" fill="#E07D8F"/>
<path d="M46.9759 285.563L45.6682 278.011C45.6682 278.011 42.7969 277.556 40.6553 279.574L43.4887 286.644L44.2278 286.416V286.473L46.1041 288.122L47.6677 288.084L48.3594 287.354L46.9759 285.563Z" fill="#F5B7CD"/>
<path d="M43.4981 286.644C43.4981 286.644 43.1664 290.036 43.318 290.643C43.4696 291.249 50.0556 291.524 52.1214 290.643C54.1872 289.761 51.6665 288.236 50.7094 288.236C49.7523 288.236 48.1035 286.644 48.1035 286.644C48.1035 286.644 47.7055 288.008 46.9948 287.316C46.2651 286.625 44.9005 284.748 43.4981 286.644Z" fill="#1B284F"/>
<path d="M36.7605 249.013H50.302C50.302 249.013 53.8651 249.657 50.302 254.632C46.739 259.607 42.0103 262.431 42.0103 262.431C42.0103 262.431 42.5505 258.119 38.9685 259.114L42.5979 254.717C42.5979 254.717 35.1306 256.954 32.5626 257.039C29.985 257.115 29.9377 249.61 36.7605 249.013Z" fill="#1B284F"/>
<path d="M22.0247 249.013C22.0247 249.013 22.2805 254.85 24.2611 257.816C26.2417 260.783 34.9695 266.658 34.9695 266.658C34.9695 266.658 40.0868 277.414 40.6649 279.565C40.6649 279.565 42.9961 278.001 45.6779 278.001C45.6779 278.001 41.6599 264.905 40.9681 263.862C40.2669 262.81 35.2633 254.263 35.2633 254.263C35.2633 254.263 37.187 251.666 36.1351 249.013C35.0832 246.35 22.0247 249.013 22.0247 249.013Z" fill="#97C544"/>
<path d="M40.9586 263.872C40.807 263.644 40.4658 263.085 40.011 262.337C39.3761 263.237 36.4005 267.52 37.604 266.25C38.5895 265.208 40.3711 264.696 41.2429 264.497C41.1291 264.185 41.0249 263.967 40.9586 263.872Z" fill="#1B284F"/>
<path d="M26.9707 226.771C26.9707 226.771 22.1568 227.52 21.247 229.244C20.5553 230.562 22.9433 237.413 24.0994 240.55C24.4784 241.573 24.4689 242.691 24.0709 243.715L22.0146 249.012C26.2884 250.5 31.2255 250.433 36.7501 249.012C36.7501 249.012 34.8738 244.207 35.5087 241.402C36.1436 238.588 40.3416 236.958 38.9486 234.504C37.565 232.059 36.0204 230.514 36.2952 229.15C36.57 227.785 33.3008 227.292 31.6709 226.771C30.0504 226.25 26.9707 226.771 26.9707 226.771Z" fill="#1D55A5"/>
<path d="M36.0022 245.63L23.5221 245.156L23.0293 246.416L36.0022 245.63Z" fill="#1B284F"/>
<path d="M25.8242 227.16C25.8242 227.16 24.6113 228.96 28.7524 229.377C32.8935 229.794 33.1114 227.463 33.1114 227.463C33.1114 227.463 33.0166 226.496 31.5668 226.231C29.8232 225.909 28.1933 226.477 27.7289 226.307C27.2646 226.136 26.1654 226.544 25.8242 227.16Z" fill="#1D55A5"/>
<path d="M26.4687 215.287C26.4687 215.287 24.2607 212.729 22.0433 214.112C19.8353 215.496 21.4937 219.087 19.3521 219.988C19.3521 219.988 22.1191 222.338 24.744 219.021C27.3689 215.704 26.4687 215.287 26.4687 215.287Z" fill="#1B284F"/>
<path d="M27.6248 218.925C27.6248 218.925 30.2687 219.512 32.6567 219.171C33.3769 219.067 33.8981 218.413 33.8412 217.683C33.7465 216.433 33.1684 214.585 30.7046 213.931C26.8478 212.898 25.4264 215.542 25.4264 215.542C25.4264 215.542 22.0434 220.185 25.7296 222.952C29.4253 225.729 27.6248 218.925 27.6248 218.925Z" fill="#1B284F"/>
<path d="M33.1113 218.716C33.1113 218.716 33.3388 221.398 32.7512 222.592C32.1732 223.786 31.055 223.597 31.1118 224.582C31.1498 225.293 31.5288 226.174 31.7373 226.601C31.8889 226.913 31.851 227.292 31.633 227.567C31.3772 227.889 30.8465 228.202 29.7473 228.23C29.0176 228.249 28.468 228.183 28.051 228.088C27.454 227.946 27.1698 227.273 27.4825 226.752C27.9373 226.003 28.3922 224.876 27.6246 224.099C26.3738 222.848 25.3408 221.872 25.881 221C26.4211 220.128 27.2361 220.782 27.2361 220.782L27.6151 218.934C27.6246 218.925 32.6565 219.2 33.1113 218.716Z" fill="#F5B7CD"/>
<path d="M21.2473 229.244C21.2473 229.244 18.5655 233.471 17.9116 236.361C17.2578 239.251 13.003 226.885 13.003 226.885C13.003 226.885 11.6384 228.695 9.23145 228.23C9.23145 228.23 12.8419 239.336 16.3007 242.947C19.75 246.557 24.8198 233.385 24.8198 233.385C24.8198 233.385 23.8722 228.306 21.2473 229.244Z" fill="#1D55A5"/>
<path d="M13.003 226.885C13.003 226.885 11.6384 228.695 9.23145 228.23C9.23145 228.23 9.51573 229.102 9.99902 230.438C12.0364 230.296 13.1735 229.699 13.8084 229.112C13.3252 227.813 13.003 226.885 13.003 226.885Z" fill="#1D55A5"/>
<path d="M38.959 259.115L35.0359 263.597L37.6039 266.25L42.0009 262.431C42.0009 262.431 42.958 257.949 38.959 259.115Z" fill="#F5B7CD"/>
<path d="M35.0357 263.588C35.0357 263.588 30.5535 265.625 31.4726 266.98C32.3918 268.345 36.7604 272.23 38.9494 271.017C41.1384 269.804 37.6132 268.705 37.6037 266.241C37.6037 263.777 35.2631 263.483 35.0357 263.588Z" fill="#F5B7CD"/>
<path d="M36.2961 266.487C35.6896 266.089 36.2961 265.663 35.6612 264.848C35.0263 264.023 33.2448 264.573 33.2353 264.573C32.1171 265.284 30.9705 266.241 31.4822 266.989C32.4014 268.354 36.7699 272.239 38.9589 271.026C40.9773 269.908 38.1439 268.894 37.6796 266.819C37.3858 266.809 36.7509 266.781 36.2961 266.487Z" fill="#1B284F"/>
<path d="M36.3718 270.06C35.0167 269.605 32.3728 267.037 31.8422 266.667C31.5958 266.497 31.4442 266.525 31.3589 266.62C31.3684 266.743 31.4063 266.866 31.4821 266.99C32.3065 268.203 35.8696 271.424 38.1817 271.244C38.6366 270.742 37.7174 270.505 36.3718 270.06Z" fill="#1D55A5"/>
<path d="M23.1899 237.157C23.1804 237.157 23.1709 237.157 23.152 237.148C23.0951 237.129 23.0572 237.062 23.0762 237.005C23.0951 236.958 24.6018 232.135 22.7066 229.481C22.6687 229.434 22.6782 229.358 22.735 229.32C22.7824 229.282 22.8582 229.292 22.8961 229.349C24.8577 232.087 23.3699 236.873 23.3036 237.072C23.2846 237.129 23.2372 237.157 23.1899 237.157Z" fill="#111B39"/>
<path d="M67.7487 245.63H16.282C16.0072 245.63 15.7798 245.402 15.7798 245.127C15.7798 244.853 16.0072 244.625 16.282 244.625H67.7487C68.0236 244.625 68.251 244.853 68.251 245.127C68.251 245.402 68.0236 245.63 67.7487 245.63Z" fill="#9B8DAA"/>
<path d="M43.83 244.625H60.4797C60.9156 244.625 61.2662 244.274 61.2662 243.838H43.053C43.053 244.274 43.4036 244.625 43.83 244.625Z" fill="#D1D3D4"/>
<path d="M45.9717 244.625H64.2797C64.7156 244.625 65.0662 244.274 65.0662 243.838H46.9003C46.7487 244.189 46.5592 244.625 45.9717 244.625Z" fill="#E6E7E8"/>
<path d="M48.9946 244.416H49.6769C49.7622 244.416 49.8285 244.35 49.8285 244.265C49.8285 244.179 49.7622 244.113 49.6769 244.113H48.9946C48.9094 244.113 48.843 244.179 48.843 244.265C48.843 244.341 48.9094 244.416 48.9946 244.416Z" fill="#BCBDBF"/>
<path d="M48.426 244.407C48.5098 244.407 48.5777 244.339 48.5777 244.255C48.5777 244.172 48.5098 244.104 48.426 244.104C48.3423 244.104 48.2744 244.172 48.2744 244.255C48.2744 244.339 48.3423 244.407 48.426 244.407Z" fill="#BCBDBF"/>
<path d="M68.7618 233.604H52.6049C52.0932 233.604 51.6288 233.898 51.4109 234.353L46.8623 243.838H65.0756L69.463 234.694C69.6999 234.192 69.3209 233.604 68.7618 233.604Z" fill="#79A1D5"/>
<path d="M52.6333 233.604H52.15C51.6383 233.604 51.174 233.898 50.956 234.353L46.4075 243.838H46.8908L51.4393 234.353C51.6573 233.888 52.1216 233.604 52.6333 233.604Z" fill="#E6E7E8"/>
<path opacity="0.15" d="M257.186 347.78C257.361 345.554 262.482 345.771 265.31 345.089C268.138 344.407 275.414 344.919 277.339 345.156C279.273 345.383 284.385 345.279 284.385 347.78C284.385 347.78 284.32 349.761 282.285 349.761C280.249 349.761 260.797 350.112 259.71 349.761C258.623 349.41 257.011 350.007 257.186 347.78Z" fill="#040000"/>
<path d="M271.279 346.416C273.296 345.307 274.907 344.018 275.838 342.407H279.605V346.577C279.605 346.871 279.374 347.117 279.08 347.117C278.794 347.117 278.555 346.88 278.555 346.577V345.174L278.076 345.885C277.551 346.662 276.685 347.117 275.773 347.117H271.518C271.26 347.117 271.076 346.871 271.14 346.615C271.177 346.539 271.223 346.473 271.279 346.416Z" fill="#1B284F"/>
<path d="M274.115 344.473H276.482L278.251 342.407H279.614V338.512H275.801L276.049 342.038L274.115 344.473Z" fill="#F5B7CD"/>
<path d="M279.614 338.512C279.614 338.512 280.858 325.075 279.614 320.858L278.702 299.953L270.929 301.09L274.116 320.848L275.801 338.503H279.614V338.512Z" fill="#1B284F"/>
<path d="M261.414 346.416C263.431 345.307 265.043 344.018 265.973 342.407H269.74V346.577C269.74 346.871 269.51 347.117 269.215 347.117C268.93 347.117 268.69 346.88 268.69 346.577V345.174L268.211 345.885C267.686 346.662 266.82 347.117 265.909 347.117H261.654C261.396 347.117 261.211 346.871 261.276 346.615C261.313 346.539 261.359 346.473 261.414 346.416Z" fill="#1B284F"/>
<path d="M264.251 344.473H266.618L268.386 342.407H269.749L269.915 338.531L266.434 338.181L266.176 342.038L264.251 344.473Z" fill="#F5B7CD"/>
<path d="M270.081 338.702C270.081 338.702 272.319 325.407 271.398 321.104L272.209 300.199L265.393 300.654L265.918 320.668L266.277 338.399L270.081 338.702Z" fill="#1B284F"/>
<path d="M260.152 281.331C260.152 281.331 259.397 291.509 262.031 291.291C264.665 291.073 263.984 279.095 263.984 279.095L260.152 281.331Z" fill="#E07D8F"/>
<path d="M269.538 269.865C269.538 269.865 276.814 270.206 277.735 270.566C283.556 272.812 284.855 282.44 284.855 282.44C284.855 282.44 284.496 283.236 282.681 283.72C280.876 284.203 279.632 284.118 279.632 284.118L278.242 290.391L265.393 289.728L262.805 282.469L259.148 281.701C259.148 281.701 259.563 273.551 262.888 271.362C263.579 270.917 269.538 269.865 269.538 269.865Z" fill="#97C544"/>
<path d="M283.998 283.198L283.924 283.17L283.97 282.099C284.32 282.118 284.606 282.251 284.855 282.44C284.855 282.44 284.689 282.81 283.998 283.198Z" fill="#1B284F"/>
<path d="M278.242 290.391L280.793 299.896C281.198 301.26 281.336 302.682 281.198 304.103C280.756 308.671 280.139 306.349 280.59 309.846C281.327 315.608 281.078 318.906 281.078 318.906C281.078 318.906 270.661 320.441 263.477 318.906L265.393 289.728L278.242 290.391Z" fill="#97C544"/>
<path d="M264.306 260.549C264.306 260.549 264.702 262.322 264.794 263.582C264.896 264.842 265.089 266.311 266.756 266.861C268.423 267.42 268.184 267.268 268.184 267.268C268.239 268.481 267.585 269.163 267.115 270.177L268.405 273.57C268.884 274.83 270.569 274.953 271.214 273.769L273.387 269.77C273.387 269.77 271.177 268.377 271.812 266.861C272.448 265.344 273.387 261.165 273.387 261.165C273.387 261.165 272.236 258.929 270.155 258.503C268.267 258.114 265.513 259.469 264.306 260.549Z" fill="#F5B7CD"/>
<path d="M266.323 266.084C266.167 266.217 266.185 266.453 266.231 266.633C265.863 266.425 265.596 266.169 265.402 265.866L266.48 265.449C266.48 265.449 266.59 265.838 266.323 266.084Z" fill="#E07D8F"/>
<path d="M271.269 262.577C271.269 262.577 272.402 262.16 272.503 263.118C272.604 264.075 272.411 265.562 271.886 265.951C271.361 266.339 271.03 265.714 271.03 265.714L271.352 267.372C271.508 268.178 271.822 268.945 272.31 269.609C272.595 270.007 272.936 270.348 273.258 270.395C274.078 270.509 276.5 270.462 276.123 269.04C275.745 267.619 272.706 267.571 273.793 265.42C274.889 263.269 275.147 259.014 273.258 257.545C271.37 256.077 269.464 257.005 269.464 257.005C269.464 257.005 269.51 255.878 266.277 256.124C263.044 256.37 261.129 259.573 263.846 261.127C266.563 262.682 270.652 260.872 270.652 260.872C270.652 260.872 270.201 262.454 271.269 262.577Z" fill="#1B284F"/>
<path d="M271.665 266.084C271.665 266.283 271.822 266.444 272.015 266.444C272.208 266.444 272.365 266.283 272.365 266.084C272.365 265.885 272.208 265.724 272.015 265.724C271.822 265.724 271.665 265.885 271.665 266.084Z" fill="#E6E7E8"/>
<path d="M283.97 282.099C283.97 282.099 280.249 282.459 278.14 283.682L278.739 292.93L266.452 295.792L267.106 298.446C267.106 298.446 281.603 298.863 282.229 296.844C284.836 288.477 283.97 282.099 283.97 282.099Z" fill="#F5B7CD"/>
<path d="M257.444 292.466L263.247 291.509C263.459 291.471 263.698 291.623 263.781 291.831L266.222 298.484C266.305 298.702 266.194 298.901 265.973 298.938L260.171 299.896C259.959 299.933 259.719 299.782 259.636 299.573L257.196 292.921C257.122 292.703 257.233 292.504 257.444 292.466Z" fill="#E6E7E8"/>
<path d="M266.01 298.522L263.569 291.869C263.486 291.651 263.256 291.509 263.035 291.547L263.247 291.509C263.459 291.471 263.698 291.623 263.781 291.831L266.222 298.484C266.305 298.702 266.194 298.901 265.973 298.938L265.761 298.976C265.982 298.929 266.093 298.73 266.01 298.522Z" fill="white"/>
<path d="M266.959 296.674C266.959 296.674 266.71 295.158 265.761 294.978C264.96 294.826 264.886 294.873 264.886 294.873L265.236 295.83C265.236 295.83 263.21 296.058 262.363 295.755C262.363 295.755 262.05 296.124 262.464 296.427C262.464 296.427 261.912 297.081 262.464 297.498C262.464 297.498 262.05 298.086 262.759 298.133C262.759 298.133 262.611 298.579 263.477 298.806C264.343 299.033 267.226 298.446 267.226 298.446L266.959 296.674Z" fill="#F5B7CD"/>
<path d="M268.276 273.257L267.106 270.178C267.309 269.742 267.539 269.372 267.742 268.984L268.598 268.842C268.598 268.842 268.948 269.912 268.46 270.415C268.469 270.424 268.93 272.026 268.276 273.257Z" fill="#E07D8F"/>
<path d="M267.493 273.551C267.493 273.551 269.16 271.002 267.87 269.751C267.87 269.751 268.359 269.931 268.534 269.315C268.709 268.69 268.626 268.32 267.613 267.913C266.599 267.505 265.955 267.439 265.955 267.439C265.955 267.439 265.236 266.738 265.651 266.245C266.056 265.752 266.489 266.008 266.544 265.051C266.599 264.094 265.817 264.577 265.826 264.767C265.826 264.956 265.623 265.525 264.978 265.875C264.334 266.226 265.015 267.591 265.015 267.591L265.393 273.172L267.493 273.551Z" fill="#F5B7CD"/>
<path d="M267.493 273.551C267.493 273.551 267.087 291.082 262.344 291.291C257.647 291.499 263.017 276.299 265.384 273.172L267.493 273.551Z" fill="#F5B7CD"/>
<path d="M277.984 282.743C277.929 282.743 277.882 282.705 277.864 282.648C277.855 282.61 276.75 278.659 277.864 272.082C277.873 272.016 277.938 271.969 278.002 271.978C278.067 271.988 278.113 272.054 278.104 272.12C276.998 278.64 278.085 282.535 278.104 282.573C278.122 282.639 278.085 282.715 278.021 282.734C278.002 282.743 277.993 282.743 277.984 282.743Z" fill="#111B39"/>
<path d="M269.188 289.718C269.188 290.334 269.925 290.827 270.846 290.827C271.757 290.827 272.503 290.334 272.503 289.718C272.503 289.102 271.767 288.609 270.846 288.609C269.934 288.619 269.188 289.112 269.188 289.718Z" fill="white"/>
<path d="M277.357 289.851H273.489C273.424 289.851 273.369 289.794 273.369 289.728C273.369 289.661 273.424 289.604 273.489 289.604H277.357C277.422 289.604 277.477 289.661 277.477 289.728C277.486 289.794 277.431 289.851 277.357 289.851Z" fill="#111B39"/>
<path d="M268.478 289.851H265.964C265.9 289.851 265.844 289.794 265.844 289.728C265.844 289.661 265.9 289.604 265.964 289.604H268.478C268.543 289.604 268.598 289.661 268.598 289.728C268.598 289.794 268.543 289.851 268.478 289.851Z" fill="#111B39"/>
<path opacity="0.15" d="M337.223 218.475C337.99 217.613 338.73 216.703 339.44 215.737C339.279 214.713 338.294 213.955 337.27 213.756C336.199 213.548 335.1 213.794 334.039 214.012C321.445 216.675 308.244 216.429 295.754 213.301C294.541 212.998 293.309 212.666 292.058 212.714C290.864 212.761 289.632 213.216 288.912 214.164C291.262 216.561 293.679 218.693 296.142 220.513C297.924 220.361 299.706 220.039 301.487 220.191C303.354 220.352 305.372 221.271 305.951 223.053C306.093 223.489 305.979 224.796 306.007 226.095C307.059 226.512 308.121 226.862 309.173 227.156C309.324 226.72 309.495 226.284 309.77 225.981C310.575 225.062 311.779 224.484 313.001 224.484C314.735 224.484 316.413 225.649 317.01 227.279C317.123 227.582 317.209 227.914 317.294 228.246C318.99 228.217 320.677 228.018 322.345 227.649C322.515 227.611 322.677 227.563 322.838 227.526C323.207 226.995 323.586 226.455 323.956 225.924C324.562 225.052 325.197 224.123 325.302 223.062C325.406 222.001 324.761 220.788 323.7 220.646C327.263 219.584 330.949 218.959 334.655 218.788C335.527 218.741 336.408 218.712 337.223 218.475Z" fill="#040000"/>
<path d="M300.322 207.17L330.154 205.872L328.306 212.609L310.935 219.897L299.876 214.969L300.322 207.17Z" fill="#1B284F"/>
<path d="M303.506 204.317L303.761 209.624H326.552L327.13 198.518L303.506 204.317Z" fill="#EB634D"/>
<path d="M310.831 183.734C310.831 183.734 301.098 185.706 299.307 187.174C297.516 188.643 295.744 206.677 296.351 207.511C296.957 208.345 333.385 209.198 334.219 207.634C335.062 206.07 330.381 187.402 329.12 186.464C327.869 185.525 313.92 183.516 310.831 183.734Z" fill="#EB634D"/>
<path d="M326.562 202.811C326.552 202.811 326.552 202.811 326.562 202.811C326.496 202.801 326.448 202.754 326.458 202.697C326.752 199.257 326.458 189.591 326.458 189.487C326.458 189.43 326.505 189.383 326.562 189.373C326.638 189.373 326.666 189.421 326.676 189.478C326.676 189.572 326.969 199.257 326.676 202.706C326.657 202.763 326.609 202.811 326.562 202.811Z" fill="#111B39"/>
<path d="M302.51 202.459H302.501C302.444 202.45 302.396 202.402 302.406 202.336C302.87 198.271 302.036 189.913 302.027 189.837C302.017 189.78 302.065 189.723 302.122 189.723C302.178 189.723 302.235 189.761 302.235 189.818C302.245 189.903 303.088 198.28 302.614 202.365C302.605 202.412 302.567 202.459 302.51 202.459Z" fill="#111B39"/>
<path d="M305.894 206.753L305.429 204.896C305.401 204.772 305.467 204.64 305.6 204.602L306.225 204.403C306.311 204.374 306.377 204.299 306.396 204.213L306.5 203.635C306.519 203.522 306.623 203.436 306.747 203.436H307.258C307.344 203.436 307.419 203.389 307.467 203.323L307.779 202.82C307.855 202.707 307.997 202.669 308.121 202.735L308.718 203.086C308.793 203.133 308.888 203.133 308.964 203.086L309.315 202.887C309.428 202.82 309.57 202.858 309.646 202.962L310.897 204.858C310.973 204.971 310.935 205.133 310.821 205.208L310.546 205.379C310.442 205.445 310.31 205.426 310.234 205.332C310.073 205.142 309.769 205.294 309.807 205.531L309.817 205.616C309.836 205.72 309.779 205.824 309.684 205.872L307.23 207.085C307.211 207.094 307.201 207.094 307.182 207.104C307.031 207.141 306.273 207.303 305.941 206.819C305.903 206.81 305.894 206.781 305.894 206.753Z" fill="#F5B7CD"/>
<path d="M323.207 206.753L323.672 204.896C323.7 204.772 323.634 204.64 323.501 204.602L322.876 204.403C322.79 204.374 322.724 204.299 322.705 204.213L322.601 203.635C322.582 203.522 322.477 203.436 322.354 203.436H321.843C321.757 203.436 321.682 203.389 321.634 203.323L321.321 202.82C321.246 202.707 321.103 202.669 320.98 202.735L320.383 203.086C320.307 203.133 320.213 203.133 320.137 203.086L319.786 202.887C319.673 202.82 319.53 202.858 319.455 202.962L318.204 204.858C318.128 204.971 318.166 205.133 318.28 205.208L318.554 205.379C318.659 205.445 318.791 205.426 318.867 205.332C319.028 205.142 319.331 205.294 319.294 205.531L319.284 205.616C319.265 205.72 319.322 205.824 319.417 205.872L321.871 207.085C321.89 207.094 321.899 207.094 321.918 207.104C322.07 207.141 322.828 207.303 323.16 206.819C323.188 206.81 323.198 206.781 323.207 206.753Z" fill="#F5B7CD"/>
<path d="M305.42 204.27C305.41 204.27 305.41 204.27 305.401 204.27L299.573 203.408C299.516 203.398 299.478 203.342 299.478 203.285C299.488 203.228 299.544 203.19 299.601 203.19L305.429 204.052C305.486 204.062 305.524 204.119 305.524 204.175C305.524 204.223 305.476 204.27 305.42 204.27Z" fill="#111B39"/>
<path d="M324.183 204.573C324.136 204.573 324.089 204.536 324.079 204.488C324.07 204.431 324.108 204.374 324.164 204.365L328.902 203.522C328.959 203.512 329.016 203.55 329.026 203.607C329.035 203.664 328.997 203.721 328.94 203.73L324.202 204.573C324.202 204.573 324.193 204.573 324.183 204.573Z" fill="#111B39"/>
<path d="M309.276 179.555C309.276 179.555 308.461 186.587 313.464 186.587C318.023 186.587 317.861 180.541 317.861 180.541C317.861 180.541 318.316 176.798 314.782 176.371C311.257 175.945 309.068 178.295 309.276 179.555Z" fill="#F5B7CD"/>
<path d="M316.649 177.253C316.649 177.253 315.54 179.432 316.668 180.541C317.388 181.252 317.71 182.266 317.473 183.251L317.464 183.308C317.464 183.308 319.359 181.811 319.7 178.778C320.051 175.746 318.677 173.832 317.502 174.05C317.502 174.05 317.037 171.719 314.071 171.937C311.105 172.154 308.66 171.918 307.589 174.268C306.519 176.618 308.385 178.674 308.385 178.674C308.385 178.674 308.528 181.157 309.542 183.327L309.144 180.427C309.153 180.399 312.413 176.021 316.649 177.253Z" fill="#1B284F"/>
<path d="M317.806 180.92L317.465 183.299C317.465 183.299 319.151 182.408 319.123 181.195C319.113 180.787 318.971 180.569 318.791 180.446C318.393 180.19 317.872 180.456 317.806 180.92Z" fill="#F5B7CD"/>
<path d="M309.286 180.228L309.579 183.289C309.579 183.289 307.959 182.351 307.987 181.138C308.016 179.934 309.286 180.228 309.286 180.228Z" fill="#F5B7CD"/>
<path d="M319.056 196.66H309.153C306.49 196.66 304.33 198.82 304.33 201.483V205.653C304.33 208.316 306.49 210.476 309.153 210.476H319.056C321.718 210.476 323.879 208.316 323.879 205.653V201.483C323.879 198.82 321.718 196.66 319.056 196.66Z" fill="#E6E7E8"/>
<path d="M323.548 211.122H304.652C304.472 211.122 304.33 210.98 304.33 210.8C304.33 210.62 304.472 210.477 304.652 210.477H323.548C323.728 210.477 323.87 210.62 323.87 210.8C323.879 210.98 323.728 211.122 323.548 211.122Z" fill="#73677D"/>
<path d="M320.601 210.913C320.679 210.913 320.743 210.85 320.743 210.771C320.743 210.693 320.679 210.629 320.601 210.629C320.522 210.629 320.459 210.693 320.459 210.771C320.459 210.85 320.522 210.913 320.601 210.913Z" fill="#9B8DAA"/>
<path d="M320.127 210.629H319.009V210.904H320.127V210.629Z" fill="#9B8DAA"/>
<path d="M294.048 202.659L319.938 218.381C317.853 220.077 316.697 222.285 316.223 224.882L289.253 211.302C286.543 209.937 285.69 206.469 287.462 203.995C288.978 201.901 291.84 201.314 294.048 202.659Z" fill="#1D55A5"/>
<path d="M312.451 220.759L310.812 222.143L314.062 223.782C315.038 222.948 316.934 221.328 317.218 221.224C317.597 221.081 312.451 220.759 312.451 220.759Z" fill="#1B284F"/>
<path d="M319.937 218.381L324.249 220.807C324.571 220.987 324.685 221.394 324.495 221.716C323.358 223.697 319.568 230.112 317.559 230.984C317.559 230.984 315.938 230.463 316.564 228.35C317.18 226.236 316.346 224.275 316.346 224.275C316.346 224.275 316.488 219.338 319.937 218.381Z" fill="#1B284F"/>
<path d="M317.559 230.984C319.568 230.112 323.359 223.697 324.496 221.716C324.638 221.461 324.6 221.157 324.42 220.949C323.652 221.404 320.317 223.725 317.559 230.984Z" fill="#2A497B"/>
<path d="M333.527 204.431L306.168 217.433C308.073 219.328 309.002 221.65 309.201 224.284L337.412 213.519C340.255 212.439 341.449 209.065 339.933 206.431C338.644 204.194 335.858 203.323 333.527 204.431Z" fill="#1D55A5"/>
<path d="M306.169 217.433L301.629 219.413C301.288 219.565 301.137 219.953 301.288 220.294C302.217 222.379 305.344 229.145 307.249 230.216C307.249 230.216 308.917 229.865 308.509 227.695C308.111 225.525 309.135 223.668 309.135 223.668C309.135 223.668 309.504 218.74 306.169 217.433Z" fill="#1B284F"/>
<path d="M307.249 230.216C305.344 229.145 302.217 222.379 301.288 220.294C301.165 220.029 301.241 219.726 301.44 219.536C302.169 220.067 305.249 222.72 307.249 230.216Z" fill="#2A497B"/>
<path d="M296.398 202.868C296.209 205.379 296.171 207.255 296.351 207.511C296.521 207.748 299.525 207.985 303.771 208.165L296.398 202.868Z" fill="#EB634D"/>
<path d="M323.719 208.478C329.48 208.411 333.934 208.155 334.228 207.625C334.436 207.246 334.304 205.834 333.981 203.91L323.719 208.478Z" fill="#EB634D"/>
<path d="M307.22 217.044C307.182 217.044 307.145 217.025 307.126 216.988C307.097 216.931 307.126 216.874 307.173 216.845L312.082 214.514C312.138 214.486 312.195 214.514 312.224 214.562C312.252 214.619 312.224 214.675 312.176 214.704L307.268 217.035C307.249 217.044 307.239 217.044 307.22 217.044Z" fill="#111B39"/>
<path d="M12.5015 48.9231L52.2035 70.3475L47.6556 83.56L12.5015 48.9231Z" fill="#1D55A5"/>
<path d="M44.2932 73.1064L47.6556 83.56L12.5015 48.9231L44.2932 73.1064Z" fill="#1B284F"/>
<path d="M12.5015 48.9231L20.5841 91.772L44.2932 73.1064L12.5015 48.9231Z" fill="#7EA4D7"/>
<path d="M52.2035 70.3475L66.4074 73.4944L12.5015 48.9231L52.2035 70.3475Z" fill="#7EA4D7"/>
</g>
</svg>
