<svg width="150" height="25" viewBox="0 0 150 25" fill="none" xmlns="http://www.w3.org/2000/svg">
<path d="M42.2983 11.4678H35.3847V4.67973H32.1428V21.213H35.3847V14.401H42.2983V21.213H45.5402V4.67973H42.2983V11.4678ZM56.5323 4.67973L50.0718 21.213H53.5693L54.708 18.0883H61.9935L63.1322 21.213H66.6297L60.1692 4.67973H56.5323ZM55.6957 15.3468L58.3565 8.05582L60.9942 15.3468H55.6957ZM82.5949 9.61218C82.5949 6.85863 80.4918 4.67973 77.8309 4.67973H71.1729V21.213H74.4148V14.1974H76.0066L79.5274 21.201H83.1527L79.2485 13.97C81.2006 13.4672 82.5949 11.8031 82.5949 9.61218ZM77.7031 11.6235H74.4148V7.56497H77.7031C78.7953 7.56497 79.6552 8.4509 79.6552 9.58824C79.6552 10.7375 78.8186 11.6235 77.7031 11.6235ZM94.5747 17.3461L89.9153 4.67973H86.29L92.7504 21.213H96.3757L102.836 4.67973H99.2109L94.5747 17.3461ZM107.403 21.213H116.966V18.3038H110.645V14.401H116.059V11.4918H110.645V7.56497H116.954V4.67973H107.391V21.213H107.403ZM128.91 11.2523C127.272 10.5939 125.878 10.0192 125.878 8.89386C125.878 7.87625 126.784 7.24173 128.074 7.24173C129.666 7.24173 130.804 7.81638 131.792 8.96569L133.895 6.8706C132.582 5.43396 130.526 4.46423 127.993 4.46423C124.902 4.46423 122.555 6.24806 122.555 9.02555C122.555 11.6953 124.878 12.7009 127.063 13.5869C128.957 14.3411 130.735 15.0235 130.735 16.5559C130.712 17.8369 129.619 18.3397 128.155 18.3397C126.354 18.3397 124.844 17.5496 123.926 16.089L121.695 18.3637C123.043 20.1954 125.448 21.4285 128.051 21.4285C131.339 21.4285 134.023 19.8602 134.023 16.52C134.023 13.3235 131.234 12.1981 128.91 11.2523ZM138.531 4.67973V7.56497H142.68V21.201H145.875V7.56497H150V4.67973H138.531Z" fill="#2EB964"/>
<rect width="25" height="25" fill="white" fill-opacity="0.01"/>
<path d="M22.138 6.25561L13.0216 0.924615C12.7013 0.733299 12.2996 0.733299 11.9793 0.924615L2.86285 6.25561C2.54253 6.44693 2.34424 6.79336 2.34424 7.17082V17.8328C2.34424 18.2103 2.54253 18.5567 2.86285 18.748L11.9793 24.079C12.142 24.1721 12.3199 24.2186 12.503 24.2186C12.6809 24.2186 12.864 24.1721 13.0216 24.079L22.138 18.748C22.4584 18.5619 22.6566 18.2103 22.6566 17.8328V7.16565C22.6617 6.78819 22.4584 6.44175 22.138 6.25561ZM20.572 7.7758V11.9434L17.8671 9.46661C17.9688 9.30632 18.0298 9.11501 18.0298 8.90818C18.0298 8.81511 18.0145 8.72203 17.9891 8.63413L20.267 7.59999L20.572 7.7758ZM17.6332 15.5732C17.562 15.5163 17.4807 15.4646 17.3942 15.4284V9.86993C17.5061 9.82339 17.6027 9.75617 17.6891 9.67861L20.572 12.3208V12.4501L17.6332 15.5732ZM17.8874 8.3756C17.7095 8.07053 17.3841 7.86887 17.0078 7.86887C16.8858 7.86887 16.7638 7.89472 16.657 7.93609L14.5469 4.25455L19.9771 7.42936L17.8874 8.3756ZM17.0078 17.4347C17.4451 17.4347 17.8162 17.1606 17.9637 16.7676L20.3229 17.3674L14.669 20.6767L16.6875 17.3778C16.7892 17.4088 16.896 17.4347 17.0078 17.4347ZM18.0247 16.4936C18.0298 16.4574 18.0349 16.4264 18.0349 16.3902C18.0349 16.1575 17.9586 15.9455 17.8264 15.7697L20.572 12.8534V17.1348L18.0247 16.4936ZM14.4097 9.68378V4.5803L16.4078 8.06536C16.1485 8.25667 15.9757 8.56174 15.9757 8.90818C15.9757 9.3632 16.2655 9.74066 16.6621 9.88544V12.0106H8.11001V9.82339C8.43033 9.64759 8.65405 9.30632 8.65405 8.91335C8.65405 8.58243 8.49643 8.28769 8.25746 8.09638L10.459 4.25972L10.5912 4.18216V9.68378H14.4097ZM4.59157 7.68272L6.64569 8.61345C6.62027 8.70652 6.59993 8.80476 6.59993 8.90301C6.59993 9.12018 6.66603 9.32184 6.77789 9.49247L4.42887 11.6487V7.7758L4.59157 7.68272ZM7.02702 15.5525L4.42887 12.7965V12.0313L6.96601 9.70447C7.08295 9.80788 7.22532 9.88027 7.38294 9.92164V15.3922C7.25074 15.4181 7.12871 15.475 7.02702 15.5525ZM7.62699 7.86887C7.26091 7.86887 6.94059 8.06535 6.75755 8.36009L4.88647 7.51209L9.97601 4.53377L8.01849 7.94643C7.89647 7.89472 7.76427 7.86887 7.62699 7.86887ZM6.82365 15.749C6.68128 15.9248 6.59484 16.1472 6.59484 16.3954C6.59484 16.4316 6.59993 16.4729 6.60501 16.5091L4.42378 17.0624V13.1999L6.82365 15.749ZM4.5814 17.3106L6.67111 16.7832C6.82365 17.1658 7.18973 17.4398 7.62191 17.4398C7.76427 17.4398 7.89647 17.4088 8.01849 17.3571L10.3014 20.6612L4.5814 17.3106ZM10.5912 15.3147V20.5785L8.26255 17.2072C8.50152 17.0158 8.65405 16.7263 8.65405 16.3954C8.65405 15.9972 8.43542 15.6611 8.11001 15.4853V12.75H16.6672V15.4233C16.2706 15.568 15.9808 15.9455 15.9808 16.4005C15.9808 16.7625 16.1587 17.0779 16.4333 17.264L14.4097 20.5629V15.3147H10.5912Z" fill="#2EB964"/>
</svg>
