<svg width="182" height="17" viewBox="0 0 182 17" fill="none" xmlns="http://www.w3.org/2000/svg">
<path d="M113.158 7.0703H108.739V2.80212H106.667V13.1978H108.739V8.91457H113.158V13.1978H115.23V2.80212H113.158V7.0703ZM122.256 2.80212L118.127 13.1978H120.362L121.09 11.2331H125.747L126.475 13.1978H128.71L124.581 2.80212H122.256V2.80212ZM121.722 9.50925L123.422 4.92492L125.108 9.50925H121.722ZM138.915 5.90351C138.915 4.17215 137.571 2.80212 135.87 2.80212H131.614V13.1978H133.687V8.7866H134.704L136.955 13.1903H139.272L136.776 8.64357C138.024 8.32741 138.915 7.28107 138.915 5.90351ZM135.789 7.16815H133.687V4.61628H135.789C136.487 4.61628 137.036 5.17333 137.036 5.88846C137.036 6.61111 136.502 7.16815 135.789 7.16815ZM146.573 10.7664L143.594 2.80212H141.277L145.407 13.1978H147.724L151.853 2.80212H149.536L146.573 10.7664ZM154.772 13.1978H160.885V11.3686H156.844V8.91457H160.305V7.08535H156.844V4.61628H160.877V2.80212H154.765V13.1978H154.772ZM168.52 6.9348C167.473 6.52078 166.581 6.15945 166.581 5.45185C166.581 4.812 167.161 4.41304 167.985 4.41304C169.003 4.41304 169.73 4.77436 170.362 5.49702L171.706 4.17968C170.867 3.27636 169.552 2.66663 167.933 2.66663C165.958 2.66663 164.457 3.78824 164.457 5.53466C164.457 7.21332 165.943 7.84564 167.339 8.40269C168.55 8.87693 169.686 9.30601 169.686 10.2695C169.671 11.075 168.973 11.3912 168.037 11.3912C166.886 11.3912 165.92 10.8943 165.334 9.97596L163.908 11.4062C164.769 12.5579 166.307 13.3333 167.97 13.3333C170.072 13.3333 171.788 12.3472 171.788 10.247C171.788 8.23708 170.005 7.52948 168.52 6.9348ZM174.67 2.80212V4.61628H177.321V13.1903H179.363V4.61628H182V2.80212H174.67Z" fill="#B3B7B5"/>
<rect x="88" width="16" height="16" fill="white" fill-opacity="0.01"/>
<path d="M102.168 4.00367L96.3335 0.591832C96.1285 0.469389 95.8714 0.469389 95.6664 0.591832L89.8319 4.00367C89.6269 4.12611 89.5 4.34783 89.5 4.5894V11.4131C89.5 11.6547 89.6269 11.8764 89.8319 11.9988L95.6664 15.4107C95.7706 15.4702 95.8845 15.5 96.0016 15.5C96.1155 15.5 96.2326 15.4702 96.3335 15.4107L102.168 11.9988C102.373 11.8797 102.5 11.6547 102.5 11.4131V4.5861C102.503 4.34452 102.373 4.1228 102.168 4.00367ZM101.166 4.97659V7.64384L99.4346 6.05871C99.4997 5.95612 99.5388 5.83368 99.5388 5.70131C99.5388 5.64175 99.529 5.58218 99.5127 5.52592L100.971 4.86407L101.166 4.97659ZM99.2849 9.96693C99.2394 9.93053 99.1873 9.89744 99.132 9.87428V6.31683C99.2036 6.28705 99.2654 6.24403 99.3207 6.19439L101.166 7.88542V7.96815L99.2849 9.96693ZM99.4476 5.36046C99.3337 5.16521 99.1255 5.03615 98.8847 5.03615C98.8066 5.03615 98.7285 5.0527 98.6602 5.07917L97.3097 2.72299L100.785 4.75487L99.4476 5.36046ZM98.8847 11.1583C99.1645 11.1583 99.4021 10.9829 99.4964 10.7314L101.006 11.1152L97.3878 13.2332L98.6797 11.1219C98.7448 11.1417 98.8131 11.1583 98.8847 11.1583ZM99.5355 10.556C99.5388 10.5328 99.542 10.513 99.542 10.4898C99.542 10.3409 99.4932 10.2052 99.4086 10.0927L101.166 8.22627V10.9663L99.5355 10.556ZM97.2219 6.1977V2.93147L98.5007 5.16191C98.3348 5.28435 98.2241 5.47959 98.2241 5.70131C98.2241 5.99253 98.4096 6.2341 98.6634 6.32676V7.68686H93.1901V6.28705C93.3951 6.17453 93.5383 5.95612 93.5383 5.70462C93.5383 5.49283 93.4374 5.3042 93.2845 5.18176L94.6935 2.7263L94.7781 2.67666V6.1977H97.2219ZM90.9383 4.91702L92.2529 5.51269C92.2367 5.57225 92.2236 5.63513 92.2236 5.698C92.2236 5.83699 92.2659 5.96605 92.3375 6.07526L90.8342 7.45521V4.97659L90.9383 4.91702ZM92.497 9.9537L90.8342 8.18987V7.7001L92.4579 6.21094C92.5328 6.27712 92.6239 6.32345 92.7248 6.34993V9.85111C92.6402 9.86766 92.5621 9.90406 92.497 9.9537ZM92.881 5.03615C92.6467 5.03615 92.4417 5.16191 92.3245 5.35053L91.127 4.80782L94.3843 2.90169L93.1315 5.08579C93.0534 5.0527 92.9688 5.03615 92.881 5.03615ZM92.3668 10.0794C92.2757 10.192 92.2204 10.3343 92.2204 10.4931C92.2204 10.5163 92.2236 10.5427 92.2269 10.5659L90.8309 10.92V8.44799L92.3668 10.0794ZM90.9318 11.0788L92.2692 10.7413C92.3668 10.9862 92.6011 11.1616 92.8777 11.1616C92.9688 11.1616 93.0534 11.1417 93.1315 11.1086L94.5926 13.2232L90.9318 11.0788ZM94.7781 9.80147V13.1703L93.2877 11.0127C93.4407 10.8902 93.5383 10.7049 93.5383 10.4931C93.5383 10.2383 93.3984 10.0232 93.1901 9.91068V8.16008H98.6667V9.87097C98.4128 9.96363 98.2274 10.2052 98.2274 10.4964C98.2274 10.7281 98.3413 10.9299 98.517 11.0491L97.2219 13.1604V9.80147H94.7781Z" fill="#B3B7B5"/>
<path d="M4.9834 13.1367C4.02637 13.1367 3.28353 12.7926 2.75488 12.1045H2.65918C2.72298 12.7425 2.75488 13.1299 2.75488 13.2666V16.3633H1.14844V5.43945H2.44727C2.48372 5.58073 2.55892 5.91797 2.67285 6.45117H2.75488C3.25618 5.68555 4.00814 5.30273 5.01074 5.30273C5.9541 5.30273 6.68783 5.64453 7.21191 6.32812C7.74056 7.01172 8.00488 7.97103 8.00488 9.20605C8.00488 10.4411 7.736 11.4049 7.19824 12.0977C6.66504 12.7904 5.92676 13.1367 4.9834 13.1367ZM4.59375 6.61523C3.95573 6.61523 3.48861 6.80208 3.19238 7.17578C2.90072 7.54948 2.75488 8.14648 2.75488 8.9668V9.20605C2.75488 10.1266 2.90072 10.7943 3.19238 11.209C3.48405 11.6191 3.96029 11.8242 4.62109 11.8242C5.17708 11.8242 5.60547 11.5964 5.90625 11.1406C6.20703 10.6849 6.35742 10.0355 6.35742 9.19238C6.35742 8.34473 6.20703 7.70443 5.90625 7.27148C5.61003 6.83398 5.17253 6.61523 4.59375 6.61523ZM16.5771 9.20605C16.5771 10.4411 16.2604 11.4049 15.627 12.0977C14.9935 12.7904 14.1117 13.1367 12.9814 13.1367C12.2751 13.1367 11.6507 12.9772 11.1084 12.6582C10.5661 12.3392 10.1491 11.8812 9.85742 11.2842C9.56576 10.6872 9.41992 9.99447 9.41992 9.20605C9.41992 7.98014 9.73438 7.02311 10.3633 6.33496C10.9922 5.64681 11.8786 5.30273 13.0225 5.30273C14.1162 5.30273 14.9821 5.65592 15.6201 6.3623C16.2581 7.06413 16.5771 8.01204 16.5771 9.20605ZM11.0742 9.20605C11.0742 10.9515 11.7191 11.8242 13.0088 11.8242C14.2848 11.8242 14.9229 10.9515 14.9229 9.20605C14.9229 7.47884 14.2803 6.61523 12.9951 6.61523C12.3206 6.61523 11.8307 6.83854 11.5254 7.28516C11.2246 7.73177 11.0742 8.37207 11.0742 9.20605ZM24.6299 13L23.6523 9.47266C23.5339 9.09896 23.3197 8.23079 23.0098 6.86816H22.9482C22.6839 8.09863 22.4743 8.97135 22.3193 9.48633L21.3145 13H19.5371L17.418 5.43945H19.0586L20.0225 9.16504C20.2412 10.0856 20.3962 10.874 20.4873 11.5303H20.5283C20.5739 11.1976 20.6423 10.8171 20.7334 10.3887C20.8291 9.95573 20.9111 9.63216 20.9795 9.41797L22.1279 5.43945H23.8916L25.0059 9.41797C25.0742 9.64128 25.1585 9.98307 25.2588 10.4434C25.3636 10.9036 25.4251 11.2614 25.4434 11.5166H25.498C25.5664 10.9561 25.7259 10.1722 25.9766 9.16504L26.9541 5.43945H28.5674L26.4346 13H24.6299ZM33.1748 13.1367C31.999 13.1367 31.0785 12.7949 30.4131 12.1113C29.7523 11.4232 29.4219 10.4775 29.4219 9.27441C29.4219 8.03939 29.7295 7.06868 30.3447 6.3623C30.96 5.65592 31.8053 5.30273 32.8809 5.30273C33.8789 5.30273 34.6673 5.60579 35.2461 6.21191C35.8249 6.81803 36.1143 7.65202 36.1143 8.71387V9.58203H31.0762C31.099 10.3158 31.2972 10.8809 31.6709 11.2773C32.0446 11.6693 32.571 11.8652 33.25 11.8652C33.6966 11.8652 34.1113 11.8242 34.4941 11.7422C34.8815 11.6556 35.2962 11.5143 35.7383 11.3184V12.624C35.3464 12.8109 34.9499 12.943 34.5488 13.0205C34.1478 13.098 33.6898 13.1367 33.1748 13.1367ZM32.8809 6.51953C32.3704 6.51953 31.9603 6.68132 31.6504 7.00488C31.3451 7.32845 31.1628 7.80013 31.1035 8.41992H34.5352C34.526 7.79557 34.3757 7.32389 34.084 7.00488C33.7923 6.68132 33.3913 6.51953 32.8809 6.51953ZM41.7744 5.30273C42.098 5.30273 42.3646 5.32552 42.5742 5.37109L42.417 6.86816C42.1891 6.81348 41.9521 6.78613 41.7061 6.78613C41.0635 6.78613 40.5417 6.99577 40.1406 7.41504C39.7441 7.83431 39.5459 8.37891 39.5459 9.04883V13H37.9395V5.43945H39.1973L39.4092 6.77246H39.4912C39.7419 6.32129 40.0677 5.96354 40.4688 5.69922C40.8743 5.4349 41.3096 5.30273 41.7744 5.30273ZM47.2842 13.1367C46.1084 13.1367 45.1878 12.7949 44.5225 12.1113C43.8617 11.4232 43.5312 10.4775 43.5312 9.27441C43.5312 8.03939 43.8389 7.06868 44.4541 6.3623C45.0693 5.65592 45.9147 5.30273 46.9902 5.30273C47.9883 5.30273 48.7767 5.60579 49.3555 6.21191C49.9342 6.81803 50.2236 7.65202 50.2236 8.71387V9.58203H45.1855C45.2083 10.3158 45.4066 10.8809 45.7803 11.2773C46.154 11.6693 46.6803 11.8652 47.3594 11.8652C47.806 11.8652 48.2207 11.8242 48.6035 11.7422C48.9909 11.6556 49.4056 11.5143 49.8477 11.3184V12.624C49.4557 12.8109 49.0592 12.943 48.6582 13.0205C48.2572 13.098 47.7992 13.1367 47.2842 13.1367ZM46.9902 6.51953C46.4798 6.51953 46.0697 6.68132 45.7598 7.00488C45.4544 7.32845 45.2721 7.80013 45.2129 8.41992H48.6445C48.6354 7.79557 48.485 7.32389 48.1934 7.00488C47.9017 6.68132 47.5007 6.51953 46.9902 6.51953ZM54.5986 13.1367C53.6553 13.1367 52.9193 12.7949 52.3906 12.1113C51.862 11.4277 51.5977 10.4684 51.5977 9.2334C51.5977 7.99382 51.8643 7.02995 52.3975 6.3418C52.9352 5.64909 53.6781 5.30273 54.626 5.30273C55.6195 5.30273 56.376 5.6696 56.8955 6.40332H56.9775C56.9001 5.861 56.8613 5.43262 56.8613 5.11816V2.36328H58.4746V13H57.2168L56.9365 12.0088H56.8613C56.3464 12.7607 55.5921 13.1367 54.5986 13.1367ZM55.0293 11.8379C55.6901 11.8379 56.1709 11.6533 56.4717 11.2842C56.7725 10.9105 56.9274 10.3066 56.9365 9.47266V9.24707C56.9365 8.2946 56.7816 7.61784 56.4717 7.2168C56.1618 6.81576 55.6764 6.61523 55.0156 6.61523C54.4505 6.61523 54.0153 6.84538 53.71 7.30566C53.4046 7.76139 53.252 8.41309 53.252 9.26074C53.252 10.0993 53.4001 10.7396 53.6963 11.1816C53.9925 11.6191 54.4368 11.8379 55.0293 11.8379ZM68.2705 5.30273C69.2139 5.30273 69.9476 5.64453 70.4717 6.32812C71.0003 7.01172 71.2646 7.97103 71.2646 9.20605C71.2646 10.4456 70.998 11.4118 70.4648 12.1045C69.9316 12.7926 69.1911 13.1367 68.2432 13.1367C67.2861 13.1367 66.5433 12.7926 66.0146 12.1045H65.9053L65.6113 13H64.4082V2.36328H66.0146V4.89258C66.0146 5.07943 66.0055 5.35742 65.9873 5.72656C65.9691 6.0957 65.9554 6.3304 65.9463 6.43066H66.0146C66.5251 5.67871 67.277 5.30273 68.2705 5.30273ZM67.8535 6.61523C67.2064 6.61523 66.7393 6.80664 66.4521 7.18945C66.1696 7.56771 66.0238 8.20345 66.0146 9.09668V9.20605C66.0146 10.1266 66.1605 10.7943 66.4521 11.209C66.7438 11.6191 67.2201 11.8242 67.8809 11.8242C68.4505 11.8242 68.8812 11.5986 69.1729 11.1475C69.4691 10.6963 69.6172 10.0446 69.6172 9.19238C69.6172 7.47428 69.0293 6.61523 67.8535 6.61523ZM71.9824 5.43945H73.7324L75.2705 9.72559C75.5029 10.3363 75.6579 10.9105 75.7354 11.4482H75.79C75.8311 11.1976 75.9062 10.8945 76.0156 10.5391C76.125 10.179 76.7038 8.47917 77.752 5.43945H79.4883L76.2549 14.0049C75.667 15.5771 74.6872 16.3633 73.3154 16.3633C72.96 16.3633 72.6136 16.3245 72.2764 16.2471V14.9756C72.5179 15.0303 72.7936 15.0576 73.1035 15.0576C73.8783 15.0576 74.4229 14.6087 74.7373 13.7109L75.0176 13L71.9824 5.43945Z" fill="#B3B7B5"/>
</svg>
