<svg width="148" height="24" viewBox="0 0 148 24" fill="none" xmlns="http://www.w3.org/2000/svg">
<path d="M39.9541 10.6867H33.0404V3.8986H29.7986V20.4319H33.0404V13.6198H39.9541V20.4319H43.1959V3.8986H39.9541V10.6867ZM54.188 3.8986L47.7276 20.4319H51.225L52.3638 17.3072H59.6492L60.7879 20.4319H64.2854L57.825 3.8986H54.188V3.8986ZM53.3514 14.5656L56.0123 7.2747L58.6499 14.5656H53.3514ZM80.2507 8.83105C80.2507 6.0775 78.1476 3.8986 75.4867 3.8986H68.8287V20.4319H72.0705V13.4163H73.6624L77.1831 20.4199H80.8084L76.9043 13.1888C78.8563 12.686 80.2507 11.0219 80.2507 8.83105ZM75.3589 10.8423H72.0705V6.78385H75.3589C76.4511 6.78385 77.3109 7.66977 77.3109 8.80711C77.3109 9.95642 76.4743 10.8423 75.3589 10.8423ZM92.2305 16.5649L87.571 3.8986H83.9457L90.4062 20.4319H94.0315L100.492 3.8986H96.8667L92.2305 16.5649ZM105.058 20.4319H114.621V17.5227H108.3V13.6198H113.715V10.7107H108.3V6.78385H114.61V3.8986H105.047V20.4319H105.058ZM126.566 10.4712C124.928 9.81276 123.534 9.2381 123.534 8.11273C123.534 7.09512 124.44 6.4606 125.73 6.4606C127.322 6.4606 128.46 7.03526 129.448 8.18457L131.551 6.08947C130.238 4.65283 128.181 3.68311 125.648 3.68311C122.557 3.68311 120.21 5.46693 120.21 8.24443C120.21 10.9142 122.534 11.9198 124.719 12.8057C126.613 13.56 128.391 14.2424 128.391 15.7748C128.367 17.0558 127.275 17.5586 125.811 17.5586C124.01 17.5586 122.499 16.7685 121.581 15.3079L119.351 17.5826C120.698 19.4143 123.104 20.6474 125.706 20.6474C128.995 20.6474 131.679 19.0791 131.679 15.7389C131.679 12.5424 128.89 11.417 126.566 10.4712ZM136.187 3.8986V6.78385H140.335V20.4199H143.531V6.78385H147.656V3.8986H136.187Z" fill="white"/>
<path d="M19.7938 5.47448L10.6774 0.143487C10.357 -0.047829 9.95537 -0.047829 9.63505 0.143487L0.518615 5.47448C0.198294 5.6658 0 6.01223 0 6.3897V17.0517C0 17.4291 0.198294 17.7756 0.518615 17.9669L9.63505 23.2979C9.79775 23.391 9.97571 23.4375 10.1587 23.4375C10.3367 23.4375 10.5197 23.391 10.6774 23.2979L19.7938 17.9669C20.1141 17.7808 20.3124 17.4291 20.3124 17.0517V6.38452C20.3175 6.00706 20.1141 5.66063 19.7938 5.47448ZM18.2278 6.99467V11.1623L15.5228 8.68549C15.6245 8.52519 15.6856 8.33388 15.6856 8.12705C15.6856 8.03398 15.6703 7.94091 15.6449 7.853L17.9227 6.81886L18.2278 6.99467ZM15.289 14.7921C15.2178 14.7352 15.1364 14.6835 15.05 14.6473V9.0888C15.1619 9.04227 15.2585 8.97505 15.3449 8.89749L18.2278 11.5397V11.669L15.289 14.7921ZM15.5432 7.59447C15.3652 7.2894 15.0398 7.08774 14.6636 7.08774C14.5415 7.08774 14.4195 7.11359 14.3127 7.15496L12.2027 3.47342L17.6329 6.64823L15.5432 7.59447ZM14.6636 16.6535C15.1008 16.6535 15.472 16.3795 15.6195 15.9865L17.9786 16.5863L12.3247 19.8956L14.3433 16.5967C14.4449 16.6277 14.5517 16.6535 14.6636 16.6535ZM15.6805 15.7125C15.6856 15.6763 15.6906 15.6453 15.6906 15.6091C15.6906 15.3764 15.6144 15.1644 15.4822 14.9886L18.2278 12.0723V16.3536L15.6805 15.7125ZM12.0654 8.90266V3.79917L14.0636 7.28423C13.8043 7.47554 13.6314 7.78061 13.6314 8.12705C13.6314 8.58207 13.9212 8.95953 14.3178 9.10431V11.2295H5.76577V9.04227C6.0861 8.86646 6.30981 8.5252 6.30981 8.13222C6.30981 7.8013 6.15219 7.50657 5.91322 7.31525L8.11479 3.47859L8.24699 3.40103V8.90266H12.0654ZM2.24733 6.90159L4.30145 7.83232C4.27603 7.92539 4.25569 8.02364 4.25569 8.12188C4.25569 8.33905 4.32179 8.54071 4.43365 8.71134L2.08463 10.8675V6.99467L2.24733 6.90159ZM4.68279 14.7714L2.08463 12.0154V11.2502L4.62177 8.92334C4.73871 9.02675 4.88108 9.09914 5.0387 9.14051V14.6111C4.9065 14.637 4.78447 14.6938 4.68279 14.7714ZM5.28275 7.08774C4.91667 7.08774 4.59635 7.28423 4.41331 7.57896L2.54223 6.73096L7.63177 3.75264L5.67425 7.1653C5.55223 7.11359 5.42003 7.08774 5.28275 7.08774ZM4.47941 14.9679C4.33704 15.1437 4.25061 15.366 4.25061 15.6142C4.25061 15.6504 4.25569 15.6918 4.26078 15.728L2.07954 16.2812V12.4187L4.47941 14.9679ZM2.23716 16.5294L4.32687 16.002C4.47941 16.3847 4.84549 16.6587 5.27767 16.6587C5.42003 16.6587 5.55223 16.6277 5.67425 16.576L7.95718 19.8801L2.23716 16.5294ZM8.24699 14.5336V19.7973L5.91831 16.426C6.15728 16.2347 6.30981 15.9452 6.30981 15.6142C6.30981 15.2161 6.09118 14.88 5.76577 14.7042V11.9689H14.3229V14.6421C13.9263 14.7869 13.6365 15.1644 13.6365 15.6194C13.6365 15.9813 13.8145 16.2968 14.089 16.4829L12.0654 19.7818V14.5336H8.24699Z" fill="white"/>
</svg>
