<svg width="10" height="10" viewBox="0 0 10 10" fill="none" xmlns="http://www.w3.org/2000/svg">
<path d="M0.555555 4.16667H4.16667V0.555556C4.16667 0.248785 4.41545 0 4.72222 0H5.27778C5.58455 0 5.83333 0.248785 5.83333 0.555556V4.16667H9.44444C9.75122 4.16667 10 4.41545 10 4.72222V5.27778C10 5.58455 9.75122 5.83333 9.44444 5.83333H5.83333V9.44444C5.83333 9.75122 5.58455 10 5.27778 10H4.72222C4.41545 10 4.16667 9.75122 4.16667 9.44444V5.83333H0.555555C0.248784 5.83333 0 5.58455 0 5.27778V4.72222C0 4.41545 0.248784 4.16667 0.555555 4.16667Z" fill="#909491"/>
</svg>
