<svg width="14" height="14" viewBox="0 0 14 14" fill="none" xmlns="http://www.w3.org/2000/svg">
<path d="M4.39563 8.10807H1.46521C0.656139 8.10807 0 8.76769 0 9.58105V12.527C0 13.3404 0.656139 14 1.46521 14H4.39563C5.20469 14 5.86083 13.3404 5.86083 12.527V9.58105C5.86083 8.76769 5.20469 8.10807 4.39563 8.10807ZM12.5348 8.10807H9.60437C8.79531 8.10807 8.13917 8.76769 8.13917 9.58105V12.527C8.13917 13.3404 8.79531 14 9.60437 14H12.5348C13.3439 14 14 13.3404 14 12.527V9.58105C14 8.76769 13.3439 8.10807 12.5348 8.10807ZM4.39563 0H1.46521C0.656139 0 0 0.65962 0 1.47298V4.41895C0 5.23231 0.656139 5.89193 1.46521 5.89193H4.39563C5.20469 5.89193 5.86083 5.23231 5.86083 4.41895V1.47298C5.86083 0.65962 5.20469 0 4.39563 0ZM12.5348 0H9.60437C8.79531 0 8.13917 0.65962 8.13917 1.47298V4.41895C8.13917 5.23231 8.79531 5.89193 9.60437 5.89193H12.5348C13.3439 5.89193 14 5.23231 14 4.41895V1.47298C14 0.65962 13.3439 0 12.5348 0Z" fill="#909491"/>
</svg>
