<svg width="24" height="24" viewBox="0 0 24 24" fill="none" xmlns="http://www.w3.org/2000/svg">
<rect width="24" height="24" rx="4" fill="#909491"/>
<path d="M9.39563 13.1081H6.46521C5.65614 13.1081 5 13.7677 5 14.581V17.527C5 18.3404 5.65614 19 6.46521 19H9.39563C10.2047 19 10.8608 18.3404 10.8608 17.527V14.581C10.8608 13.7677 10.2047 13.1081 9.39563 13.1081ZM17.5348 13.1081H14.6044C13.7953 13.1081 13.1392 13.7677 13.1392 14.581V17.527C13.1392 18.3404 13.7953 19 14.6044 19H17.5348C18.3439 19 19 18.3404 19 17.527V14.581C19 13.7677 18.3439 13.1081 17.5348 13.1081ZM9.39563 5H6.46521C5.65614 5 5 5.65962 5 6.47298V9.41895C5 10.2323 5.65614 10.8919 6.46521 10.8919H9.39563C10.2047 10.8919 10.8608 10.2323 10.8608 9.41895V6.47298C10.8608 5.65962 10.2047 5 9.39563 5ZM17.5348 5H14.6044C13.7953 5 13.1392 5.65962 13.1392 6.47298V9.41895C13.1392 10.2323 13.7953 10.8919 14.6044 10.8919H17.5348C18.3439 10.8919 19 10.2323 19 9.41895V6.47298C19 5.65962 18.3439 5 17.5348 5Z" fill="white"/>
</svg>
