<svg width="14" height="14" viewBox="0 0 14 14" fill="none" xmlns="http://www.w3.org/2000/svg">
<path d="M13.4704 11.3953H0.529551C0.389105 11.3953 0.254412 11.464 0.155102 11.5861C0.0557919 11.7082 0 11.8738 0 12.0465V13.3488C0 13.5215 0.0557919 13.6872 0.155102 13.8093C0.254412 13.9314 0.389105 14 0.529551 14H13.4704C13.6109 14 13.7456 13.9314 13.8449 13.8093C13.9442 13.6872 14 13.5215 14 13.3488V12.0465C14 11.8738 13.9442 11.7082 13.8449 11.5861C13.7456 11.464 13.6109 11.3953 13.4704 11.3953ZM13.4704 0H0.529551C0.389105 0 0.254412 0.0686046 0.155102 0.190721C0.0557919 0.312838 0 0.478464 0 0.651163V1.95349C0 2.12619 0.0557919 2.29181 0.155102 2.41393C0.254412 2.53605 0.389105 2.60465 0.529551 2.60465H13.4704C13.6109 2.60465 13.7456 2.53605 13.8449 2.41393C13.9442 2.29181 14 2.12619 14 1.95349V0.651163C14 0.478464 13.9442 0.312838 13.8449 0.190721C13.7456 0.0686046 13.6109 0 13.4704 0ZM13.4704 5.69767H0.529551C0.389105 5.69767 0.254412 5.76628 0.155102 5.8884C0.0557919 6.01051 0 6.17614 0 6.34884V7.65116C0 7.82386 0.0557919 7.98949 0.155102 8.1116C0.254412 8.23372 0.389105 8.30233 0.529551 8.30233H13.4704C13.6109 8.30233 13.7456 8.23372 13.8449 8.1116C13.9442 7.98949 14 7.82386 14 7.65116V6.34884C14 6.17614 13.9442 6.01051 13.8449 5.8884C13.7456 5.76628 13.6109 5.69767 13.4704 5.69767Z" fill="#909491"/>
</svg>
