<svg width="24" height="24" viewBox="0 0 24 24" fill="none" xmlns="http://www.w3.org/2000/svg">
<rect width="24" height="24" rx="4" fill="#909491"/>
<path d="M18.4704 16.3953H5.52955C5.38911 16.3953 5.25441 16.464 5.1551 16.5861C5.05579 16.7082 5 16.8738 5 17.0465V18.3488C5 18.5215 5.05579 18.6872 5.1551 18.8093C5.25441 18.9314 5.38911 19 5.52955 19H18.4704C18.6109 19 18.7456 18.9314 18.8449 18.8093C18.9442 18.6872 19 18.5215 19 18.3488V17.0465C19 16.8738 18.9442 16.7082 18.8449 16.5861C18.7456 16.464 18.6109 16.3953 18.4704 16.3953ZM18.4704 5H5.52955C5.38911 5 5.25441 5.0686 5.1551 5.19072C5.05579 5.31284 5 5.47846 5 5.65116V6.95349C5 7.12619 5.05579 7.29181 5.1551 7.41393C5.25441 7.53605 5.38911 7.60465 5.52955 7.60465H18.4704C18.6109 7.60465 18.7456 7.53605 18.8449 7.41393C18.9442 7.29181 19 7.12619 19 6.95349V5.65116C19 5.47846 18.9442 5.31284 18.8449 5.19072C18.7456 5.0686 18.6109 5 18.4704 5ZM18.4704 10.6977H5.52955C5.38911 10.6977 5.25441 10.7663 5.1551 10.8884C5.05579 11.0105 5 11.1761 5 11.3488V12.6512C5 12.8239 5.05579 12.9895 5.1551 13.1116C5.25441 13.2337 5.38911 13.3023 5.52955 13.3023H18.4704C18.6109 13.3023 18.7456 13.2337 18.8449 13.1116C18.9442 12.9895 19 12.8239 19 12.6512V11.3488C19 11.1761 18.9442 11.0105 18.8449 10.8884C18.7456 10.7663 18.6109 10.6977 18.4704 10.6977Z" fill="white"/>
</svg>
